<svg width="191" height="415" viewBox="0 0 191 415" fill="none" xmlns="http://www.w3.org/2000/svg">
<g id="Camel">
<g id="CAMEL">
<path id="Vector" d="M132.119 373.748C131.377 371.034 130.055 369.608 128.335 368.635C127.563 368.199 126.863 368.109 126.145 368.816C125.24 369.698 124.335 370.563 123.393 371.373C122.935 371.772 122.398 372.146 121.879 371.584C121.636 371.255 121.467 370.878 121.382 370.477C121.298 370.077 121.301 369.663 121.39 369.263C121.511 368.822 121.511 368.356 121.39 367.915C121.088 367.812 120.877 368.109 120.66 368.314C119.79 369.257 119.088 370.343 118.584 371.524C118.264 372.183 117.842 372.848 117.239 372.533C116.635 372.219 116.382 371.324 116.388 370.303C116.424 369.518 116.566 368.741 116.81 367.994C117.009 367.281 117.414 366.652 117.323 365.787C117.009 365.878 116.72 365.945 116.376 366.041H116.315C116.201 366.078 116.092 366.114 115.977 366.162C112.628 367.522 109.762 369.735 108.917 375.368C108.61 376.932 108.418 378.516 108.344 380.107C108.344 385.058 108.736 388.727 112.363 389.174C113.25 389.277 113.425 389.029 113.407 387.832C113.392 383.506 113.927 379.196 115 375.006C115.145 374.401 115.133 373.597 115.887 373.972C116.641 374.347 116.49 375 116.315 375.737C115.587 378.884 115.109 382.083 114.885 385.306C114.807 386.732 115.012 388.195 114.541 389.773C115.621 389.773 116.587 389.724 117.558 389.773C122.386 390.057 127.249 390.716 132.107 390.051C132.391 390.03 132.663 389.928 132.891 389.756C133.119 389.585 133.293 389.351 133.392 389.084C134.434 386.854 134.836 384.378 134.551 381.933C134.146 378.959 132.873 376.505 132.119 373.748Z" fill="#7F6000"/>
<path id="Vector_2" d="M154.011 379.345C153.583 379.376 153.625 380.119 153.523 380.554C153.161 382.193 152.919 383.885 152.485 385.493C152.249 386.406 151.688 387.512 151.03 386.406C150.27 385.13 149.069 384.242 148.84 382.174C148.641 382.658 148.46 383.166 148.237 383.625C147.875 384.387 147.44 384.774 146.752 384.477C146.064 384.181 146.034 383.42 146.046 382.591C146.058 381.763 146.107 380.863 146.095 379.998C146.095 379.521 146.276 378.898 145.865 378.608C145.545 378.39 145.262 378.735 145.014 378.989C142.951 381.092 140.688 381.902 138.22 381.316C137.345 381.104 136.868 381.648 136.524 382.779C135.708 385.307 135.271 387.943 135.227 390.601C135.227 396.216 135.788 398.978 139.342 399.535C140.32 399.686 140.549 399.389 140.519 397.999C140.416 393.629 141.122 389.44 141.883 385.269C142.112 384 142.589 384.06 143.126 384.574C143.554 385.009 143.307 385.783 143.186 386.333C142.332 390.353 141.906 394.452 141.913 398.561C141.94 398.814 141.905 399.07 141.809 399.305C141.713 399.54 141.56 399.748 141.364 399.909C142.492 399.988 143.494 400.042 144.489 400.121C148.882 400.484 153.275 400.852 157.674 400.592C160.124 400.453 160.631 400.06 161.439 395.624C162.007 392.487 160.908 389.918 160.082 387.276C159.828 386.46 159.726 385.13 158.694 386.067C158.465 386.267 158.139 385.825 157.879 385.559C156.522 384.169 155.58 382.223 154.627 380.282C154.452 379.932 154.313 379.333 154.011 379.345Z" fill="#7F6000"/>
<path id="Vector_3" d="M76.1883 383.468C76.0435 383.552 75.9107 383.667 75.7659 383.752C74.0281 384.774 73.2738 387.264 72.0971 389.132C71.6446 389.839 71.2463 391.096 70.4197 390.474C69.7016 389.93 70.0214 388.727 70.0576 387.79C70.1145 387.179 70.2153 386.573 70.3593 385.976C70.5584 384.888 70.7757 383.806 71.0351 382.471C69.3154 383.637 67.8793 384.852 66.9742 387.149C66.6483 387.977 66.2802 389.071 65.5139 388.769C64.6329 388.424 64.7053 387.137 64.6752 386.025C64.6208 383.788 64.7415 381.612 65.8096 379.708C64.114 380.028 62.5813 380.627 61.0245 380.917C59.4677 381.207 58.5143 382.567 57.8566 384.489C56.7516 387.631 56.256 390.954 56.3963 394.282C56.6196 398.434 57.2713 400.864 60.3849 401.275C61.3805 401.408 61.4891 401.028 61.459 399.813C61.465 395.476 61.9404 391.153 62.877 386.919C62.9796 386.406 63.0218 385.759 63.6373 386.061C64.12 386.303 64.3795 386.605 64.2407 387.403C64.2045 387.627 64.1924 387.856 64.1502 388.074C63.5411 391.026 63.1378 394.018 62.9434 397.026C62.8408 398.573 63.0882 400.169 62.6417 401.65C65.5682 402.025 68.4646 402.061 71.3489 402.255C74.0435 402.424 76.7461 402.424 79.4407 402.255C80.9432 402.164 81.5707 400.882 82.0414 399.232C82.6491 397.208 82.697 395.056 82.1802 393.006C81.4923 390.365 80.551 387.917 79.6941 385.408C78.6623 382.283 78.3485 382.126 76.1883 383.468Z" fill="#7F6000"/>
<path id="Vector_4" d="M42.9585 381.044C41.8904 382.253 40.8465 383.558 39.7845 384.804C39.4647 385.184 39.0664 385.342 38.7104 384.997C38.5179 384.764 38.3827 384.489 38.3156 384.194C38.2486 383.899 38.2515 383.592 38.3242 383.299C38.4091 382.806 38.5322 382.321 38.6923 381.848C39.163 380.379 39.6517 378.916 40.219 377.199C38.2549 377.775 36.579 379.07 35.5244 380.826C35.1442 381.431 34.74 382.289 34.0702 381.884C33.4004 381.479 33.4305 382.053 33.3219 382.628C32.7568 385.249 32.4017 387.911 32.2599 390.588C32.1875 392.444 32.0548 394.294 31.9341 396.373C32.8754 396.373 33.8771 396.325 34.8727 396.373C39.4949 396.639 44.1049 397.195 48.7512 396.724C50.1451 396.585 50.7606 395.406 51.2192 393.883C51.886 391.756 51.9549 389.487 51.4183 387.324C50.7774 384.947 50.0079 382.606 49.1133 380.312C48.9443 379.865 48.7935 379.309 48.3771 379.327C46.5005 379.394 44.5756 379.164 42.9585 381.044Z" fill="#7F6000"/>
<path id="Vector_5" d="M32.025 381.655C32.1276 381.147 32.025 380.186 32.7491 380.512C33.4732 380.839 33.3525 380.156 33.437 379.509C33.7146 377.2 33.9016 374.806 35.5188 373.162C31.0897 371.747 26.9382 376.015 26.021 382.658C25.8521 383.867 25.6952 385.142 25.5866 386.394C25.122 391.761 26.4374 394.711 29.5209 395.684C30.5829 396.023 30.6734 395.479 30.6553 394.191C30.6578 389.975 31.1171 385.772 32.025 381.655Z" fill="#7F6000"/>
<path id="Vector_6" d="M20.5959 101.933C20.258 101.643 19.9141 102.296 19.6425 102.646C18.6922 103.793 17.4105 104.617 15.9738 105.004C15.6298 105.125 15.298 105.143 15.135 105.741C14.3506 108.594 14.2058 111.387 15.3583 114.125C16.1367 115.981 16.8306 116.199 17.9651 114.814C20.0468 112.27 21.2295 109.06 21.1269 104.937C21.1269 104.538 21.1269 104.127 21.1269 103.728C21.1728 103.409 21.1491 103.083 21.0574 102.773C20.9658 102.463 20.8084 102.176 20.5959 101.933Z" fill="#3B3838"/>
<path id="Vector_7" d="M41.0462 380.313L40.9189 380.276V380.495L41.0462 380.313Z" fill="#EAB589"/>
<path id="Vector_8" d="M122.923 152.339C121.934 146.411 120.315 140.606 118.096 135.022C116.364 130.7 114.228 127.018 111.295 124.395C107.91 121.373 104.302 118.997 100.808 116.301C100.148 115.839 99.3377 115.643 98.5393 115.751C92.4629 116.084 87.5029 119.596 83.9729 127.182C81.9635 131.492 79.9059 135.741 77.9388 140.111C77.7939 140.438 77.6431 140.758 77.4983 141.078C75.2475 145.914 72.4779 150 69.7444 154.165C69.6944 154.228 69.6518 154.297 69.6177 154.37C69.7082 154.558 69.7806 154.449 69.853 154.328C70.209 154.129 70.5711 153.941 70.9331 153.724C71.9408 153.119 72.9304 152.478 73.9502 152.013C75.6941 151.227 76.6052 152.472 76.2251 155.144C76.0078 156.655 75.6216 158.124 75.2837 159.587C74.8493 161.4 74.3726 163.214 73.8959 165.094C74.4993 165.154 74.7105 164.646 74.976 164.278C76.1828 162.603 77.3896 160.887 78.6327 159.23C79.6645 157.846 80.6481 156.353 81.9092 155.416C83.1704 154.479 84.0634 155.295 84.1479 157.338C84.2041 158.661 84.1637 159.987 84.0272 161.304C83.7919 163.462 83.6531 165.644 83.4238 168.285C84.9685 166.242 85.8374 164.054 86.9477 162.156C87.9192 160.445 88.8002 158.602 90.1639 157.496C91.3104 156.571 92.119 156.837 92.8793 158.378C93.2294 159.1 93.5122 159.853 93.7241 160.627C94.43 163.19 94.9309 165.849 95.4921 168.485C95.74 169.994 96.159 171.471 96.7411 172.885C96.9161 172.335 97.0609 171.948 97.1696 171.537C98.2074 167.614 98.7143 163.474 99.4384 159.418C99.8713 156.414 100.476 153.437 101.249 150.502C101.581 149.414 101.943 148.41 102.848 148.302C103.753 148.193 104.055 149.323 104.459 150.23C104.752 150.934 104.987 151.662 105.159 152.406C105.672 154.636 106.148 156.885 106.631 159.134C107.168 161.636 107.609 164.187 108.441 166.992C108.821 165.347 109.087 164.054 109.425 162.797C110.131 160.107 111.392 159.623 112.816 161.588C114.144 163.431 115.369 165.444 116.648 167.36C117.134 168.248 117.743 169.062 118.458 169.778C118.392 169.005 118.355 168.497 118.313 167.995C118.138 165.765 117.879 163.546 117.806 161.31C117.71 158.257 118.886 157.151 120.667 158.559C121.481 159.2 122.217 160.071 122.99 160.82C124.003 161.793 124.848 163.135 126.007 163.939C126.053 163.278 125.908 162.617 125.59 162.035C124.403 158.893 123.511 155.647 122.923 152.339Z" fill="#7F6000"/>
<path id="Vector_9" d="M65.339 54.7004C65.8455 54.0856 66.2657 53.4043 66.588 52.6755C69.3758 46.3891 69.8827 39.4136 69.237 32.1237C69.0917 29.5982 68.4304 27.1294 67.294 24.8702C66.045 22.5853 64.3071 22.2105 62.6779 23.8668C62.0687 24.521 61.5768 25.2755 61.2237 26.0972C59.0393 30.7818 58.448 36.1313 58.3092 41.6682C58.2066 46.3044 59.0514 51.0918 60.4513 53.7998C61.7366 56.2418 63.7158 56.6529 65.339 54.7004ZM61.2237 30.6186C61.6219 28.9368 62.3255 27.3427 63.2994 25.9159C64.3675 24.5619 65.4476 24.707 66.2803 26.3995C67.644 29.1498 67.9155 32.3897 68.0181 35.684C68.027 35.8552 68.027 36.0267 68.0181 36.1978C67.9698 36.9594 68.2957 38.0112 67.7225 38.3981C67.0527 38.8635 66.3648 38.3981 65.8157 37.6727C64.2588 35.6357 63.1124 32.9458 61.29 31.3379C61.0547 31.1203 61.1332 30.8725 61.2237 30.6186ZM60.9642 50.8016C59.5643 46.3951 59.4195 38.1986 60.6806 33.3145C61.6461 34.1003 62.5995 35.2005 62.7745 36.3368C62.9675 37.6062 63.5951 37.9145 63.933 38.7547C64.3644 39.8017 64.4029 40.9697 64.0416 42.043C63.571 43.5602 62.6839 43.6811 61.7185 43.5118C62.0141 46.2259 62.6176 47.4892 63.6373 47.6101C64.6571 47.731 65.5984 46.3044 66.051 43.9833C66.1518 43.5391 66.2024 43.0849 66.2018 42.6293C66.0993 40.6588 66.8053 40.3686 67.8974 40.8582C67.5656 44.618 66.9742 48.2629 65.4838 51.4363C63.8304 54.7609 62.1228 54.507 60.9461 50.8016H60.9642Z" fill="#090807"/>
<path id="Vector_10" d="M53.9826 24.0239C52.287 20.0284 49.5536 19.8471 47.6407 23.6008C47.4404 23.969 47.2709 24.3531 47.1339 24.7493C44.3771 33.0011 44.2968 41.915 46.9046 50.2153C47.5804 52.3853 48.7148 54.102 50.4466 54.096C52.1784 54.0899 53.168 52.4156 53.9766 50.4027C55.6118 46.3105 55.998 41.7589 56.1368 36.766C56.0584 35.4483 56.0161 33.7437 55.8532 32.1237C55.6423 29.3445 55.0116 26.6135 53.9826 24.0239ZM46.5968 34.9466C46.9347 31.3742 47.3571 28.1584 48.5941 25.3296C49.9035 22.3072 51.6112 22.3496 52.818 25.3658C52.921 25.6144 53.0096 25.8687 53.0835 26.1274C53.4356 27.11 53.7021 28.1212 53.88 29.1498C54.043 30.667 52.8904 30.3043 52.4137 30.9632C51.3336 32.5166 50.1087 33.8404 48.9501 35.2669C48.7907 35.5161 48.5711 35.721 48.3116 35.8626C48.0522 36.0042 47.7612 36.0779 47.4657 36.0769C46.8684 36.0648 46.4098 35.7989 46.6029 34.9466H46.5968ZM52.8301 49.0003C52.6209 49.5856 52.3541 50.1485 52.0336 50.6807C50.9957 52.3309 49.8673 52.3309 48.8536 50.6807C48.2136 49.5067 47.7519 48.2436 47.4838 46.9331C46.9168 44.4386 46.6054 41.8927 46.5546 39.335C46.5123 38.1623 46.8744 38.2348 47.4295 38.253C47.9847 38.2711 48.2441 38.3437 48.1054 39.3712C47.9562 40.7953 48.0978 42.235 48.5217 43.6025C48.8717 44.8839 49.463 45.8692 50.5251 45.6879C51.394 45.5489 52.3353 43.9349 52.4137 42.5507C52.4439 42.0551 52.3353 42.0248 52.0457 42.0127C50.9474 41.9583 50.332 40.9912 50.2052 39.4498C50.0785 37.9084 50.4164 36.5907 51.4664 36.1918C52.2689 35.8895 51.5086 35.1521 51.7621 34.8378C52.4452 33.9516 53.1722 33.1002 53.9404 32.2869C54.3688 31.8396 54.4352 32.4622 54.4654 32.9397C54.5257 33.9673 54.574 35.001 54.6403 36.2583C54.6464 40.5137 54.3507 44.9444 52.8361 49.0003H52.8301Z" fill="#090807"/>
<path id="Vector_11" d="M85.6502 52.4154C86.2364 52.7474 86.902 52.9126 87.5751 52.893C88.2415 52.9041 88.901 52.7571 89.4999 52.464C90.0987 52.1709 90.6198 51.74 91.0206 51.2065C92.2274 49.8102 92.3722 48.4441 91.4852 46.6126C88.6009 40.6466 83.4236 38.3556 78.8135 41.0213C76.5507 42.333 76.3697 44.0134 78.3066 46.262C80.4083 48.6954 82.888 50.7732 85.6502 52.4154ZM79.3264 42.9737C79.4833 42.8972 79.6402 42.8246 79.7971 42.7561C80.869 42.2918 82.0114 42.0119 83.1762 41.928C84.4615 41.7406 85.5898 42.3874 86.6156 43.3304C86.7665 43.4634 86.9174 43.6084 87.0622 43.7535C88.2569 44.8826 89.3123 46.1509 90.2059 47.5314C90.8094 48.5469 90.6404 49.2239 89.9404 49.8344C88.7336 50.8801 87.4785 51.1582 86.1691 50.4389C83.5226 48.8812 81.148 46.9006 79.1394 44.5756C78.4032 43.7777 78.5118 43.3666 79.3264 42.9737Z" fill="#090807"/>
<path id="Vector_12" d="M31.21 69.28C26.425 70.1263 24.7294 72.5078 23.5889 79.0784C23.1303 81.7561 23.9268 82.8925 25.6888 82.1007C27.6965 81.2075 29.4889 79.8923 30.9445 78.2442C32.3565 76.6726 32.9599 74.3998 33.1711 72.2358C33.2013 69.9389 32.6039 69.0141 31.21 69.28ZM31.7591 72.4776C31.4876 74.2003 30.9868 75.7478 29.9972 76.7995C28.7403 78.0974 27.276 79.1761 25.6647 79.9911C24.9285 80.3901 24.7958 80.0999 24.9949 78.9877C25.8397 74.2064 28.1688 71.2687 31.1497 71.3594C31.735 71.2324 31.8859 71.6737 31.7591 72.4776Z" fill="#090807"/>
<path id="Vector_13" d="M27.6076 33.3144C25.2965 34.4206 24.9586 36.4576 26.5395 39.2321C27.8731 41.5774 29.6592 41.3961 31.4272 41.4263C32.6693 41.4739 33.9112 41.3271 35.108 40.9911C35.7718 40.7856 36.5502 40.7251 36.8519 39.5887C37.1838 38.3375 36.6829 37.3824 36.17 36.4939C33.9253 32.5649 31.2522 31.5735 27.6076 33.3144ZM35.277 38.5309C35.1623 38.9359 34.8184 38.8936 34.5589 38.9419C33.5413 39.1854 32.4975 39.3012 31.4513 39.2865C30.2445 39.2019 28.9532 39.5525 27.9274 38.1864C27.4434 37.6929 27.1725 37.0285 27.1731 36.3367C27.2576 35.4119 27.9274 35.4361 28.38 35.2608C30.7936 34.2876 33.1168 34.3541 34.9089 37.5577C35.0356 37.8539 35.3675 38.0957 35.277 38.5309Z" fill="#090807"/>
<path id="Vector_14" d="M67.8611 40.828C66.7388 40.3384 66.0509 40.6285 66.1655 42.5991C66.1661 43.0547 66.1155 43.5088 66.0147 43.9531C65.5742 46.2984 64.6268 47.7249 63.601 47.5799C62.5752 47.4348 61.9778 46.1956 61.6822 43.4816C62.6476 43.6508 63.5346 43.53 64.0053 42.0128C64.3666 40.9395 64.328 39.7715 63.8967 38.7245C63.5588 37.8964 62.9312 37.5881 62.7381 36.3066C62.5631 35.1642 61.6098 34.0641 60.6443 33.2843C59.3832 38.1684 59.528 46.3649 60.9279 50.7714C62.1347 54.4949 63.8122 54.7307 65.4113 51.3759C66.9439 48.2327 67.5353 44.5878 67.8611 40.828Z" fill="#FEFEFE"/>
<path id="Vector_15" d="M53.9468 32.2385C53.1786 33.0519 52.4516 33.9032 51.7685 34.7894C51.515 35.1037 52.2753 35.8411 51.4728 36.1434C50.4229 36.5423 50.0849 37.9084 50.2117 39.4014C50.3384 40.8945 50.9539 41.91 52.0521 41.9644C52.3417 41.9644 52.4503 42.0067 52.4202 42.5023C52.3357 43.8866 51.4004 45.5246 50.5315 45.6395C49.4695 45.8208 48.8781 44.8356 48.5281 43.5541C48.1043 42.1866 47.9626 40.747 48.1118 39.3229C48.2506 38.2953 47.9971 38.2227 47.436 38.2046C46.8748 38.1865 46.5188 38.1139 46.561 39.2866C46.6119 41.8444 46.9232 44.3903 47.4903 46.8847C47.7583 48.1952 48.22 49.4583 48.86 50.6324C49.8737 52.3067 51.0021 52.3067 52.04 50.6324C52.3605 50.1001 52.6273 49.5372 52.8365 48.952C54.3511 44.896 54.6468 40.4895 54.6468 36.1615C54.5804 34.9042 54.5321 33.8706 54.4718 32.843C54.4416 32.4138 54.3752 31.7912 53.9468 32.2385Z" fill="#FEFEFE"/>
<path id="Vector_16" d="M86.169 50.439C87.4785 51.1583 88.7456 50.8802 89.9404 49.8345C90.6403 49.23 90.8274 48.547 90.2059 47.5315C89.3123 46.151 88.2568 44.8827 87.0621 43.7536C86.9173 43.6085 86.7664 43.4635 86.6156 43.3305C85.5717 42.3875 84.4614 41.7407 83.1761 41.9281C82.0113 42.012 80.8689 42.2919 79.797 42.7562C79.6401 42.8207 79.4832 42.8933 79.3263 42.9738C78.5117 43.3667 78.4031 43.7778 79.1393 44.5757C81.148 46.9008 83.5225 48.8813 86.169 50.439Z" fill="#F4B183"/>
<path id="Vector_17" d="M31.1493 71.3595C28.1685 71.2688 25.8393 74.2065 24.9945 78.9878C24.7954 80.1 24.9281 80.3901 25.6643 79.9912C27.2756 79.1762 28.7399 78.0975 29.9968 76.7996C30.9864 75.7479 31.4872 74.2004 31.7588 72.4777C31.8855 71.6738 31.7346 71.2325 31.1493 71.3595Z" fill="#BF9000"/>
<path id="Vector_18" d="M28.3435 35.2608C27.897 35.4361 27.2272 35.4119 27.1367 36.3368C27.136 37.0286 27.407 37.6929 27.891 38.1864C28.9168 39.5525 30.196 39.2019 31.4149 39.2866C32.461 39.3012 33.5049 39.1855 34.5225 38.942C34.782 38.8937 35.1259 38.942 35.2406 38.531C35.3552 38.1199 35.0294 37.854 34.8665 37.5578C33.0804 34.3541 30.7813 34.2876 28.3435 35.2608Z" fill="#F4B183"/>
<path id="Vector_19" d="M113.184 277.687C112.828 276.587 112.888 276.073 113.709 275.517C119.099 271.83 123.716 267.121 127.298 261.656C127.937 260.707 128.167 260.883 128.577 261.947C130.991 268.116 133.404 274.27 135.818 280.407C136.266 281.495 136.49 282.663 136.476 283.84C136.406 286.628 136.875 289.403 137.858 292.013H139.469C138.693 290.46 138.28 288.75 138.262 287.014L140.476 292.001H142.136C141.955 291.62 141.774 291.239 141.605 290.84C138.533 283.852 136.029 276.381 133.157 269.242C130.411 262.442 127.648 255.66 125.132 248.691C122.07 240.191 120.613 231.194 120.835 222.161C120.835 221.611 121.107 220.746 120.552 220.529C119.997 220.311 119.447 220.16 119.429 221.635C119.284 230.599 120.31 239.164 123.098 247.186C124.269 250.552 125.421 253.931 126.719 257.196C127.231 258.501 127.141 259.172 126.441 260.218C121.119 267.943 114.861 273.317 107.856 276.859C98.8469 281.416 89.6327 284.239 80.0988 284.191C78.7833 284.191 78.7834 284.191 79.1032 282.275C80.7867 272.108 82.0116 261.862 81.6435 251.326C81.5168 247.585 81.3177 243.849 81.1789 240.101C81.1427 239.207 80.9315 238.947 80.316 239.019C79.7005 239.092 79.7126 239.624 79.7609 240.283C80.1048 247.476 80.5212 254.663 80.1109 261.88C79.5842 269.842 78.5523 277.762 77.0214 285.593C76.9067 286.444 76.5924 287.256 76.1042 287.963C75.0068 289.469 74.3507 291.253 74.2095 293.113L75.6577 293.076C75.825 291.686 76.3581 290.366 77.2024 289.25C77.5927 288.692 77.8676 288.061 78.011 287.395C78.2523 286.494 78.6144 286.252 79.2178 286.264C90.0793 286.506 100.506 283.175 110.632 277.542C111.325 277.155 111.525 277.324 111.887 278.309C113.63 283.159 115.78 287.852 118.313 292.339H120.22C119.387 290.834 118.579 289.317 117.746 287.787C115.889 284.584 114.36 281.199 113.184 277.687Z" fill="black"/>
<path id="Vector_20" d="M179.897 244.683C179.861 246.061 180.042 247.458 179.764 248.812C179.408 250.552 178.708 250.818 177.803 249.64C177.14 248.769 176.934 247.415 176.289 246.454C174.732 252.305 175.16 260.26 176.657 266.166C176.829 265.815 176.908 265.426 176.886 265.035C177.001 263.718 177.224 262.618 178.395 263.016C178.998 263.234 178.751 262.479 178.775 262.14C178.859 260.593 178.914 259.039 178.968 257.486C179.016 256.156 179.36 255.261 180.368 255.322C181.306 257.559 182.079 259.862 182.679 262.213C182.679 262.213 183.53 264.171 183.457 261.844C183.457 261.53 183.174 257.51 183.174 257.51C183.174 257.51 183.53 256.718 184.133 257.189C184.133 257.189 184.984 257.933 185.087 256.978C185.087 256.978 185.159 251.115 183.602 247.911C183.602 247.911 182.329 244.949 180.422 243.275L180.368 243.226C179.722 243.347 179.915 244.097 179.897 244.683Z" fill="#7F6000"/>
<path id="Vector_21" d="M137.857 292.013C138.02 292.418 138.183 292.823 138.37 293.221H140.181C139.926 292.832 139.694 292.429 139.487 292.013H137.857Z" fill="black"/>
<path id="Vector_22" d="M140.458 291.982L140.99 293.191H142.721C142.516 292.798 142.317 292.399 142.118 291.982H140.458Z" fill="black"/>
<path id="Vector_23" d="M74.1547 293.028C74.1064 293.421 74.0642 293.826 74.04 294.237L75.458 294.201C75.4942 293.79 75.5425 293.385 75.6029 292.992L74.1547 293.028Z" fill="black"/>
<path id="Vector_24" d="M53.5847 294.001C53.5183 294.406 53.464 294.811 53.4097 295.21L55.0027 295.132C55.069 294.727 55.1475 294.322 55.2139 293.923L53.5847 294.001Z" fill="black"/>
<path id="Vector_25" d="M61.2659 294.727C61.1874 294.328 61.103 293.935 61.0245 293.518L59.5884 293.633L59.8237 294.842L61.1935 294.727H61.2659Z" fill="black"/>
<path id="Vector_26" d="M120.184 292.23H118.277C118.512 292.635 118.741 293.034 118.983 293.439H120.859C120.63 293.034 120.407 292.666 120.184 292.23Z" fill="black"/>
<path id="Vector_27" d="M42.0956 295.603C42.0956 295.198 42.0413 294.799 42.0111 294.394H41.2448H40.5146C40.5146 294.793 40.569 295.198 40.5991 295.603H41.275H42.0956Z" fill="black"/>
<path id="Vector_28" d="M67.0588 323.638C67.3726 325.174 67.7528 326.564 67.3364 328.244C66.0873 333.207 66.3468 338.182 67.3967 343.156C67.7829 344.97 68.0726 346.783 69.1225 348.107C69.6404 348.943 69.945 349.894 70.0095 350.875C70.8302 356.625 70.8302 362.462 70.0095 368.211C69.569 371.324 68.5131 373.869 66.6304 375.531C65.9244 376.136 65.2305 376.789 64.2771 377.641C65.2146 377.483 66.1625 377.394 67.1131 377.375C68.1751 377.435 68.5191 378.584 67.8976 379.871C67.6662 380.307 67.3977 380.721 67.095 381.111C66.6834 381.673 66.39 382.314 66.2323 382.993C66.0747 383.673 66.0562 384.377 66.1778 385.064C67.7226 382.041 69.9612 380.833 72.043 379.261C72.5801 378.856 73.2499 378.27 73.7386 379.188C74.2817 380.21 73.5636 380.851 73.1895 381.51C72.4284 382.702 72.1062 384.124 72.2784 385.529C73.8533 381.812 76.3997 381.044 78.9944 380.162C78.1985 378.855 77.6254 377.425 77.2988 375.93C75.6575 368.459 74.2817 360.885 74.5834 352.961C74.7101 349.431 74.2334 345.756 75.3618 342.407C76.0804 340.127 76.1659 337.695 75.6092 335.371C74.9153 331.907 73.8533 328.498 73.799 324.889C73.624 316.324 73.5455 307.747 73.8533 299.182L62.2798 299.671C63.8527 307.662 65.4457 315.651 67.0588 323.638Z" fill="#CFBEB8"/>
<path id="Vector_29" d="M43.5858 316.125C43.888 319.176 43.5887 322.256 42.7048 325.192C40.8367 331.034 40.8684 337.32 42.7954 343.144C43.0452 343.955 43.1753 344.798 43.1815 345.647C43.3326 351.343 42.6495 357.031 41.1541 362.529C40.2972 365.799 38.8189 368.193 36.5259 369.323C35.844 369.656 35.1803 370.043 34.2329 370.532C34.7715 370.575 35.3074 370.648 35.838 370.75C36.6466 370.949 37.7327 370.665 37.9499 372.273C38.143 373.657 37.1836 374.123 36.5681 374.745C36.1113 375.155 35.7571 375.667 35.5338 376.239C35.3106 376.811 35.2246 377.428 35.2828 378.04C37.25 375.809 39.5369 375.144 41.7514 374.189C42.2885 373.96 42.9583 373.67 43.3264 374.619C43.7306 375.737 43.0428 376.245 42.5721 376.813C41.8178 377.725 41.0937 378.626 41.0817 380.264C41.2748 380.016 41.4678 379.787 41.6851 379.575C42.8734 378.229 44.523 377.379 46.3072 377.194L46.7779 377.157H46.8503H47.2667H47.4417H47.7675L48.2744 377.194C47.8231 375.77 47.4861 374.313 47.2667 372.835C46.5003 364.802 46.1443 356.757 47.4417 348.778C47.9304 345.755 47.9123 342.425 49.1553 339.892C50.7484 336.634 50.7604 333.243 50.4346 329.544C50.151 326.346 49.8312 323.106 50.1872 319.872C50.9535 313.405 51.6837 306.919 52.7095 300.529C52.7396 300.36 52.7638 300.185 52.7879 300.016L42.4454 300.451C42.8074 305.694 43.1876 310.918 43.5858 316.125Z" fill="#CFBEB8"/>
<path id="Vector_30" d="M41.0156 279.15C41.0518 279.972 41.0579 280.6 41.1001 281.223C41.4058 285.611 41.7096 290.002 42.0113 294.394C42.0414 294.799 42.0716 295.198 42.0957 295.603C42.1742 296.733 42.2587 297.864 42.3371 298.994L52.9934 298.541C53.1322 297.441 53.2589 296.328 53.4098 295.222C53.4641 294.811 53.5184 294.406 53.5847 294.013C54.1097 290.628 54.9847 287.413 57.3078 285.043C51.6176 284.022 46.211 282.565 41.0156 279.15Z" fill="#EAB589"/>
<path id="Vector_31" d="M125.403 299.532C126.04 300.176 126.514 300.964 126.785 301.829C128.687 307.222 129.45 312.953 129.023 318.657C128.489 324.167 127.515 329.625 126.109 334.978C124.401 342.02 122.627 349.026 119.652 355.173C118.916 356.69 118.126 358.147 117.329 359.592C116.533 361.036 115.73 362.463 114.952 363.938C114.914 363.962 114.88 363.99 114.849 364.022C114.82 364.054 114.804 364.095 114.804 364.137C114.804 364.18 114.82 364.221 114.849 364.252C114.849 364.252 114.849 364.252 114.891 364.252C114.945 364.257 115 364.257 115.054 364.252H115.139C116.097 363.881 117.074 363.56 118.065 363.291C119.212 363.037 119.58 363.775 119.182 365.37C119.013 366.065 118.801 366.742 118.608 367.425C118.988 367.595 119.212 367.299 119.417 367.075C119.96 366.537 120.491 365.951 121.064 365.479C121.637 365.008 122.156 364.711 122.699 365.286C123.243 365.86 123.164 366.785 123.055 367.655C122.891 368.193 122.891 368.768 123.055 369.305C125.24 366.839 127.485 364.548 130.327 367.667C130.001 366.703 129.614 365.76 129.168 364.844C127.848 362.138 127.229 359.143 127.37 356.134C127.548 351.16 128.392 346.231 129.88 341.482C132.831 332.488 135.95 323.614 138.533 314.36C139.131 312.111 140.178 310.008 141.61 308.176C142.944 306.52 143.191 304.344 142.938 301.92C142.832 300.326 142.226 298.807 141.206 297.58C140.898 297.229 140.603 296.867 140.325 296.498L123.291 297.175C123.928 298.018 124.635 298.806 125.403 299.532Z" fill="#CFBEB8"/>
<path id="Vector_32" d="M138.34 293.215C138.153 292.822 137.99 292.417 137.827 292.006C136.862 289.394 136.409 286.619 136.494 283.834C136.508 282.657 136.284 281.489 135.836 280.401C133.398 274.259 130.985 268.106 128.595 261.94C128.185 260.877 127.956 260.701 127.316 261.65C123.732 267.118 119.114 271.829 113.721 275.517C112.9 276.073 112.84 276.587 113.196 277.687C114.367 281.16 115.883 284.508 117.722 287.679C118.554 289.178 119.363 290.701 120.196 292.23C120.419 292.635 120.642 293.034 120.871 293.439C121.318 294.213 121.781 294.962 122.259 295.688L139.336 295.017C138.968 294.437 138.636 293.835 138.34 293.215Z" fill="#EAB589"/>
<path id="Vector_33" d="M54.4836 298.48C54.6526 297.362 54.8215 296.256 55.0025 295.144L53.4095 295.222C53.2587 296.328 53.1319 297.441 52.9932 298.541L54.4836 298.48Z" fill="black"/>
<path id="Vector_34" d="M52.7037 300.578C51.6779 306.955 50.9478 313.441 50.1814 319.921C49.8013 323.13 50.1452 326.37 50.4288 329.592C50.7547 333.273 50.7426 336.683 49.1496 339.941C47.9066 342.473 47.9428 345.828 47.4359 348.826C46.1386 356.805 46.4946 364.851 47.2609 372.884C47.4804 374.361 47.8174 375.818 48.2686 377.242L47.7618 377.206H47.4359H47.2609H46.8446H46.7722L46.3015 377.242C44.5173 377.428 42.8676 378.277 41.6793 379.624C41.4802 379.835 41.2871 380.065 41.0759 380.313C41.0759 378.705 41.8121 377.774 42.5664 376.861C43.037 376.293 43.7249 375.785 43.3206 374.667C42.9767 373.718 42.2827 374.008 41.7457 374.238C39.5312 375.193 37.2442 375.858 35.2771 378.088C35.2189 377.477 35.3048 376.86 35.5281 376.288C35.7513 375.716 36.1056 375.204 36.5624 374.794C37.1658 374.189 38.1373 373.706 37.9442 372.322C37.727 370.714 36.6408 370.998 35.8322 370.798C35.3016 370.696 34.7658 370.624 34.2272 370.581C35.1745 370.067 35.8383 369.68 36.5201 369.372C38.8131 368.242 40.2915 365.848 41.1483 362.578C42.6438 357.08 43.3268 351.392 43.1758 345.695C43.1695 344.847 43.0394 344.003 42.7896 343.193C40.8626 337.369 40.831 331.083 42.6991 325.24C43.5829 322.305 43.8822 319.224 43.5801 316.173C43.1778 310.971 42.7957 305.762 42.4336 300.548L40.9371 300.614C41.3716 306.792 41.8061 312.975 42.3008 319.141C42.4202 320.246 42.2882 321.364 41.9147 322.411C40.7947 325.222 40.1817 328.21 40.1044 331.236C40.1044 335.667 39.6338 340.267 41.5466 344.262C41.7595 344.911 41.8376 345.596 41.7759 346.275C41.811 351.006 41.2803 355.725 40.1949 360.329C39.3381 364.276 37.7149 366.863 34.9995 367.873C32.8333 368.683 30.667 369.475 28.5189 370.369C27.9698 370.593 27.1853 370.762 27.2276 372.001C27.2698 373.24 28.0301 372.95 28.6637 373.21C27.548 374.287 26.6667 375.584 26.075 377.018C24.5517 380.986 23.9332 385.244 24.2648 389.482C24.7958 396.131 26.25 397.256 29.6955 397.945C33.5694 398.7 37.4735 398.797 41.3716 398.979C44.0696 399.201 46.7835 399.142 49.4694 398.803C49.9529 398.717 50.4047 398.503 50.779 398.185C51.1532 397.866 51.4363 397.454 51.5995 396.99C52.4684 395.297 52.9946 393.449 53.1479 391.551C53.3011 389.654 53.0784 387.745 52.4925 385.934C51.3219 382.362 50.7305 378.427 49.2763 375.054C48.9712 374.212 48.7883 373.33 48.7332 372.437C47.9126 364.167 47.635 355.91 49.1315 347.732C49.6082 345.151 49.6263 342.346 50.7909 340.092C51.9555 337.837 52.3115 335.141 52.0882 332.234C51.6598 326.685 51.3159 321.19 52.1787 315.581C52.9752 310.443 53.5666 305.226 54.2967 300.058L52.8123 300.125C52.7761 300.233 52.7339 300.409 52.7037 300.578ZM41.0457 380.313L40.9371 380.494V380.276L41.0457 380.313ZM29.5205 395.672C26.4371 394.699 25.1216 391.749 25.5863 386.381C25.6949 385.13 25.8518 383.885 26.0207 382.646C26.9379 375.997 31.0894 371.766 35.5185 373.15C33.9013 374.794 33.7082 377.188 33.4367 379.497C33.3582 380.143 33.4367 380.833 32.7488 380.5C32.0609 380.168 32.1454 381.105 32.0247 381.643C31.1142 385.771 30.6549 389.987 30.655 394.215C30.6731 395.479 30.5825 396.029 29.5205 395.684V395.672ZM49.1134 380.313C49.9949 382.599 50.7523 384.932 51.3822 387.3C51.9207 389.463 51.8518 391.733 51.1831 393.859C50.7245 395.382 50.109 396.561 48.7151 396.7C44.0749 397.171 39.4648 396.615 34.8366 396.349C33.841 396.295 32.8393 396.349 31.898 396.349C32.0187 394.27 32.1514 392.42 32.2238 390.564C32.3774 387.898 32.7426 385.248 33.316 382.64C33.4246 382.035 33.4729 381.54 34.0642 381.896C34.6556 382.253 35.1383 381.461 35.5185 380.839C36.573 379.082 38.249 377.787 40.213 377.212C39.6458 378.928 39.1571 380.391 38.6864 381.86C38.5263 382.333 38.4032 382.818 38.3183 383.311C38.2456 383.604 38.2427 383.911 38.3097 384.206C38.3768 384.501 38.512 384.776 38.7045 385.009C39.0605 385.354 39.4588 385.197 39.7846 384.816C40.8406 383.571 41.8845 382.295 42.9525 381.056C44.5697 379.176 46.4946 379.406 48.3833 379.346C48.7936 379.315 48.9444 379.871 49.1134 380.313Z" fill="#4E5B70"/>
<path id="Vector_35" d="M42.337 298.994C42.2585 297.864 42.174 296.734 42.0956 295.603H41.2749H40.5991C40.5991 295.633 40.5991 295.658 40.5991 295.682C40.6896 297.024 40.7862 298.36 40.8827 299.702L40.8526 299.018L42.337 298.994Z" fill="black"/>
<path id="Vector_36" d="M61.266 294.727H61.2238L59.854 294.841C60.0833 295.966 60.3086 297.092 60.5298 298.22L61.978 298.16C61.7246 297.018 61.4893 295.875 61.266 294.727Z" fill="black"/>
<path id="Vector_37" d="M73.8955 297.665L75.3015 297.604C75.3015 296.842 75.3558 296.087 75.398 295.325C75.398 294.944 75.4402 294.57 75.4764 294.201L74.0584 294.237C74.0584 294.304 74.0584 294.37 74.0584 294.443C73.9679 295.519 73.9257 296.589 73.8955 297.665Z" fill="black"/>
<path id="Vector_38" d="M73.7691 324.883C73.8475 328.51 74.9095 331.901 75.5793 335.365C76.136 337.689 76.0505 340.121 75.3319 342.401C74.2035 345.749 74.6802 349.425 74.5535 352.955C74.2639 360.903 75.6276 368.477 77.2689 375.924C77.5955 377.419 78.1686 378.849 78.9645 380.155C76.3698 381.038 73.8234 381.806 72.2485 385.523C72.0763 384.118 72.3985 382.696 73.1596 381.503C73.5337 380.845 74.2518 380.204 73.7087 379.182C73.2139 378.263 72.5502 378.85 72.0131 379.255C69.9314 380.826 67.6927 382.047 66.148 385.058C66.0263 384.371 66.0448 383.666 66.2024 382.987C66.3601 382.308 66.6536 381.667 67.0651 381.104C67.3678 380.715 67.6363 380.301 67.8677 379.865C68.4711 378.602 68.1453 377.447 67.0833 377.369C66.1327 377.388 65.1847 377.476 64.2472 377.635C65.2006 376.783 65.8945 376.148 66.6005 375.525C68.4832 373.863 69.5391 371.294 69.9796 368.205C70.8003 362.456 70.8003 356.619 69.9796 350.869C69.9152 349.887 69.6105 348.937 69.0926 348.101C68.0427 346.783 67.753 344.97 67.3668 343.15C66.3169 338.175 66.0574 333.201 67.3065 328.238C67.7229 326.558 67.3427 325.167 67.0289 323.632C65.4198 315.645 63.8107 307.654 62.2016 299.659L60.7534 299.719C62.3625 307.807 63.9877 315.889 65.629 323.965C66.0153 325.723 66.0153 327.544 65.629 329.302C64.9028 332.611 64.8025 336.027 65.3333 339.372C65.9368 342.999 66.0756 346.94 68.1392 349.733C68.4021 350.276 68.5558 350.865 68.5918 351.468C69.3786 356.879 69.3786 362.377 68.5918 367.788C68.2539 370.309 67.385 372.352 65.8764 373.754C64.2819 375.138 62.5944 376.41 60.8258 377.562C59.3897 378.572 58.0139 379.297 57.1209 381.866C55.6727 386.055 54.7495 390.329 55.0089 394.916C55.2986 400.193 56.5476 402.684 60.0595 403.379C64.1688 404.159 68.2961 404.274 72.4235 404.491C75.0376 404.709 77.6676 404.644 80.2678 404.298C80.7246 404.209 81.1515 404.006 81.5082 403.706C81.865 403.407 82.14 403.022 82.3074 402.587C84.0293 399.158 84.3643 395.196 83.2427 391.525C82.5186 388.92 81.5833 386.478 80.7204 383.976C80.6178 383.692 80.2437 383.226 80.6238 382.972C82.2591 381.884 81.1488 380.784 80.6238 379.877C79.7051 378.48 79.0127 376.946 78.5722 375.332C76.2563 365.596 75.4202 355.566 76.0922 345.58C76.1061 345.074 76.1956 344.573 76.3577 344.093C77.7697 340.466 77.4077 336.84 76.5749 333.092C75.9715 330.263 75.1328 327.422 75.0966 324.43C74.994 316.01 74.8975 307.584 75.1811 299.169L73.7811 299.224C73.5156 307.741 73.5941 316.318 73.7691 324.883ZM82.2169 392.994C82.7337 395.044 82.6858 397.196 82.0781 399.22C81.6074 400.895 80.9799 402.176 79.4774 402.243C76.7828 402.412 74.0802 402.412 71.3856 402.243C68.5013 402.055 65.6049 402.019 62.6783 401.638C63.1249 400.157 62.8775 398.561 62.98 397.014C63.1745 394.005 63.5777 391.014 64.1869 388.062C64.2291 387.844 64.2412 387.615 64.2774 387.391C64.4162 386.593 64.1567 386.291 63.674 386.049C63.0705 385.747 63.0162 386.393 62.9137 386.907C61.9771 391.141 61.5017 395.464 61.4956 399.8C61.5258 401.009 61.4172 401.396 60.4216 401.263C57.3079 400.852 56.6563 398.422 56.433 394.27C56.2806 390.927 56.7702 387.587 57.8752 384.429C58.5329 382.507 59.4621 381.135 61.0431 380.857C62.624 380.579 64.1326 379.986 65.8282 379.648C64.7601 381.552 64.6213 383.728 64.6937 385.964C64.7239 387.077 64.6515 388.382 65.5325 388.709C66.2988 389.011 66.6669 387.917 66.9927 387.089C67.8979 384.792 69.334 383.577 71.0537 382.41C70.7942 383.746 70.577 384.828 70.3779 385.916C70.2339 386.512 70.133 387.118 70.0762 387.729C70.04 388.666 69.7202 389.869 70.4382 390.413C71.2649 391.018 71.6451 389.809 72.1157 389.071C73.2924 387.203 74.0466 384.713 75.7845 383.692C75.9293 383.607 76.062 383.492 76.2069 383.407C78.3671 382.066 78.6809 382.199 79.7368 385.336C80.5756 387.905 81.5169 390.353 82.2048 393.006L82.2169 392.994Z" fill="#4E5B70"/>
<path id="Vector_39" d="M120.86 293.427H118.983C119.46 294.213 119.948 294.975 120.449 295.724L122.259 295.652C121.773 294.942 121.306 294.201 120.86 293.427Z" fill="black"/>
<path id="Vector_40" d="M141.429 294.92L141.393 294.841C140.93 294.325 140.509 293.773 140.132 293.191H138.322C138.613 293.815 138.941 294.421 139.305 295.005L141.429 294.92Z" fill="black"/>
<path id="Vector_41" d="M154.011 379.345C153.583 379.376 153.625 380.119 153.523 380.554C153.161 382.193 152.919 383.885 152.485 385.493C152.249 386.406 151.688 387.512 151.03 386.406C150.27 385.13 149.069 384.242 148.84 382.174C148.647 382.658 148.46 383.166 148.237 383.625C147.875 384.387 147.44 384.774 146.752 384.477C146.064 384.181 146.034 383.42 146.046 382.591C146.058 381.763 146.107 380.863 146.095 379.998C146.095 379.521 146.276 378.898 145.865 378.608C145.545 378.39 145.262 378.735 145.014 378.989C142.951 381.092 140.688 381.902 138.22 381.316C137.345 381.104 136.868 381.648 136.524 382.779C135.708 385.307 135.271 387.943 135.227 390.601C135.227 396.216 135.788 398.978 139.342 399.535C140.32 399.686 140.549 399.389 140.519 397.999C140.416 393.629 141.122 389.44 141.883 385.269C142.112 384 142.589 384.06 143.126 384.574C143.554 385.009 143.307 385.783 143.186 386.333C142.332 390.353 141.906 394.452 141.913 398.561C141.94 398.814 141.905 399.07 141.809 399.305C141.713 399.54 141.56 399.748 141.364 399.909C142.492 399.988 143.494 400.042 144.489 400.121C148.882 400.484 153.275 400.852 157.674 400.592C160.124 400.453 160.631 400.06 161.439 395.624C162.007 392.487 160.908 389.918 160.082 387.276C159.828 386.46 159.726 385.13 158.694 386.067C158.465 386.267 158.139 385.825 157.879 385.559C156.522 384.169 155.58 382.223 154.627 380.282C154.452 379.932 154.313 379.333 154.011 379.345Z" fill="#4E5B70"/>
<path id="Vector_42" d="M132.119 373.748C131.377 371.034 130.055 369.608 128.335 368.635C127.563 368.199 126.863 368.109 126.145 368.816C125.24 369.698 124.335 370.563 123.393 371.373C122.935 371.772 122.398 372.146 121.879 371.584C121.636 371.255 121.467 370.878 121.382 370.477C121.298 370.077 121.301 369.663 121.39 369.263C121.511 368.822 121.511 368.356 121.39 367.915C121.088 367.812 120.877 368.109 120.66 368.314C119.79 369.257 119.088 370.343 118.584 371.524C118.264 372.183 117.842 372.848 117.239 372.533C116.635 372.219 116.382 371.324 116.388 370.303C116.424 369.518 116.566 368.741 116.81 367.994C117.009 367.281 117.414 366.652 117.323 365.787C117.009 365.878 116.72 365.945 116.376 366.041H116.315C116.201 366.078 116.092 366.114 115.977 366.162C112.628 367.522 109.762 369.735 108.917 375.368C108.61 376.932 108.418 378.516 108.344 380.107C108.344 385.058 108.736 388.727 112.363 389.174C113.25 389.277 113.425 389.029 113.407 387.832C113.392 383.506 113.927 379.196 115 375.006C115.145 374.401 115.133 373.597 115.887 373.972C116.641 374.347 116.49 375 116.315 375.737C115.587 378.884 115.109 382.083 114.885 385.306C114.807 386.732 115.012 388.195 114.541 389.773C115.621 389.773 116.587 389.724 117.558 389.773C122.386 390.057 127.249 390.716 132.107 390.051C132.391 390.03 132.663 389.928 132.891 389.756C133.119 389.585 133.293 389.351 133.392 389.084C134.434 386.854 134.836 384.378 134.551 381.933C134.146 378.959 132.873 376.505 132.119 373.748Z" fill="#4E5B70"/>
<path id="Vector_43" d="M142.721 293.161H140.989C141.2 293.627 141.406 294.098 141.593 294.563C141.682 294.659 141.757 294.767 141.816 294.884L143.626 294.811C143.331 294.297 143.017 293.741 142.721 293.161Z" fill="black"/>
<path id="Vector_44" d="M169.802 305.716C168.724 304.516 167.866 303.135 167.268 301.636C166.966 300.971 166.664 300.294 166.357 299.635C165.618 298.088 165.012 296.48 164.546 294.829V295.591L163.243 295.633C163.412 296.238 163.599 296.794 163.798 297.368C164.402 299.103 165.12 300.753 165.838 302.397C166.276 303.401 166.721 304.408 167.171 305.42C167.358 305.849 167.563 306.393 167.847 306.562C168.855 307.167 168.589 307.916 168.179 308.98C165.934 314.922 164.558 321.432 162.887 327.718C160.238 337.668 157.782 347.726 155.646 357.941C154.439 363.787 153.836 369.602 155.441 375.519C155.748 376.516 155.869 377.561 155.797 378.602C155.29 378.487 155.194 377.756 154.946 377.327C153.999 375.773 153.106 375.815 152.291 377.556C151.965 378.264 151.688 379.037 151.422 379.793C151.157 380.548 150.933 381.213 150.644 382.066C150.386 381.44 150.229 380.776 150.179 380.101C149.733 377.605 149.123 377.308 147.802 378.959C147.482 378.795 147.53 378.354 147.482 377.979C147.259 376.45 146.583 376.081 145.672 376.353C144.649 376.741 143.712 377.327 142.914 378.076C142.197 378.695 141.331 379.115 140.401 379.296C139.472 379.476 138.512 379.41 137.616 379.104C137.99 378.384 138.551 378.457 138.992 378.318C142.534 377.212 144.869 373.99 146.317 369.172C148.272 362.68 149.467 355.826 150.692 348.983C152.297 339.977 153.872 330.946 154.97 321.782C155.371 318.118 155.5 314.429 155.356 310.745C155.255 310.152 155.351 309.543 155.628 309.01C155.852 308.649 155.956 308.225 155.924 307.801C155.902 307.509 155.812 307.226 155.663 306.974C155.513 306.722 155.307 306.509 155.061 306.351C153.769 305.574 152.53 304.713 151.35 303.776C148.705 301.659 146.415 299.133 144.567 296.292L140.343 296.449C140.627 296.818 140.947 297.181 141.224 297.531C142.244 298.759 142.85 300.278 142.956 301.871C143.21 304.289 142.956 306.471 141.629 308.128C140.196 309.959 139.15 312.063 138.551 314.311C135.969 323.566 132.849 332.445 129.898 341.434C128.4 346.198 127.55 351.142 127.37 356.134C127.22 359.149 127.832 362.154 129.15 364.869C129.596 365.784 129.983 366.727 130.309 367.691C127.467 364.572 125.222 366.863 123.038 369.33C122.873 368.792 122.873 368.217 123.038 367.679C123.146 366.809 123.249 365.896 122.682 365.31C122.114 364.724 121.553 365.08 121.046 365.503C120.539 365.926 119.942 366.561 119.399 367.099C119.176 367.323 118.971 367.619 118.59 367.45C118.783 366.767 118.995 366.09 119.164 365.394C119.562 363.799 119.194 363.061 118.047 363.315C117.056 363.584 116.079 363.905 115.121 364.276H115.036C114.982 364.281 114.928 364.281 114.873 364.276C114.873 364.276 114.837 364.276 114.831 364.276C114.802 364.245 114.786 364.204 114.786 364.161C114.786 364.119 114.802 364.078 114.831 364.047C114.862 364.015 114.897 363.986 114.934 363.962C115.712 362.487 116.515 361.06 117.311 359.616C118.108 358.171 118.898 356.714 119.634 355.197C122.609 349.05 124.383 342.044 126.091 335.002C127.497 329.649 128.471 324.191 129.005 318.682C129.435 312.969 128.673 307.23 126.767 301.829C126.496 300.964 126.022 300.176 125.385 299.532C124.616 298.799 123.91 298.002 123.273 297.151L121.432 297.223C122.307 298.432 123.243 299.641 124.184 300.759C124.901 301.528 125.446 302.441 125.783 303.437C127.071 307.418 127.725 311.577 127.72 315.762C127.648 321.613 126.326 327.041 125.192 332.542C122.307 346.578 117.347 358.612 109.925 368.302C109.283 369.176 108.793 370.153 108.477 371.191C107.249 374.856 106.725 378.72 106.932 382.579C107.252 387.645 108.369 390.576 112.116 391.217C115.826 391.796 119.568 392.141 123.321 392.251C126.785 392.414 130.254 392.777 133.742 391.779C133.742 392.112 133.742 392.45 133.784 392.789C134.201 398.084 135.269 400.985 139.113 401.632C143.495 402.265 147.912 402.632 152.339 402.732C154.655 402.906 156.982 402.842 159.285 402.539C160.286 402.376 160.998 401.735 161.572 400.514C163.232 396.985 163.484 392.955 162.278 389.247C160.431 383.087 158.054 377.345 156.817 370.69C156.18 367.414 156.18 364.046 156.817 360.77C159.345 347.617 162.543 334.815 165.91 322.085C167.117 317.6 168.179 313.018 169.844 308.853C170.212 307.904 170.593 306.502 169.802 305.716ZM133.38 389.077C133.281 389.345 133.107 389.579 132.879 389.75C132.652 389.922 132.379 390.024 132.095 390.044C127.237 390.709 122.392 390.044 117.546 389.766C116.581 389.706 115.616 389.766 114.529 389.766C115 388.189 114.795 386.744 114.873 385.299C115.097 382.077 115.575 378.877 116.303 375.731C116.46 374.993 116.605 374.334 115.875 373.966C115.145 373.597 115.133 374.407 114.988 374.999C113.916 379.19 113.38 383.5 113.395 387.826C113.395 389.035 113.238 389.271 112.351 389.168C108.731 388.733 108.308 385.064 108.332 380.101C108.406 378.509 108.598 376.925 108.906 375.362C109.75 369.728 112.617 367.504 115.966 366.156C116.08 366.108 116.189 366.071 116.303 366.035H116.364C116.678 365.938 116.997 365.872 117.311 365.781C117.402 366.646 116.997 367.274 116.798 367.988C116.554 368.735 116.412 369.511 116.376 370.297C116.376 371.312 116.563 372.183 117.227 372.527C117.89 372.872 118.252 372.177 118.572 371.518C119.076 370.337 119.778 369.251 120.648 368.308C120.865 368.102 121.076 367.806 121.378 367.909C121.499 368.35 121.499 368.816 121.378 369.257C121.289 369.656 121.286 370.07 121.37 370.471C121.455 370.871 121.624 371.249 121.867 371.578C122.386 372.14 122.923 371.766 123.382 371.367C124.317 370.557 125.228 369.692 126.133 368.81C126.851 368.102 127.551 368.205 128.323 368.628C130.043 369.602 131.341 371.046 132.107 373.742C132.873 376.438 134.134 378.953 134.521 381.92C134.812 384.366 134.417 386.844 133.38 389.077ZM133.543 373.361C133.03 371.862 132.336 370.484 132.39 368.628C132.347 367.768 132.041 366.941 131.516 366.259C128.148 360.958 128.444 354.847 129.657 348.47C130.566 343.95 131.86 339.518 133.525 335.22C135.733 329.266 137.501 323.01 139.306 316.778C140.01 314.057 141.215 311.492 142.86 309.216C144.579 306.979 144.881 303.123 143.831 299.018C144.181 298.758 144.435 299.091 144.64 299.393C146.55 301.833 148.742 304.039 151.169 305.964C151.664 306.375 152.164 306.774 152.665 307.173C153.233 307.606 153.628 308.227 153.782 308.926C153.883 309.36 153.942 309.803 153.956 310.249C154.3 317.672 153.257 324.805 152.116 331.931C150.402 342.57 148.701 353.202 146.305 363.557C145.979 364.965 145.581 366.343 145.219 367.734C143.97 372.503 141.671 375.398 138.31 376.456C137.23 376.795 135.951 378.076 135.16 377.562C134.37 377.049 134.05 374.872 133.543 373.373V373.361ZM157.885 385.565C158.144 385.831 158.488 386.273 158.699 386.073C159.731 385.16 159.834 386.49 160.087 387.282C160.914 389.924 162.012 392.493 161.445 395.63C160.636 400.066 160.129 400.465 157.68 400.598C153.281 400.858 148.888 400.49 144.495 400.127C143.499 400.048 142.498 399.994 141.369 399.915C141.565 399.754 141.718 399.546 141.814 399.311C141.91 399.076 141.946 398.82 141.918 398.567C141.912 394.464 142.339 390.371 143.192 386.357C143.312 385.789 143.56 385.034 143.131 384.598C142.594 384.054 142.118 383.994 141.888 385.293C141.122 389.464 140.422 393.653 140.525 398.023C140.555 399.414 140.325 399.71 139.348 399.559C135.794 399.003 135.214 396.24 135.233 390.625C135.277 387.968 135.714 385.332 136.53 382.803C136.874 381.673 137.351 381.129 138.225 381.34C140.693 381.945 142.956 381.117 145.02 379.013C145.261 378.759 145.551 378.409 145.871 378.632C146.281 378.922 146.1 379.545 146.1 380.022C146.1 380.887 146.064 381.751 146.052 382.616C146.04 383.48 146.052 384.199 146.758 384.502C147.464 384.804 147.88 384.411 148.242 383.649C148.459 383.19 148.646 382.682 148.846 382.199C149.075 384.236 150.276 385.124 151.036 386.43C151.694 387.536 152.243 386.43 152.49 385.517C152.907 383.909 153.166 382.217 153.528 380.579C153.631 380.131 153.588 379.37 154.017 379.37C154.319 379.37 154.457 379.974 154.62 380.325C155.586 382.241 156.527 384.187 157.885 385.578V385.565Z" fill="#4E5B70"/>
<path id="Vector_45" d="M180.368 241.129C180.463 241.832 180.481 242.543 180.422 243.251C182.329 244.925 183.602 247.887 183.602 247.887C185.159 251.115 185.086 256.954 185.086 256.954C184.984 257.909 184.133 257.165 184.133 257.165C183.53 256.694 183.174 257.486 183.174 257.486C183.174 257.486 183.463 261.505 183.457 261.82C183.53 264.147 182.679 262.188 182.679 262.188C182.078 259.838 181.306 257.535 180.368 255.298C179.36 255.237 179.016 256.132 178.968 257.462C178.914 259.015 178.859 260.568 178.775 262.116C178.775 262.454 178.992 263.21 178.395 262.992C177.224 262.575 177.001 263.694 176.886 265.011C176.908 265.402 176.829 265.791 176.657 266.142C175.16 260.236 174.732 252.281 176.289 246.43C176.934 247.391 177.14 248.745 177.803 249.616C178.708 250.794 179.408 250.528 179.764 248.787C180.042 247.433 179.861 246.037 179.897 244.659C179.897 244.054 179.722 243.323 180.368 243.178V241.105C179.716 241.274 179.722 240.627 179.704 239.956C179.555 234.19 179.233 228.447 178.739 222.729C178.238 216.793 177.652 210.869 176.21 205.23C174.159 197.227 170.9 190.348 167.225 183.862C164.655 179.323 162.024 174.88 158.717 171.465C152.206 164.755 145.044 160.766 137.151 159.798C134.231 159.442 131.31 159.007 128.384 158.837C126.7 158.741 125.819 158.142 125.186 155.767C124.944 154.86 124.721 153.953 124.54 152.992C123.496 147.455 122.325 142.009 120.449 136.925C118.325 131.147 115.845 125.894 111.935 122.461C108.519 119.438 104.899 117.051 101.369 114.367C100.703 113.832 99.8684 113.553 99.0155 113.581C94.7916 113.817 90.7668 115.153 87.2791 119.021C84.437 122.171 82.4517 126.456 80.5148 130.754C76.8943 138.866 73.1712 146.863 68.1931 153.337C67.672 154.025 67.2645 154.792 66.9862 155.609C66.7147 156.407 66.7449 157.302 67.2638 157.544C68.3137 158.033 67.6922 158.547 67.3784 159.115C64.2304 164.652 60.3315 169.726 55.7929 174.191C55.1423 174.888 54.382 175.474 53.5422 175.925C52.1362 176.627 51.3638 176.113 50.7846 174.076C50.5912 173.436 50.442 172.784 50.338 172.123C49.5717 166.719 48.7873 161.328 48.0752 155.906C46.8684 146.464 47.7313 137.572 51.2733 129.394C52.3353 126.928 53.3551 124.413 54.4352 121.965C57.6635 114.657 61.3443 107.796 64.1743 100.102C65.5139 96.4748 67.0707 93.2228 69.5025 91.0346C70.3215 90.1776 71.0627 89.2491 71.717 88.2601C74.8434 84.1077 76.6986 79.1351 77.0572 73.9464C77.4132 69.818 77.5701 65.6834 77.6606 61.5308C77.73 58.5362 77.6433 55.54 77.4012 52.5545C79.3924 54.2107 81.1725 55.6735 82.9405 57.1665C84.0629 58.1035 85.2395 59.1613 86.5248 58.8349C89.9461 57.9584 93.5727 57.6259 95.7208 52.5182C95.7652 52.3818 95.8492 52.2619 95.9622 52.1737C96.8673 51.7082 96.6803 50.8016 96.451 49.7921C94.9686 43.2135 91.7415 37.1574 87.1101 32.2627C85.7584 30.7878 84.2982 30.8361 82.8862 32.2627C80.5932 34.6442 77.896 35.5026 75.3134 36.778C74.3298 37.2616 73.7867 36.506 73.841 34.9283C73.8772 33.659 74.01 32.4017 74.0703 31.1384C74.366 25.0151 74.3358 18.9947 71.3912 13.9958C71.3912 13.9958 69.2671 9.54089 65.2303 9.54089C61.1935 9.54089 58.9125 14.0079 58.9125 14.0079C58.6772 15.0778 58.2247 16.0328 58.1643 17.5077C57.6514 16.1598 57.2411 15.0899 56.8247 14.0079C56.8247 14.0079 55.274 9.63761 51.8647 10.1695C51.8647 10.1695 49.2217 9.79477 46.79 13.9353L46.5969 14.2678C46.4822 14.4733 46.3736 14.6849 46.2589 14.9146C46.2173 14.9686 46.179 15.0251 46.1443 15.0838C43.6324 19.5273 42.0322 24.4287 41.4377 29.5003C41.1842 31.8698 41.0877 34.2695 41.0455 36.9352C39.5188 35.2971 38.5715 33.1754 37.425 31.3862C36.0914 29.3371 34.6372 27.7292 32.6339 27.6869C30.0621 27.6162 27.5386 28.3958 25.4532 29.9053C24.4297 30.697 23.7095 31.8176 23.4137 33.0787C22.0138 37.9144 24.3731 44.3398 27.8729 45.168C28.7754 45.4021 29.7043 45.5179 30.6366 45.5125C33.9493 45.3976 37.1534 46.4071 40.3757 47.3259C40.9791 47.5012 41.1661 47.9304 41.1963 48.825C41.2687 50.8378 41.317 52.8688 41.5644 54.8696C41.7997 56.683 41.2989 56.7797 40.3274 56.6165C37.3103 56.1148 34.42 54.9059 31.427 54.3981C26.3342 53.5337 21.6517 54.8212 18.0011 60.7631C17.5847 61.4401 17.3192 61.017 16.921 60.9263C13.4936 60.1526 11.2851 61.0895 11.3333 66.6506C11.3603 69.7503 11.5618 72.846 11.9368 75.923C12.148 77.682 11.9367 78.8486 10.9773 79.8823C10.4194 80.658 10.0458 81.5511 9.88514 82.4936C8.9047 86.2457 8.1451 90.0523 7.61027 93.8937C7.07323 97.8711 8.21369 100.984 9.76446 103.849C10.1374 104.483 10.2862 105.224 10.1868 105.953C9.98169 108.238 9.75842 110.523 9.61964 112.813C9.38431 116.646 9.48085 120.393 10.8265 123.857C11.9307 126.65 13.1255 129.297 15.509 129.69C18.3084 130.209 21.201 129.744 23.6973 128.372C24.6057 127.828 25.6579 127.573 26.7144 127.641C28.9289 127.865 30.7995 126.734 32.3744 124.437C32.7606 123.875 33.1226 123.138 33.5812 122.884C34.7458 122.279 35.2165 120.962 35.5665 119.348C36.5681 114.766 37.6362 110.208 38.6439 105.626C38.7706 105.07 38.8611 104.677 39.3257 104.774C41.3506 105.271 43.4327 105.495 45.5168 105.439C44.6599 107.053 43.972 108.431 43.2298 109.743C34.0198 125.879 25.9544 142.643 19.0932 159.913C16.2512 167.088 13.9642 174.626 13.0108 182.883C11.5402 195.461 11.2272 208.147 12.0755 220.783C12.7936 231.24 14.7969 241.044 18.7131 249.869C23.9025 261.487 30.5098 270.796 38.7404 277.481C38.9604 277.639 39.1386 277.848 39.2596 278.09C39.3805 278.333 39.4405 278.601 39.4343 278.872C39.7521 284.066 40.0941 289.258 40.4601 294.449H41.1903H41.9566C41.6549 290.06 41.3512 285.67 41.0455 281.277C41.0032 280.673 40.9972 280.026 40.961 279.204C46.1564 282.619 51.563 284.076 57.2532 285.085C54.93 287.455 54.0551 290.671 53.5301 294.056L55.1593 293.977C55.2438 293.524 55.3162 293.07 55.4007 292.623C55.8291 290.284 56.4265 288.132 58.104 287.183C58.3725 287.716 58.5305 288.298 58.5686 288.894C58.8884 290.508 59.2143 292.115 59.5341 293.729L60.9702 293.614C60.8012 292.744 60.6262 291.88 60.4573 291.015C58.647 281.809 56.6859 272.646 55.28 263.264C54.6343 258.924 54.0732 254.554 54.7973 250.099C54.924 249.289 54.7973 248.963 54.2542 248.806C53.7111 248.648 53.5301 248.902 53.4094 249.676C52.7698 253.774 53.1077 257.83 53.6387 261.856C54.5076 268.408 55.7989 274.798 57.048 281.199C57.3316 282.643 57.1928 282.94 56.1972 282.795C47.2244 281.477 39.0844 277.07 32.0606 268.535C25.1275 260.241 19.9334 250.632 16.7882 240.283C14.5737 233.029 13.6806 225.346 13.2824 217.5C12.6478 205.597 13.0901 193.661 14.6038 181.837C15.6176 174.046 17.9287 167.034 20.5957 160.246C28.1807 140.933 37.3827 123.373 46.9348 106.207C47.2848 105.602 47.6528 105.209 48.2019 105.227C48.4695 105.186 48.7398 105.166 49.0105 105.167C53.1258 105.862 56.6075 103.299 60.0289 100.422C61.0737 99.5174 62.1632 98.6661 63.2933 97.8711C62.1797 101.164 60.8844 104.393 59.4134 107.543C56.0403 114.917 52.5043 122.116 49.4631 129.829C46.1745 138.183 45.5228 147.05 46.6753 156.365C47.2787 161.455 48.039 166.52 48.7571 171.585C48.9047 172.581 49.1061 173.568 49.3605 174.541C50.2536 178.071 51.8526 179.159 54.224 177.799C56.1187 176.717 57.6997 174.849 59.3168 173.072C63.6298 168.262 67.3122 162.92 70.2748 157.175C71.3489 155.132 73.0143 154.703 74.541 154.026C75.2228 153.724 74.8789 154.812 74.7944 155.18C74.191 157.9 73.4971 160.62 72.8575 163.31C72.6476 164.188 72.4845 165.075 72.3687 165.97C72.281 166.317 72.269 166.68 72.3335 167.032C72.3981 167.385 72.5377 167.719 72.7428 168.013C73.2316 168.545 73.7022 168.243 74.1488 167.868C75.5487 166.695 76.6107 164.912 77.7692 163.347C78.9278 161.781 79.9838 160.324 81.1182 158.819C81.5647 158.215 82.0897 157.767 82.7233 157.084C82.8983 160.361 82.3552 163.208 82.1923 166.097C82.0686 167.125 82.0686 168.164 82.1923 169.192C82.4638 170.685 83.1336 171.084 84.0025 170.322C84.8714 169.56 85.4688 168.291 86.1024 167.143C87.4058 164.785 88.5643 162.252 90.0729 160.161C91.1892 158.62 91.5211 158.686 92.1728 160.729C93.1141 163.697 93.6089 166.907 94.3088 170.002C94.5477 171.301 94.9094 172.574 95.3889 173.804C96.2036 175.617 97.2656 175.617 98.0259 173.755C98.6893 171.864 99.1584 169.909 99.4258 167.922C100.258 163.25 101.043 158.559 101.882 153.893C102.081 152.787 102.407 151.735 102.708 150.526C103.291 151.303 103.665 152.216 103.794 153.179C104.603 156.806 105.345 160.512 106.154 164.163C106.456 165.523 106.824 166.858 107.234 168.158C107.487 168.956 107.904 169.597 108.592 169.494C109.28 169.391 109.527 168.744 109.714 167.953C110.052 166.544 110.402 165.136 110.673 163.721C110.945 162.307 111.343 162.464 111.947 163.244C113.262 164.954 114.36 167.01 115.567 168.835C116.15 169.783 116.798 170.69 117.504 171.549C118.711 172.897 119.713 172.196 119.761 169.923C119.791 168.382 119.598 166.828 119.501 165.281C119.417 164.018 119.314 162.76 119.236 161.497C119.236 161.062 119.091 160.524 119.423 160.252C119.755 159.98 119.942 160.385 120.153 160.602C121.613 162.107 123.031 163.709 124.522 165.142C126.797 167.33 128.299 170.908 130.773 172.74C131.274 173.109 131.588 173.459 131.926 172.432C132.149 171.736 132.101 171.422 131.672 171.066C131.116 170.611 130.597 170.111 130.121 169.573C129.126 168.412 127.973 167.56 128.022 165.087C128.022 163.8 127.34 162.488 126.948 161.128C129.361 160.524 131.624 161.394 133.917 161.588C138.271 161.937 142.536 163.007 146.54 164.755C154.005 168.007 159.918 174.426 164.884 183.119C167.329 187.29 169.527 191.601 171.467 196.03C174.529 203.366 176.364 211.157 176.898 219.09C177.14 222.294 177.502 225.479 177.701 228.689C178.075 234.836 178.352 240.99 178.455 247.427C177.852 246.381 177.443 245.234 177.248 244.042C175.486 235.64 173.869 227.166 172.916 218.48C172.01 210.229 169.85 202.987 165.771 197.323C163.726 194.47 162.567 191.097 161.801 187.283C161.493 185.754 160.92 185.276 159.828 185.536C160.709 188.8 161.499 192.065 162.187 195.389C165.02 208.983 166.799 222.775 167.509 236.644C167.943 245.276 166.954 253.617 165.608 261.953C164.329 269.901 163.014 277.85 162.163 285.932C161.884 288.694 162.088 291.484 162.766 294.177L164.263 294.128C163.335 290.386 163.192 286.492 163.84 282.692C164.872 276.375 165.735 269.998 166.725 263.663C167.612 257.999 168.74 252.378 168.867 246.539C169.119 231.73 167.784 216.936 164.884 202.413C164.745 201.7 164.613 200.98 164.486 200.261C164.258 199.555 164.204 198.804 164.329 198.073C167.394 202.758 169.947 207.744 170.798 214.212C172.057 223.811 173.597 233.309 175.42 242.707C175.588 243.113 175.603 243.566 175.462 243.982C174.34 246.587 174.068 249.567 173.893 252.559C173.616 258.815 174.665 264.86 175.963 270.772C176.096 271.376 176.379 271.811 176.796 271.799C177.212 271.787 177.574 271.31 177.677 270.59C177.845 269.442 177.99 268.287 178.147 267.091C179.414 268.662 179.825 268.426 180.169 266.033C180.169 265.9 180.301 265.797 180.368 265.676V259.91C180.368 259.91 182.178 268.318 183.777 267.526C183.777 267.526 185.02 267.659 184.38 260.701C184.38 260.834 184.803 260.278 185.551 262.025C185.551 262.025 186.625 262.503 186.625 261.391C186.625 260.278 187.548 244.097 180.368 241.129ZM41.0756 45.3251L35.0415 43.7716C32.827 43.2035 30.5702 43.6628 28.3496 43.1672C25.8455 42.599 23.9869 38.8876 24.4154 35.158C24.5964 33.5925 25.1515 32.3715 26.1532 31.7126C28.0395 30.4242 30.2788 29.7547 32.5615 29.7965C34.2148 29.8327 35.3492 31.2532 36.4173 32.8913C37.8112 35.0251 38.8913 37.6424 40.7317 39.081C40.8624 39.21 40.9606 39.3682 41.0183 39.5427C41.076 39.7171 41.0915 39.9028 41.0636 40.0844C41.0696 41.8132 41.0756 43.5178 41.0756 45.3251ZM54.3025 102.193C53.4571 102.717 52.4782 102.983 51.4845 102.961C49.5536 102.991 47.6287 103.178 45.6978 103.287C43.5885 103.385 41.4771 103.15 39.4404 102.592C40.4722 97.7563 42.0833 93.8212 45.3599 91.893C45.7702 91.6512 46.3917 91.5121 45.9633 90.3576C45.7159 89.6625 45.5349 89.457 45.022 89.7955C42.4212 91.494 40.4239 94.0569 39.1628 97.9678C37.5034 103.124 36.5319 108.637 35.2889 114.004C34.42 117.764 33.0502 120.907 30.9986 123.44C29.8763 124.818 28.6574 125.634 27.0462 125.441C27.9428 123.675 28.7366 121.858 29.4237 120.001C29.659 119.33 29.8642 118.888 29.2366 118.374C28.6091 117.861 28.3375 118.175 28.1083 118.979C28.0949 119.032 28.0788 119.085 28.06 119.136C27.1368 121.554 26.3342 124.208 24.536 125.356C21.6397 127.206 18.6045 128.288 15.4124 127.484C14.9661 127.328 14.5559 127.083 14.2064 126.764C13.8569 126.445 13.5755 126.059 13.3789 125.628C11.6814 122.659 10.8279 119.281 10.9109 115.86C10.9834 112.511 11.2187 109.211 11.5988 105.892C11.804 104.079 12.685 105.372 13.216 105.288C13.9642 105.209 13.5298 106.116 13.4332 106.497C12.6614 109.624 13.0184 112.923 14.4409 115.812C15.5512 118.229 16.8003 118.598 18.3691 116.924C21.0785 114.028 22.6413 110.178 22.5025 104.931C23.9928 105.49 25.5644 105.8 27.1549 105.85C29.5202 105.953 31.4331 104.641 33.0381 102.145C33.6778 101.153 34.245 100.071 34.8846 99.0498C35.1984 98.5239 35.3854 98.125 34.8846 97.5326C34.3838 96.9402 34.1183 96.9765 33.7804 97.7321C33.545 98.2519 33.2312 98.6932 32.9718 99.2009C30.4917 104.158 27.1549 104.448 23.5042 103.106C22.6353 102.791 22.2974 101.842 21.9655 100.748C21.163 97.8892 21.1147 97.8227 19.5518 99.9746C18.8501 101.064 17.853 101.93 16.6774 102.472C15.5018 103.013 14.1965 103.208 12.9143 103.033C10.6575 102.84 8.53953 98.4695 8.91365 94.7944C9.37084 90.7691 10.1497 86.787 11.2428 82.8865C11.5097 81.9512 11.9725 81.0836 12.6005 80.3417C12.9705 79.8417 13.2337 79.2709 13.3739 78.6646C13.514 78.0583 13.5281 77.4296 13.4151 76.8176C13.041 73.1183 12.5824 69.4251 12.7574 65.6411C12.872 63.3079 15.1349 61.555 16.4805 62.7881C16.8485 63.1266 16.6313 63.4469 16.5348 63.7915L15.3279 68.0892C15.1228 68.8085 15.1107 69.4976 15.69 69.7938C16.2693 70.09 16.4443 69.4976 16.6434 68.8871C17.2468 66.9649 17.6571 64.8855 18.4536 63.1205C20.6078 58.4541 23.8542 56.8401 27.4023 56.2175C30.4917 55.6735 33.4364 56.9973 36.4535 57.7287C41.3411 58.9376 46.2288 59.8262 51.1647 58.2788C53.1741 57.6441 54.7068 56.0967 55.5515 53.2255C55.6843 52.7721 55.9317 52.2281 55.3826 51.9863C55.0688 51.8412 54.6464 51.0736 54.4292 51.944C53.4456 55.8307 51.1406 56.278 48.8778 56.7797C47.3887 57.0514 45.8676 57.1003 44.3642 56.9248C43.9358 56.8885 43.6462 56.7857 43.5798 56.006C42.8255 46.9753 41.7696 37.9204 42.9764 28.8051C43.0186 28.4545 43.0729 28.11 43.1272 27.7715C43.1272 27.6325 43.1695 27.4995 43.1936 27.3605C43.2177 27.2214 43.26 26.9615 43.3022 26.756C43.3445 26.5505 43.3686 26.4115 43.4048 26.2422C43.441 26.073 43.4651 25.9279 43.5014 25.7707C43.5376 25.6136 43.5919 25.3839 43.6341 25.1663C43.6763 24.9487 43.6944 24.9063 43.7306 24.7794C43.7668 24.6525 43.8393 24.3623 43.8936 24.1749L43.9841 23.8606C44.0444 23.635 44.1108 23.4113 44.1832 23.1897L44.2556 22.9418L44.491 22.2407L44.5634 22.0412C44.6478 21.7934 44.7384 21.5516 44.8289 21.3158C44.8453 21.2621 44.8655 21.2096 44.8892 21.1587C44.9857 20.9048 45.0823 20.663 45.1909 20.4152C45.1909 20.3729 45.2211 20.3366 45.2332 20.3003C45.3418 20.0404 45.4564 19.7926 45.5711 19.5387L45.6073 19.4601C45.7279 19.2002 45.8486 18.9463 45.9753 18.6925L46.0055 18.6381C46.1322 18.3781 46.265 18.1243 46.4038 17.8704V17.8402C46.5426 17.5803 46.6874 17.3264 46.8382 17.0725C46.9891 16.8126 47.1399 16.5587 47.2968 16.3109C47.6166 15.8031 47.9485 15.3135 48.2925 14.836L48.4916 14.5579C48.532 14.5096 48.5787 14.4669 48.6304 14.431C48.6724 14.3981 48.7073 14.357 48.733 14.3101C48.733 14.3101 48.8476 14.165 49.0407 13.9535L49.3122 13.6815C50.4044 12.6237 52.8543 10.8949 55.0688 13.8084L55.1895 13.9535C56.2696 16.873 57.5247 19.6717 57.8385 23.099C57.8867 23.6612 58.279 24.1024 58.7195 23.915C58.9403 23.7874 59.1167 23.5949 59.2246 23.3635C59.3326 23.1321 59.3669 22.8731 59.3229 22.6215C59.3229 22.2346 59.2806 21.8538 59.2686 21.473C59.2686 21.2796 59.2686 21.0922 59.2686 20.9048C59.2686 20.7174 59.2686 20.524 59.2686 20.3366V19.7321C59.2686 19.4017 59.2927 19.0753 59.341 18.7529C59.341 18.5051 59.3953 18.2573 59.4255 18.0155C59.6002 16.6443 60.0084 15.3133 60.6323 14.0804C60.6323 14.0804 64.8562 8.17481 69.4301 14.2013L69.7378 14.6063C69.8223 14.7151 69.9007 14.8299 69.9792 14.9448L70.0395 15.0294C70.1119 15.1322 70.1783 15.241 70.2447 15.3437L70.3231 15.4646C70.3835 15.5674 70.4438 15.6641 70.4981 15.7669C70.5524 15.8696 70.5584 15.8636 70.5826 15.9119L70.7455 16.2021C70.7822 16.2809 70.8266 16.3558 70.8783 16.4257L71.0231 16.7159C71.0231 16.7763 71.0774 16.8307 71.1015 16.8851C71.1256 16.9395 71.192 17.0785 71.2343 17.1753C71.2765 17.272 71.2886 17.2962 71.3127 17.3506L71.4334 17.6407L71.5058 17.8281L71.6144 18.1182C71.6144 18.1787 71.6567 18.2452 71.6808 18.3056C71.7049 18.3661 71.7472 18.499 71.7773 18.5957L71.8437 18.7952C71.8739 18.8919 71.9041 18.9887 71.9282 19.0854C71.9519 19.1528 71.972 19.2214 71.9885 19.2909C72.0187 19.3876 72.0428 19.4843 72.067 19.581L72.1213 19.7865L72.1937 20.0827C72.1937 20.1492 72.2239 20.2218 72.242 20.2943C72.2601 20.3668 72.2842 20.4877 72.3023 20.5905C72.3204 20.6932 72.3023 20.7295 72.3445 20.802L72.3989 21.0982L72.4351 21.3219C72.4351 21.4186 72.4713 21.5214 72.4833 21.6181L72.5195 21.8417C72.5195 21.9445 72.5195 22.0412 72.5618 22.144C72.604 22.2467 72.5618 22.2951 72.5618 22.3676L72.598 22.6698C72.598 22.7484 72.598 22.8209 72.598 22.8995C72.598 22.9781 72.598 23.099 72.6282 23.2018V23.4375C72.6282 23.5342 72.6282 23.637 72.6282 23.7337V23.9755V24.2777C72.6282 24.3563 72.6282 24.4409 72.6282 24.5195C72.6282 24.5981 72.6282 24.719 72.6282 24.8157C72.6282 24.9124 72.6282 24.9849 72.6282 25.0696C72.6282 25.1542 72.6282 25.263 72.6282 25.3657C72.6282 25.4685 72.6282 25.535 72.6282 25.6196C72.6282 25.7042 72.6282 25.813 72.6282 25.9158V27.3061C72.6282 27.4028 72.6282 27.4995 72.6282 27.5962C72.6282 27.6929 72.6282 27.7775 72.6282 27.8682C72.6282 27.9589 72.6282 28.0616 72.6282 28.1584C72.6282 28.2551 72.6282 28.3457 72.6282 28.4364C72.6282 28.5271 72.6282 28.6238 72.6282 28.7145C72.6282 28.8051 72.6282 28.9079 72.6282 29.0046C72.6282 29.1013 72.6282 29.1859 72.6282 29.2827C72.6282 29.3794 72.6282 29.4882 72.6282 29.597C72.6282 29.7058 72.6282 29.7602 72.6282 29.8388V30.2075C72.6282 30.274 72.6282 30.3405 72.6282 30.407C72.6282 30.5943 72.6282 30.7817 72.598 30.9691C72.1334 40.0361 70.9265 48.8733 69.8283 57.765C69.7378 58.4903 69.3878 59.3426 70.305 59.5784C70.8481 59.7174 71.0351 59.5784 71.1317 58.7382C71.7954 52.887 72.5256 47.0599 73.1833 41.2087C73.3281 39.9212 73.491 39.3953 74.5772 39.0991C77.8566 38.3323 80.8714 36.7002 83.3086 34.3722C84.4852 33.2419 85.493 33.0968 86.5731 34.3722C89.8617 38.2892 92.8244 42.599 94.4778 48.5469C94.9303 50.185 94.3692 52.6512 93.0718 53.6788C90.9478 55.3532 88.685 56.5016 86.2533 56.6588C85.3662 56.7192 84.612 56.1148 83.8396 55.5043C81.8785 53.9085 79.9536 52.222 77.9623 50.7169C76.4055 49.5382 75.1565 50.5114 74.8065 52.9595C74.6979 53.709 74.7582 54.1684 75.3797 54.2047C76.0012 54.2409 76.0797 54.7789 76.0918 55.4922C76.2305 62.649 76.1823 69.7877 75.078 76.8116C74.5164 80.2487 73.1128 83.4928 70.9929 86.2533C66.4586 92.5524 60.7998 97.9566 54.3025 102.193ZM21.1147 104.937C21.2173 109.06 20.0346 112.269 17.9528 114.814C16.8184 116.198 16.1425 115.981 15.346 114.125C14.1935 111.387 14.3383 108.594 15.1228 105.741C15.2857 105.137 15.6176 105.137 15.9615 105.004C17.3982 104.617 18.6799 103.793 19.6303 102.646C19.9018 102.296 20.2337 101.643 20.5837 101.933C20.7997 102.178 20.9596 102.467 21.0524 102.78C21.1452 103.094 21.1685 103.423 21.1207 103.746C21.1026 104.127 21.1268 104.538 21.1268 104.937H21.1147ZM126.036 163.945C124.878 163.141 124.033 161.799 123.019 160.826C122.247 160.076 121.511 159.206 120.696 158.565C118.916 157.157 117.739 158.263 117.836 161.316C117.908 163.552 118.168 165.77 118.343 168.001C118.385 168.503 118.421 169.01 118.488 169.784C117.773 169.068 117.164 168.254 116.677 167.366C115.398 165.45 114.173 163.437 112.846 161.594C111.422 159.617 110.161 160.101 109.455 162.803C109.117 164.06 108.851 165.353 108.471 166.998C107.632 164.199 107.192 161.648 106.661 159.139C106.178 156.891 105.701 154.642 105.188 152.412C105.016 151.668 104.782 150.94 104.488 150.236C104.108 149.329 103.801 148.199 102.877 148.308C101.954 148.416 101.61 149.42 101.278 150.508C100.505 153.443 99.9009 156.419 99.468 159.424C98.7439 163.48 98.2612 167.62 97.1992 171.543C97.0906 171.954 96.9458 172.341 96.7708 172.891C96.1887 171.477 95.7696 170 95.5217 168.491C94.9545 165.861 94.4597 163.201 93.7537 160.633C93.5419 159.859 93.2591 159.106 92.9089 158.384C92.1486 156.843 91.34 156.571 90.1936 157.501C88.8298 158.608 87.9488 160.451 86.9773 162.162C85.8912 164.084 84.9981 166.248 83.4534 168.291C83.6706 165.65 83.8094 163.455 84.0568 161.31C84.1933 159.992 84.2337 158.667 84.1775 157.344C84.093 155.301 83.1577 154.509 81.9388 155.422C80.7199 156.335 79.6941 157.84 78.6623 159.236C77.4555 160.892 76.2486 162.609 75.0056 164.283C74.7401 164.652 74.5108 165.16 73.9255 165.099C74.4022 163.214 74.8789 161.412 75.3134 159.593C75.6633 158.13 76.0374 156.661 76.2547 155.15C76.6348 152.478 75.7237 151.233 73.9798 152.019C72.954 152.484 71.9644 153.155 70.9627 153.73C70.6007 153.935 70.2386 154.122 69.8826 154.334C69.8102 154.455 69.7378 154.564 69.6473 154.376C69.6815 154.303 69.724 154.234 69.774 154.171C72.5075 150.006 75.2771 145.896 77.5279 141.084C77.6727 140.764 77.8235 140.443 77.9684 140.117C79.9114 135.747 81.969 131.497 84.0025 127.188C87.5325 119.602 92.4926 116.09 98.5689 115.757C99.3673 115.649 100.177 115.845 100.838 116.307C104.332 119.003 107.94 121.367 111.325 124.401C114.258 127.024 116.394 130.706 118.126 135.027C120.345 140.612 121.963 146.417 122.953 152.345C123.555 155.646 124.462 158.884 125.662 162.017C125.974 162.609 126.108 163.278 126.048 163.945H126.036Z" fill="black"/>
<path id="Vector_46" d="M164.528 294.086H164.359C164.42 294.334 164.486 294.575 164.552 294.823L164.528 294.086Z" fill="black"/>
<path id="Vector_47" d="M163.273 295.633L164.577 295.591V294.83C164.51 294.582 164.444 294.34 164.384 294.092L162.887 294.14C162.99 294.642 163.123 295.144 163.273 295.633Z" fill="black"/>
<path id="Vector_48" d="M141.81 295.337C141.856 295.275 141.881 295.2 141.881 295.123C141.881 295.045 141.856 294.97 141.81 294.908H141.405C141.526 295.174 141.659 295.512 141.81 295.337Z" fill="black"/>
<path id="Vector_49" d="M62.2495 299.665L73.823 299.176L73.8773 297.664L61.9478 298.166C62.0503 298.662 62.1469 299.164 62.2495 299.665Z" fill="black"/>
<path id="Vector_50" d="M167.877 306.568C167.594 306.399 167.388 305.855 167.201 305.426C166.037 302.778 164.824 300.179 163.828 297.38C163.629 296.806 163.442 296.226 163.267 295.646L151.971 296.044L144.561 296.329C146.413 299.152 148.703 301.662 151.344 303.763C152.524 304.701 153.763 305.561 155.055 306.338C155.484 306.62 155.784 307.06 155.89 307.563C155.997 308.066 155.9 308.591 155.622 309.022C155.344 309.555 155.249 310.165 155.35 310.757C155.494 314.441 155.365 318.13 154.964 321.795C153.866 330.982 152.291 340.013 150.686 348.995C149.479 355.838 148.272 362.693 146.311 369.185C144.863 374.02 142.528 377.224 138.986 378.33C138.545 378.469 137.984 378.397 137.61 379.116C138.504 379.422 139.463 379.488 140.391 379.309C141.319 379.13 142.185 378.711 142.902 378.094C143.7 377.345 144.636 376.759 145.659 376.372C146.583 376.1 147.258 376.468 147.47 377.998C147.518 378.342 147.47 378.814 147.789 378.977C149.111 377.327 149.72 377.623 150.167 380.119C150.217 380.795 150.374 381.458 150.632 382.084C150.921 381.231 151.15 380.512 151.41 379.811C151.669 379.11 151.953 378.282 152.279 377.574C153.093 375.834 153.987 375.761 154.934 377.345C155.193 377.774 155.278 378.505 155.785 378.62C155.857 377.579 155.736 376.534 155.429 375.537C153.83 369.62 154.403 363.805 155.634 357.96C157.794 347.744 160.25 337.686 162.875 327.736C164.558 321.438 165.922 314.928 168.167 308.998C168.631 307.91 168.885 307.173 167.877 306.568Z" fill="#CFBEB8"/>
<path id="Vector_51" d="M28.3679 43.1552C30.5884 43.6629 32.8452 43.2035 35.0597 43.7596L41.0939 45.3131C41.0939 43.4997 41.0939 41.783 41.0939 40.0603C41.1218 39.8787 41.1063 39.693 41.0486 39.5186C40.9909 39.3441 40.8927 39.1859 40.762 39.0569C38.9518 37.6183 37.8415 35.001 36.4476 32.8672C35.3796 31.2291 34.2451 29.8086 32.5918 29.7724C30.3091 29.7306 28.0698 30.4001 26.1835 31.6885C25.1819 32.3474 24.6267 33.5684 24.4457 35.1339C24.0052 38.8756 25.8637 42.587 28.3679 43.1552ZM27.6076 33.3145C31.2281 31.5737 33.9253 32.565 36.17 36.494C36.6829 37.3825 37.1838 38.3376 36.8519 39.5888C36.5502 40.7252 35.7718 40.7978 35.108 40.9912C33.9111 41.3272 32.6693 41.474 31.4272 41.4264C29.6592 41.3962 27.8731 41.5775 26.5395 39.2322C24.9586 36.4577 25.2965 34.4207 27.6076 33.3145Z" fill="#F6CB9B"/>
<path id="Vector_52" d="M65.8217 37.6726C66.3708 38.398 67.0285 38.8815 67.7285 38.398C68.3017 37.993 67.9759 36.9593 68.0241 36.1977C68.033 36.0266 68.033 35.8551 68.0241 35.6839C67.9216 32.3896 67.65 29.1497 66.2863 26.3994C65.4536 24.7129 64.3735 24.586 63.3054 25.9158C62.3315 27.3426 61.6279 28.9367 61.2297 30.6185C61.1573 30.8724 61.0788 31.1202 61.3202 31.3378C63.1184 32.9457 64.2407 35.6356 65.8217 37.6726Z" fill="#F6CB9B"/>
<path id="Vector_53" d="M53.1138 26.1274C53.0399 25.8687 52.9513 25.6144 52.8483 25.3658C51.5932 22.3435 49.9037 22.3435 48.6244 25.3295C47.3874 28.1584 46.9651 31.3741 46.6271 34.9465C46.4341 35.7988 46.8926 36.0648 47.5202 36.1131C47.8157 36.1141 48.1066 36.0404 48.3661 35.8988C48.6256 35.7573 48.8452 35.5524 49.0046 35.3032C50.1631 33.8766 51.3881 32.5528 52.4682 30.9994C52.9449 30.3163 54.0974 30.679 53.9345 29.186C53.7508 28.1444 53.4762 27.1209 53.1138 26.1274Z" fill="#F6CB9B"/>
<path id="Vector_54" d="M13.2221 105.342C12.691 105.397 11.8101 104.091 11.6049 105.947C11.2248 109.241 11.0015 112.566 10.917 115.914C10.8339 119.335 11.6874 122.713 13.385 125.683C13.5815 126.113 13.863 126.5 14.2125 126.819C14.5619 127.137 14.9721 127.382 15.4185 127.538C18.6105 128.342 21.6457 127.26 24.5421 125.411C26.3523 124.262 27.1428 121.59 28.066 119.191C28.0849 119.139 28.101 119.087 28.1143 119.033C28.3436 118.224 28.6091 117.909 29.2427 118.429C29.8763 118.949 29.6651 119.384 29.4298 120.055C28.7426 121.913 27.9488 123.729 27.0523 125.495C28.6634 125.683 29.8823 124.891 31.0047 123.494C33.0563 120.962 34.426 117.819 35.2949 114.059C36.538 108.691 37.5095 103.178 39.1689 98.0223C40.43 94.1115 42.4273 91.5485 45.028 89.85C45.5409 89.5115 45.7219 89.717 45.9693 90.4121C46.3917 91.5667 45.7702 91.7057 45.3659 91.9475C42.0894 93.8757 40.4783 97.835 39.4464 102.646C41.4831 103.205 43.5946 103.439 45.7038 103.342C47.6348 103.233 49.5596 103.045 51.4906 103.015C52.4843 103.038 53.4632 102.771 54.3085 102.248C60.8492 98.0229 66.5496 92.618 71.1196 86.3078C73.2396 83.5473 74.6432 80.3033 75.2048 76.8661C76.309 69.8423 76.3573 62.7036 76.2185 55.5467C76.2185 54.8334 76.0435 54.2713 75.5065 54.2592C74.9694 54.2471 74.8246 53.7635 74.9332 53.014C75.2832 50.5659 76.5323 49.5928 78.0891 50.7715C80.0803 52.2766 82.0052 53.963 83.9663 55.5588C84.7146 56.1633 85.4688 56.7677 86.38 56.7133C88.7936 56.5562 91.0745 55.4077 93.1986 53.7333C94.4959 52.7057 95.0571 50.2395 94.6045 48.6014C92.9512 42.6535 89.9884 38.3256 86.6998 34.4268C85.6197 33.1332 84.612 33.2783 83.4353 34.4268C80.9981 36.7547 77.9833 38.3868 74.7039 39.1537C73.6178 39.4257 73.4548 39.9757 73.31 41.2632C72.6523 47.1144 71.9222 52.9415 71.2584 58.7927C71.1619 59.6571 70.9748 59.7719 70.4317 59.6329C69.5145 59.4032 69.8645 58.5509 69.955 57.8195C71.0231 48.8613 72.2299 39.9999 72.6885 30.933C72.6885 30.7456 72.6885 30.5582 72.7187 30.3708C72.7187 30.3043 72.7187 30.2378 72.7187 30.1713V29.8026C72.7187 29.724 72.7187 29.6394 72.7187 29.5608C72.7187 29.4823 72.7187 29.3493 72.7187 29.2465C72.7187 29.1438 72.7187 29.0591 72.7187 28.9685C72.7187 28.8778 72.7187 28.775 72.7187 28.6783C72.7187 28.5816 72.7187 28.497 72.7187 28.4003C72.7187 28.3036 72.7187 28.2129 72.7187 28.1222C72.7187 28.0315 72.7187 27.9288 72.7187 27.8321C72.7187 27.7354 72.7187 27.6507 72.7187 27.5601C72.7187 27.4694 72.7187 27.3666 72.7187 27.2699V25.8978C72.7187 25.795 72.7187 25.6983 72.7187 25.6016C72.7187 25.5049 72.7187 25.4324 72.7187 25.3477C72.7187 25.2631 72.7187 25.1483 72.7187 25.0515C72.7187 24.9548 72.7187 24.8823 72.7187 24.7977C72.7187 24.713 72.7187 24.6042 72.7187 24.5015C72.7187 24.3987 72.7187 24.3383 72.7187 24.2536V23.9575V23.7157C72.7187 23.619 72.7187 23.5162 72.7187 23.4195V23.1838C72.7187 23.081 72.7187 22.9843 72.6885 22.8815C72.6583 22.7788 72.6885 22.7304 72.6885 22.6518L72.6523 22.3496C72.6523 22.2771 72.6523 22.1985 72.6523 22.1259C72.6523 22.0534 72.6221 21.9265 72.6101 21.8237L72.5739 21.6001C72.5739 21.5033 72.5739 21.4006 72.5256 21.3039L72.4894 21.0802L72.4351 20.784C72.4351 20.7115 72.4049 20.645 72.3928 20.5725C72.3808 20.4999 72.3506 20.373 72.3325 20.2763C72.3144 20.1796 72.2963 20.1312 72.2842 20.0647L72.2118 19.7685L72.1575 19.563C72.1575 19.4663 72.1092 19.3696 72.0791 19.2729C72.0626 19.2034 72.0424 19.1348 72.0187 19.0674C72.0187 18.9706 71.9644 18.8739 71.9342 18.7772L71.8679 18.5777C71.8377 18.481 71.8075 18.3843 71.7713 18.2876C71.7351 18.1909 71.7291 18.1607 71.7049 18.1002L71.5963 17.8101L71.4817 17.6348L71.361 17.3446C71.361 17.2902 71.3067 17.2298 71.2826 17.1693C71.2584 17.1089 71.1981 16.9759 71.1498 16.8792C71.1015 16.7825 71.0955 16.7704 71.0714 16.7099L70.8783 16.4259C70.8465 16.3755 70.8183 16.323 70.7938 16.2687L70.6309 15.9786C70.6309 15.9302 70.5766 15.8818 70.5464 15.8335L70.3714 15.5312L70.293 15.4104C70.2266 15.3076 70.1602 15.1988 70.0878 15.096L70.0275 15.0114C69.949 14.8966 69.8706 14.7817 69.7861 14.6729L69.4783 14.2679C64.8924 8.22329 60.6806 14.141 60.6806 14.147C60.0543 15.379 59.646 16.7104 59.4737 18.0821C59.4737 18.3239 59.4134 18.5717 59.3893 18.8195C59.3651 19.0674 59.335 19.4663 59.3169 19.7988V20.4032C59.3169 20.5906 59.3169 20.778 59.3169 20.9714C59.3169 21.1648 59.3169 21.3462 59.3169 21.5396C59.3169 21.9204 59.347 22.3012 59.3712 22.6881C59.4152 22.9397 59.3809 23.1987 59.2729 23.4301C59.165 23.6615 58.9886 23.854 58.7677 23.9816C58.3273 24.169 57.935 23.7278 57.8868 23.1656C57.573 19.7383 56.3179 16.9396 55.2378 14.0201H55.1895L55.099 13.875C52.8845 10.9615 50.4346 12.6661 49.3424 13.7481L49.083 14.0201C48.8899 14.2316 48.7752 14.3767 48.7752 14.3767C48.7496 14.4236 48.7147 14.4647 48.6726 14.4976C48.6244 14.5333 48.5799 14.5738 48.5399 14.6185L48.3407 14.8966C47.9968 15.3741 47.6649 15.8637 47.3451 16.3715C47.1882 16.6193 47.0374 16.8732 46.8865 17.1331C46.7417 17.3869 46.5969 17.6408 46.4581 17.9007V17.931C46.3193 18.1848 46.1866 18.4387 46.0598 18.6986L46.0297 18.753C45.903 19.0069 45.7823 19.2608 45.6616 19.5207L45.6254 19.5993C45.5107 19.8532 45.3961 20.101 45.2875 20.3609C45.2875 20.3972 45.2573 20.4334 45.2452 20.4758C45.1366 20.7236 45.0401 20.9654 44.9435 21.2192C44.9198 21.2702 44.8996 21.3227 44.8832 21.3764C44.7927 21.6121 44.7022 21.8539 44.6177 22.1018L44.5453 22.2952C44.4668 22.5309 44.3884 22.7667 44.316 23.0024C44.316 23.081 44.2617 23.1717 44.2375 23.2502C44.1651 23.4739 44.0987 23.6975 44.0324 23.9212C44.0324 24.024 43.9781 24.1328 43.9479 24.2355C43.8936 24.4471 43.8333 24.6526 43.785 24.84C43.7367 25.0274 43.7246 25.0999 43.6884 25.2268C43.6522 25.3538 43.5979 25.6137 43.5557 25.8313C43.5134 26.0489 43.4893 26.1456 43.4591 26.3028C43.429 26.4599 43.3867 26.6473 43.3566 26.8166C43.3264 26.9858 43.2841 27.2155 43.2479 27.421C43.2117 27.6266 43.1997 27.693 43.1816 27.8321C43.1273 28.1706 43.073 28.5151 43.0307 28.8657C41.8661 37.9327 42.904 46.9996 43.6341 56.0666C43.7005 56.8463 43.9901 56.9491 44.4186 56.9853C45.922 57.1609 47.443 57.112 48.9321 56.8403C51.1949 56.3506 53.4999 55.9033 54.4835 52.0046C54.7007 51.1341 55.1231 51.9018 55.4369 52.0469C55.986 52.2887 55.7386 52.8327 55.6059 53.286C54.7611 56.1572 53.2284 57.7046 51.219 58.3393C46.2831 59.8868 41.3955 58.9801 36.5078 57.7893C33.4907 57.0579 30.5461 55.7341 27.4566 56.2781C23.9085 56.8826 20.6622 58.5146 18.508 63.1811C17.6934 64.9461 17.3011 67.0255 16.6977 68.9477C16.4986 69.5521 16.2512 70.1143 15.7443 69.8544C15.2375 69.5944 15.1771 68.8691 15.3823 68.1498L16.5891 63.852C16.6856 63.5075 16.9029 63.1871 16.5348 62.8486C15.1892 61.6397 12.9143 63.3685 12.8117 65.7017C12.6367 69.4856 13.0953 73.1789 13.4695 76.8782C13.6203 78.3894 13.385 79.4774 12.6548 80.4022C12.0269 81.1442 11.564 82.0117 11.2972 82.947C10.2041 86.8475 9.42517 90.8296 8.96798 94.855C8.59386 98.5301 10.7118 102.9 12.9686 103.094C14.2508 103.269 15.5562 103.074 16.7318 102.532C17.9074 101.991 18.9045 101.124 19.6062 100.035C21.1509 97.8833 21.1992 97.9498 22.0198 100.809C22.3276 101.903 22.6896 102.852 23.5585 103.166C27.179 104.508 30.5461 104.218 33.0261 99.2615C33.2856 98.7537 33.5993 98.3125 33.8347 97.7926C34.1726 97.0371 34.4381 97.0431 34.9389 97.5932C35.4398 98.1432 35.2587 98.5845 34.9389 99.1104C34.3355 100.132 33.7321 101.214 33.0925 102.205C31.4874 104.684 29.5746 106.013 27.2092 105.911C25.6187 105.861 24.0472 105.55 22.5569 104.992C22.6957 110.239 21.1328 114.089 18.4235 116.984C16.8546 118.659 15.6055 118.266 14.4953 115.872C13.0727 112.984 12.7158 109.684 13.4876 106.557C13.5539 106.171 13.9703 105.282 13.2221 105.342ZM78.8373 41.0215C83.4232 38.3558 88.6005 40.6467 91.509 46.6127C92.396 48.4261 92.2572 49.8103 91.0444 51.2067C90.6436 51.7401 90.1225 52.171 89.5237 52.4642C88.9249 52.7573 88.2653 52.9043 87.5989 52.8931C86.9258 52.9127 86.2601 52.7476 85.674 52.4156C82.9203 50.7712 80.4489 48.6935 78.3546 46.2622C76.3935 44.0136 76.5745 42.3331 78.8373 41.0215ZM58.3212 41.6259C58.46 36.089 59.0514 30.7456 61.2357 26.055C61.5864 25.2384 62.0742 24.4881 62.6779 23.8366C64.3071 22.1803 66.0449 22.5551 67.294 24.84C68.4303 27.0992 69.0916 29.568 69.237 32.0935C69.8826 39.3471 69.3758 46.3468 66.588 52.6453C66.2657 53.3741 65.8455 54.0554 65.3389 54.6702C63.7157 56.6227 61.7184 56.2116 60.4633 53.7454C59.0634 51.0676 58.2066 46.2803 58.3212 41.6441V41.6259ZM53.9827 50.4027C53.1801 52.4156 52.1302 54.09 50.4587 54.096C48.7873 54.102 47.5925 52.3854 46.9167 50.2153C44.309 41.915 44.3892 33.0011 47.146 24.7493C47.283 24.3531 47.4526 23.969 47.6529 23.6008C49.5657 19.8471 52.2992 20.0285 53.9947 24.024C55.0238 26.6135 55.6545 29.3446 55.8653 32.1238C56.0282 33.7739 56.0705 35.4483 56.1489 36.766C56.0041 41.7589 55.6179 46.3105 53.9827 50.4027ZM30.9504 78.2685C29.4947 79.9166 27.7023 81.2318 25.6946 82.125C23.9326 82.8926 23.1361 81.7562 23.5947 79.1026C24.7352 72.5321 26.4308 70.1505 31.2159 69.3043C32.6097 69.0625 33.2071 69.9632 33.177 72.2843C32.9597 74.4543 32.3563 76.6969 30.9443 78.2685H30.9504Z" fill="#F6CB9B"/>
<path id="Vector_55" d="M177.773 228.665C177.574 225.455 177.212 222.27 176.971 219.066C176.437 211.133 174.602 203.342 171.54 196.006C169.599 191.577 167.401 187.266 164.957 183.094C159.991 174.402 154.095 167.983 146.613 164.731C142.609 162.983 138.343 161.913 133.989 161.563C131.696 161.37 129.41 160.5 127.02 161.104C127.412 162.464 128.118 163.776 128.094 165.063C128.046 167.536 129.198 168.388 130.194 169.548C130.67 170.087 131.188 170.586 131.745 171.041C132.173 171.398 132.221 171.712 131.998 172.408C131.66 173.435 131.347 173.085 130.846 172.716C128.372 170.902 126.869 167.306 124.594 165.118C123.104 163.685 121.686 162.095 120.226 160.578C120.014 160.361 119.761 160.01 119.495 160.228C119.23 160.445 119.284 161.038 119.308 161.473C119.387 162.736 119.489 163.993 119.574 165.257C119.67 166.804 119.864 168.358 119.833 169.899C119.785 172.172 118.783 172.873 117.577 171.525C116.87 170.666 116.223 169.759 115.64 168.811C114.433 166.998 113.329 164.93 112.019 163.22C111.416 162.44 111.005 162.313 110.746 163.697C110.486 165.081 110.143 166.544 109.787 167.928C109.599 168.72 109.286 169.373 108.664 169.47C108.043 169.567 107.56 168.932 107.306 168.134C106.896 166.834 106.528 165.499 106.226 164.138C105.418 160.512 104.676 156.806 103.867 153.155C103.738 152.192 103.364 151.278 102.781 150.502C102.479 151.711 102.177 152.762 101.954 153.869C101.115 158.535 100.331 163.226 99.4983 167.898C99.2309 169.885 98.7618 171.84 98.0984 173.731C97.3381 175.605 96.2881 175.605 95.4615 173.78C94.9819 172.549 94.6202 171.276 94.3814 169.978C93.6814 166.883 93.1745 163.673 92.2453 160.705C91.5936 158.662 91.2617 158.596 90.1454 160.137C88.6369 162.228 87.4783 164.761 86.1749 167.118C85.5414 168.267 84.9681 169.536 84.0751 170.298C83.182 171.06 82.5062 170.661 82.2648 169.168C82.1411 168.14 82.1411 167.101 82.2648 166.073C82.4277 163.183 82.9708 160.336 82.7958 157.06C82.1622 157.743 81.6373 158.209 81.1907 158.795C80.0563 160.276 78.9641 161.817 77.8418 163.322C76.7194 164.828 75.6031 166.671 74.2213 167.844C73.7748 168.219 73.3041 168.521 72.8153 167.989C72.6102 167.695 72.4706 167.361 72.4061 167.008C72.3415 166.656 72.3535 166.293 72.4412 165.946C72.557 165.051 72.7202 164.163 72.93 163.286C73.5696 160.572 74.2454 157.876 74.867 155.156C74.9514 154.787 75.2954 153.699 74.6135 154.002C73.0869 154.679 71.4215 155.108 70.3474 157.151C67.3919 162.883 63.7198 168.215 59.4196 173.018C57.8024 174.795 56.2215 176.645 54.3267 177.745C51.9553 179.105 50.3563 178.017 49.4632 174.487C49.2088 173.513 49.0074 172.527 48.8598 171.531C48.1417 166.466 47.4056 161.4 46.778 156.311C45.6255 146.996 46.2772 138.128 49.5658 129.775C52.5829 122.062 56.143 114.863 59.5161 107.488C60.9871 104.339 62.2824 101.11 63.3961 97.8168C62.2659 98.6118 61.1764 99.4631 60.1316 100.368C56.7102 103.245 53.2285 105.808 49.1132 105.113C48.8426 105.112 48.5722 105.132 48.3047 105.173C47.7556 105.173 47.3875 105.524 47.0375 106.152C37.4855 123.331 28.2834 140.879 20.6985 160.191C18.0314 166.979 15.7203 173.991 14.7066 181.783C13.1928 193.606 12.7505 205.543 13.3851 217.446C13.7833 225.304 14.6764 232.999 16.8909 240.228C20.0137 250.574 25.183 260.184 32.0909 268.487C39.1388 277.022 47.2789 281.429 56.2275 282.746C57.2231 282.891 57.3619 282.595 57.0783 281.15C55.8292 274.749 54.5379 268.36 53.669 261.808C53.138 257.782 52.8001 253.726 53.4397 249.628C53.5604 248.854 53.7354 248.6 54.2845 248.757C54.8336 248.914 54.9543 249.241 54.8276 250.051C54.1095 254.506 54.6646 258.876 55.3103 263.216C56.7163 272.597 58.6593 281.761 60.4876 290.967C60.6566 291.831 60.8315 292.696 61.0005 293.566C61.0789 293.965 61.1634 294.358 61.2419 294.775C61.4651 295.924 61.7005 297.066 61.9237 298.214L73.8532 297.713C73.9015 296.637 73.9437 295.567 74.0041 294.491C74.0041 294.418 74.0041 294.352 74.0041 294.285C74.0041 293.874 74.0704 293.469 74.1187 293.077C74.2599 291.217 74.916 289.433 76.0134 287.926C76.5016 287.22 76.8159 286.408 76.9306 285.557C78.4616 277.726 79.4935 269.806 80.0201 261.844C80.4304 254.627 80.0201 247.44 79.6701 240.246C79.6701 239.569 79.5615 239.038 80.2253 238.983C80.889 238.929 81.0519 239.171 81.0882 240.065C81.2269 243.813 81.4261 247.548 81.5528 251.29C81.9209 261.826 80.6959 272.071 79.0124 282.239C78.6926 284.179 78.6926 284.149 80.008 284.155C89.5601 284.203 98.7742 281.38 107.765 276.823C114.771 273.28 121.04 267.907 126.35 260.182C127.05 259.16 127.141 258.489 126.628 257.159C125.33 253.895 124.178 250.51 123.007 247.149C120.22 239.134 119.194 230.563 119.339 221.599C119.339 220.124 119.942 220.287 120.461 220.493C120.98 220.698 120.757 221.575 120.745 222.125C120.522 231.158 121.979 240.155 125.041 248.655C127.557 255.648 130.321 262.43 133.066 269.206C135.957 276.345 138.461 283.816 141.514 290.804C141.683 291.203 141.864 291.584 142.045 291.964C142.226 292.345 142.443 292.768 142.648 293.173C142.944 293.778 143.252 294.31 143.572 294.848L152.019 294.533C156.111 294.382 159.743 294.249 162.784 294.153C162.106 291.46 161.902 288.67 162.181 285.908C163.032 277.826 164.347 269.877 165.626 261.929C166.972 253.593 167.962 245.251 167.527 236.62C166.836 222.747 165.075 208.948 162.259 195.347C161.572 192.022 160.781 188.758 159.9 185.494C160.992 185.234 161.565 185.712 161.873 187.241C162.64 191.055 163.798 194.428 165.844 197.281C169.923 202.963 172.083 210.205 172.988 218.437C173.942 227.124 175.559 235.598 177.321 244C177.516 245.192 177.924 246.339 178.527 247.385C178.425 240.966 178.147 234.812 177.773 228.665Z" fill="#F6CB9B"/>
<path id="Vector_56" d="M162.863 294.14C162.99 294.642 163.122 295.138 163.267 295.633C163.122 295.138 162.99 294.642 162.863 294.14Z" fill="black"/>
<path id="Vector_57" d="M152.098 294.521L151.977 296.032L163.273 295.633C163.128 295.138 162.995 294.642 162.869 294.14C159.821 294.237 156.189 294.37 152.098 294.521Z" fill="black"/>
<path id="Vector_58" d="M143.645 294.836C143.946 295.343 144.248 295.839 144.568 296.317L151.978 296.032L152.098 294.521L143.645 294.836Z" fill="black"/>
<path id="Vector_59" d="M152.098 294.521L151.977 296.032L152.098 294.521Z" fill="black"/>
<path id="Vector_60" d="M42.44 300.523L52.7825 300.088C52.8549 299.587 52.9273 299.079 52.9937 298.565L42.3374 299.018C42.3736 299.496 42.4098 299.998 42.44 300.523Z" fill="black"/>
<path id="Vector_61" d="M122.247 295.688C122.585 296.196 122.929 296.685 123.291 297.163L140.325 296.486C139.967 296.013 139.632 295.523 139.324 295.017L122.247 295.688Z" fill="black"/>
<path id="Vector_62" d="M42.3368 298.994L40.8584 299.055L40.8886 299.738L40.9429 300.566L42.4394 300.499C42.4092 299.998 42.373 299.496 42.3368 298.994Z" fill="black"/>
<path id="Vector_63" d="M52.9929 298.541C52.9266 299.055 52.8541 299.562 52.7817 300.064L54.2661 299.998L54.4834 298.48L52.9929 298.541Z" fill="black"/>
<path id="Vector_64" d="M61.9477 298.166L60.4995 298.226C60.6021 298.722 60.6986 299.224 60.8012 299.726L62.2494 299.665C62.1468 299.163 62.0503 298.662 61.9477 298.166Z" fill="black"/>
<path id="Vector_65" d="M73.8951 297.664L73.8408 299.176L75.2407 299.121C75.2407 298.613 75.283 298.112 75.3011 297.604L73.8951 297.664Z" fill="black"/>
<path id="Vector_66" d="M122.247 295.688L120.437 295.76C120.763 296.256 121.095 296.752 121.439 297.235L123.279 297.163C122.929 296.673 122.585 296.184 122.247 295.688Z" fill="black"/>
<path id="Vector_67" d="M140.326 296.474L144.55 296.316C144.236 295.839 143.946 295.343 143.626 294.836L141.816 294.908C141.863 294.97 141.888 295.045 141.888 295.123C141.888 295.2 141.863 295.275 141.816 295.337C141.665 295.513 141.533 295.174 141.436 294.92L139.33 295.005C139.637 295.511 139.969 296.001 140.326 296.474Z" fill="black"/>
</g>
</g>
</svg>
