<svg width="228" height="380" viewBox="0 0 228 380" fill="none" xmlns="http://www.w3.org/2000/svg">
<g id="Frog" clip-path="url(#clip0)">
<g id="Frog_2">
<path id="Vector" d="M37.125 315.558C36.4047 315.589 35.6859 315.468 35.0161 315.203C34.3464 314.937 33.7411 314.533 33.2403 314.018C31.2566 311.8 31.8283 308.897 32.2416 306.782C32.3614 306.258 32.4465 305.728 32.4964 305.194L32.7582 302.065L31.2429 304.803C30.1959 306.686 28.9699 307.685 27.7025 307.685C27.0088 307.637 26.3451 307.385 25.7948 306.962C25.2445 306.54 24.8323 305.965 24.6099 305.31C24.3757 303.797 25.0989 302.455 26.8071 300.025L25.7326 299.176C24.5174 300.442 22.8732 301.215 21.1178 301.346C19.6162 301.346 18.7346 300.491 18.4109 298.731C18.362 297.837 18.4981 296.943 18.8109 296.103C19.1236 295.264 19.6064 294.497 20.2293 293.85C20.807 293.191 21.5104 292.652 22.2989 292.264C23.0875 291.876 23.9455 291.648 24.8234 291.591C25.2811 291.589 25.735 291.675 26.1597 291.845C27.0819 292.258 27.9589 292.765 28.777 293.357C30.0788 294.234 31.3048 295.069 32.8408 295.069C34.0911 295.01 35.2871 294.543 36.2434 293.741C40.0937 290.859 52.843 289.401 52.9739 289.387L54.5925 289.202L53.332 288.175C53.2632 288.12 46.5682 282.699 41.4712 277.736C36.7324 273.156 31.9798 260.971 30.6367 257.349L30.4163 256.754C24.4928 240.872 20.6287 230.055 19.444 226.27C17.605 220.355 15.9106 209.032 16.441 202.741C16.8542 197.84 20.0915 192.569 26.2354 192.569C27.6791 192.589 29.1107 192.834 30.4783 193.294C39.0881 196.033 53.1667 208.204 55.2744 210.052C52.5193 234.574 68.3612 269.61 76.8883 288.456C79.1957 293.549 81.3792 298.368 81.4205 299.375C80.0911 302.887 74.1056 305.639 70.3656 306.638C67.452 307.227 57.5749 309.376 54.7303 311.581C52.9119 312.998 50.6596 313.949 49.1305 313.949C48.8393 313.975 48.5461 313.935 48.2728 313.832C47.9996 313.729 47.7535 313.565 47.5532 313.354C47.1264 312.852 46.5916 312.452 45.9884 312.183C45.3852 311.914 44.7289 311.783 44.0679 311.8C43.6828 311.795 43.2987 311.839 42.9246 311.93L42.5457 312.026L42.4355 312.395C41.8087 314.476 39.2947 315.558 37.125 315.558Z" fill="#7CC243"/>
<path id="Vector_2" d="M26.2359 193.253C27.6068 193.27 28.9665 193.501 30.2652 193.938C38.4479 196.573 51.7414 207.889 54.5516 210.333C51.9274 235.019 67.7349 269.89 76.262 288.737C78.4316 293.529 80.4842 298.06 80.7115 299.293C79.3339 302.455 73.6377 305.05 70.2283 305.967C66.3642 306.754 57.1414 308.808 54.3037 311.04C52.6024 312.375 50.5154 313.265 49.124 313.265C48.9334 313.286 48.7403 313.266 48.5582 313.206C48.3762 313.146 48.2096 313.047 48.0702 312.915C47.5797 312.337 46.965 311.875 46.2713 311.563C45.5776 311.252 44.8226 311.099 44.0615 311.115C43.6161 311.11 43.1718 311.161 42.739 311.266L41.9883 311.464L41.7679 312.203C41.3133 313.723 39.3227 314.873 37.1255 314.873C36.5019 314.9 35.8795 314.797 35.2984 314.57C34.7172 314.344 34.19 313.999 33.7505 313.559C31.9941 311.594 32.5107 309 32.917 306.912C33.0395 306.361 33.1292 305.803 33.1857 305.241L33.6334 299.026L30.6096 304.502C29.9691 305.652 28.9359 307.028 27.6685 307.028C27.1414 306.973 26.639 306.777 26.2147 306.461C25.7903 306.146 25.4597 305.722 25.2578 305.235C25.0581 303.954 25.7399 302.722 27.3241 300.443L25.182 298.724C24.0878 299.85 22.6188 300.541 21.0494 300.669C20.2848 300.669 19.3756 300.436 19.0312 298.676C18.9979 297.871 19.129 297.066 19.4166 296.312C19.7043 295.558 20.1425 294.87 20.705 294.288C21.2147 293.694 21.8383 293.206 22.5395 292.854C23.2408 292.501 24.0056 292.291 24.7894 292.235C25.1627 292.245 25.5301 292.329 25.8708 292.481C26.7498 292.879 27.5854 293.365 28.3642 293.932C29.6935 294.829 31.0642 295.76 32.8137 295.76C34.214 295.706 35.5563 295.191 36.6296 294.295C39.7015 291.995 49.5029 290.468 53.0225 290.071L56.2667 289.709L53.7389 287.655C53.67 287.607 47.0026 282.178 41.9194 277.256C37.2908 272.779 32.5864 260.717 31.2571 257.123L31.016 256.48C25.182 240.611 21.2767 229.823 20.0988 226.078C18.2667 220.225 16.6067 209.032 17.1302 202.803C17.5159 198.209 20.5259 193.26 26.2359 193.26V193.253ZM26.2359 191.891C19.6305 191.891 16.1935 197.491 15.7526 202.686C15.2292 208.957 16.8202 220.218 18.7833 226.482C20.7463 232.746 29.2596 255.576 30.0035 257.568C30.7474 259.56 35.8168 273.197 41.024 278.208C46.2312 283.219 52.9261 288.682 52.9261 288.682C52.9261 288.682 39.8806 290.14 35.8306 293.166C34.9933 293.879 33.9425 294.298 32.8413 294.357C30.6234 294.357 28.9841 292.235 26.4218 291.18C25.9142 290.977 25.3712 290.875 24.8239 290.879C21.38 290.879 17.3368 294.501 17.7019 298.861C18.1289 301.209 19.5134 302.038 21.0838 302.038C23.035 301.91 24.8655 301.054 26.2083 299.642C24.5277 302.038 23.6185 303.612 23.9009 305.419C24.148 306.237 24.6421 306.959 25.316 307.488C25.9899 308.017 26.8112 308.327 27.6685 308.377C28.991 308.377 30.4719 307.555 31.8012 305.139C31.6566 307.09 29.9071 311.3 32.7104 314.469C33.2769 315.057 33.9618 315.518 34.7203 315.824C35.4788 316.129 36.2938 316.272 37.1117 316.242C39.7291 316.242 42.3947 314.873 43.0765 312.594C43.3946 312.518 43.7207 312.481 44.0477 312.484C44.6062 312.469 45.161 312.579 45.6713 312.805C46.1815 313.031 46.6341 313.368 46.9957 313.792C47.2622 314.081 47.5905 314.306 47.9565 314.452C48.3225 314.598 48.7168 314.66 49.1103 314.634C50.9424 314.634 53.3325 313.532 55.144 312.121C57.8233 310.033 67.4525 307.925 70.5313 307.329C74.175 306.35 80.6908 303.496 82.0891 299.532C82.4403 295.562 52.0169 242.391 55.9843 209.806C55.9843 209.806 40.2043 195.731 30.6785 192.692C29.2418 192.211 27.738 191.957 26.2221 191.939L26.2359 191.891Z" fill="black"/>
<path id="Vector_3" d="M39.4326 234.807C38.9311 234.082 38.4712 233.33 38.0551 232.554C38.2686 230.186 39.164 224.415 40.39 223.025L39.35 222.128C38.0964 223.552 37.2836 227.762 36.9117 230.432C35.1001 226.807 34.0858 222.84 33.9362 218.795H32.5586C32.6688 227.79 38.0688 235.272 38.2824 235.539L50.5702 255.747L51.7549 255.063L39.4326 234.807Z" fill="black"/>
<path id="Vector_4" d="M26.208 299.642C26.208 299.642 27.0483 296.664 30.5198 298.389C32.9856 298.745 32.5861 298.328 33.5297 297.855C34.4734 297.383 46.7337 294.699 54.8819 297.417" stroke="black" stroke-width="2" stroke-miterlimit="10"/>
<path id="Vector_5" d="M32.9307 301.942C32.9307 301.942 32.4072 298.704 39.0264 299.642C43.4414 303.017 44.3851 302.25 46.0657 301.415C47.7463 300.58 54.579 299.457 56.8864 300.799" stroke="black" stroke-width="2" stroke-miterlimit="10"/>
<path id="Vector_6" d="M85.2572 289.983C77.5222 289.983 72.2324 288.887 69.9663 286.813C64.0841 281.453 53.1463 271.465 50.9904 252.434C48.7656 232.855 54.4343 214.899 56.8175 209.628C59.7172 203.193 65.3308 186.722 65.7234 185.566C68.2994 181 64.153 174.804 60.4818 169.334C58.8218 166.856 57.2514 164.543 56.48 162.592C54.1106 156.711 55.1024 152.966 59.8825 142.246C61.8869 137.769 74.774 135.325 96.1262 135.325C108.758 135.325 119.462 136.167 120.922 136.318C123.629 136.612 131.254 138.33 134.05 142.76C134.621 143.696 134.959 144.753 135.037 145.845C135.115 146.936 134.93 148.031 134.498 149.037C133.906 150.666 133.327 151.946 132.824 153.076C130.241 158.84 129.064 161.469 132.273 188.762V188.893L132.335 189.002C147.785 218.315 146.993 244.705 146.924 246.328C146.82 246.67 146.71 247.012 146.586 247.375C144.403 243.268 140.022 240.981 134.071 240.981C115.715 240.981 88.1639 261.518 87.234 289.962C86.559 289.976 85.9115 289.983 85.2572 289.983Z" fill="#7CC243"/>
<path id="Vector_7" d="M96.1261 136.01C108.731 136.01 119.393 136.845 120.833 137.002C124.469 137.393 131.109 139.392 133.451 143.123C134.498 144.786 134.622 146.648 133.837 148.804C133.251 150.406 132.68 151.68 132.177 152.802C129.546 158.683 128.34 161.366 131.578 188.845V189.098L131.695 189.317C145.925 216.31 146.311 240.81 146.235 245.547C143.735 242.125 139.526 240.297 134.05 240.297C115.563 240.297 87.9021 260.786 86.5245 289.284H85.2365C77.777 289.284 72.5078 288.223 70.4002 286.3C64.5937 280.994 53.7799 271.123 51.6447 252.345C49.4406 232.917 55.0886 215.118 57.4167 209.902C60.3509 203.488 65.7784 187.53 66.357 185.846C69.1121 180.917 64.821 174.565 61.0603 168.958C59.4141 166.507 57.8644 164.166 57.1205 162.338C54.8475 156.691 55.798 153.042 60.5162 142.561C61.3909 140.603 66.6188 136.044 96.1192 136.044L96.1261 136.01ZM96.1192 134.675C80.1189 134.675 61.9213 136.044 59.2557 142.007C54.5789 152.439 53.3184 156.615 55.8118 162.879C58.3052 169.143 68.6644 179.117 65.0897 185.285C65.0897 185.285 59.2006 202.666 56.1906 209.348C53.1807 216.029 48.2008 233.992 50.3016 252.509C52.4023 271.027 62.6307 281.056 69.4979 287.32C72.253 289.832 78.5209 290.667 85.264 290.667C86.1319 290.667 87.0066 290.654 87.8883 290.626C88.4393 261.553 116.666 241.666 134.071 241.666C140.07 241.666 144.782 244.028 146.634 249.196C147.008 248.301 147.334 247.387 147.612 246.458C147.612 246.458 149.093 219.342 132.935 188.701C129.084 155.965 131.619 158.888 135.125 149.284C138.631 139.679 125.482 136.14 120.977 135.654C119.028 135.449 108.194 134.654 96.1192 134.654V134.675Z" fill="black"/>
<path id="Vector_8" d="M87.8608 290.626C87.8608 290.626 149.162 294.172 146.607 249.189C139.402 229.049 88.6254 251.537 87.8608 290.626Z" fill="#7CC243" stroke="black" stroke-width="2" stroke-miterlimit="10"/>
<path id="Vector_9" d="M81.2693 288.1C80.5472 287.636 79.7868 287.233 78.9964 286.895C78.3076 286.621 75.6971 284.02 71.9708 279.078C68.7817 274.847 67.5695 267.015 66.3986 259.437C65.1656 251.496 66.2952 235.101 67.6521 227.947C68.2514 221.334 74.5399 210.6 75.029 209.834C79.754 204.124 91.7732 197.176 99.1363 197.176C99.6414 197.174 100.146 197.213 100.645 197.292C107.567 199.942 110.122 203.378 112.829 207.02C113.518 207.951 114.241 208.916 115.033 209.875C117.788 213.147 120.482 221.512 122.107 226.496C122.796 228.55 123.244 229.974 123.54 230.562C124.401 232.281 125.523 238.093 126.198 244.391C126.818 250.107 124.132 272.697 122.823 275.504C117.148 283.493 106.506 288.162 105.218 288.709L81.2693 288.1Z" fill="#FFE699"/>
<path id="Vector_10" d="M99.1153 197.84C99.5603 197.839 100.005 197.871 100.445 197.936C107.126 200.51 109.619 203.857 112.25 207.41C112.939 208.348 113.676 209.32 114.482 210.292C117.12 213.462 119.82 221.738 121.432 226.722C121.848 228.129 122.337 229.514 122.899 230.87C123.719 232.499 124.834 238.346 125.496 244.473C126.136 250.435 123.298 272.622 122.203 275.169C116.789 282.747 106.781 287.285 105.06 288.025L81.4757 287.45C80.7743 287.004 80.0371 286.617 79.2716 286.293C78.6241 285.978 76.0274 283.349 72.5216 278.694C69.4358 274.587 68.2373 266.858 67.0733 259.362C65.8542 251.483 66.9769 235.204 68.3269 228.077V228.016V227.947C68.8917 221.649 74.9529 211.278 75.5729 210.231C80.2841 204.617 91.9934 197.84 99.1153 197.84ZM99.1153 196.471C91.7041 196.471 79.4507 203.364 74.4639 209.416C74.4639 209.416 67.5761 220.8 66.9769 227.797C65.5993 235.005 64.4559 251.4 65.7164 259.54C66.9769 267.679 68.1891 275.203 71.4195 279.488C74.6499 283.774 77.6943 287.107 78.7412 287.525C79.5466 287.88 80.3207 288.302 81.0555 288.785L105.328 289.373C105.328 289.373 117.196 284.581 123.395 275.833C124.772 273.094 127.493 250.141 126.839 244.295C126.184 238.448 125.082 232.185 124.084 230.234C123.085 228.283 119.372 214.085 115.495 209.416C111.617 204.747 109.771 200.017 100.81 196.642C100.25 196.546 99.6831 196.5 99.1153 196.505V196.471Z" fill="black"/>
<path id="Vector_11" d="M158.957 234.807C159.454 234.079 159.913 233.328 160.334 232.554C160.066 230.179 159.191 224.415 157.972 223.025L159.012 222.128C160.259 223.552 161.078 227.762 161.443 230.432C163.258 226.808 164.273 222.84 164.419 218.795H165.796C165.693 227.79 160.286 235.272 160.073 235.539L147.785 255.775L146.607 255.09L158.957 234.807Z" fill="black"/>
<path id="Vector_12" d="M140.339 286.163L139.402 289.373H143.411L145.774 286.163H140.339Z" fill="#7CC243"/>
<path id="Vector_13" d="M145.774 286.163L143.411 289.373H145.106L146.276 287.532L145.774 286.163Z" fill="black"/>
<path id="Vector_14" d="M173.752 319.693C169.826 319.693 166.464 315.674 166.237 315.12L166.134 314.846C165.672 313.532 165.052 312.642 160.768 312.19C160.24 312.131 159.709 312.099 159.177 312.094C157.85 312.036 156.549 312.465 155.52 313.299C154.648 313.929 153.693 314.436 152.682 314.805C152.105 315.036 151.492 315.163 150.87 315.181C149.617 315.181 148.894 314.456 148.053 313.621C147.581 313.099 147.044 312.639 146.455 312.251C145.479 311.65 144.464 311.113 143.418 310.643C142.839 310.376 142.233 310.095 141.482 309.691C140.277 309.048 135.972 307.685 130.999 306.111C127.555 305.016 123.974 303.879 121.17 302.907C119.338 302.264 118.16 301.285 117.657 299.998C116.893 298.006 117.933 295.836 118.098 295.521C118.608 294.946 123.374 290.653 126.315 288.038L126.419 287.943L129.794 280.713L134.03 281.35L134.278 281.104L135.104 280.262C136.406 278.924 137.625 277.509 138.755 276.024C139.134 275.518 139.492 275.018 139.809 274.532C140.454 273.574 141.018 272.564 141.496 271.513C142.949 268.234 144.107 265.639 145.002 263.134C145.16 262.696 145.312 262.264 145.457 261.826C146.155 259.67 146.701 257.467 147.089 255.234C147.247 254.358 147.392 253.447 147.544 252.434C147.654 250.51 147.709 248.272 147.702 245.903C147.702 243.685 147.654 241.406 147.557 239.147C147.495 237.668 147.413 236.196 147.309 234.752C147.24 233.766 147.158 232.766 147.068 231.767C146.469 225.318 145.167 216.597 142.329 211.182L143.018 210.402C143.974 209.281 145.04 208.259 146.2 207.348C146.29 207.294 146.421 207.205 146.579 207.088C146.738 206.972 146.875 206.883 147.048 206.753L147.55 206.376L150.726 203.994L151.917 203.125L153.143 202.221L154.404 201.297L155.685 200.373C157.063 199.36 158.364 198.483 159.453 197.764C160.727 196.922 161.801 196.272 162.649 195.82L165.149 194.485C165.479 194.314 165.838 194.143 166.127 193.993L166.354 193.883C166.602 193.76 166.857 193.643 167.112 193.541L167.346 193.438C167.649 193.315 167.959 193.198 168.262 193.096L168.42 193.048C168.675 192.966 168.937 192.897 169.199 192.829L169.461 192.774C169.812 192.699 170.115 192.651 170.404 192.617C170.693 192.582 171.052 192.562 171.444 192.555H171.782H172.353H172.746L173.38 192.63L173.793 192.692C174.034 192.733 174.289 192.788 174.544 192.842L174.916 192.918C175.308 193.007 175.715 193.109 176.142 193.239C180.577 194.52 182.162 202.584 182.162 209.703C182.155 210.008 182.132 210.312 182.093 210.614C182.051 211.052 181.976 211.606 181.886 212.257C181.838 212.585 181.783 212.941 181.728 213.311L181.535 214.564C181.301 215.933 181.025 217.37 180.729 218.808C180.619 219.328 180.509 219.862 180.385 220.41C180.068 221.848 179.696 223.292 179.365 224.689C179.214 225.277 179.055 225.88 178.89 226.475C178.725 227.071 178.559 227.687 178.38 228.296C178.119 229.207 177.836 230.117 177.54 231.034C176.624 233.896 175.301 237.757 173.71 242.186C173.118 243.836 172.512 245.513 171.906 247.163C171.603 247.991 171.3 248.813 170.997 249.62C170.397 251.236 169.812 252.804 169.247 254.282C168.972 255.015 168.696 255.734 168.434 256.411C167.057 259.964 166.017 262.531 165.493 263.634C165.273 264.099 164.997 264.654 164.68 265.263C164.446 265.728 164.184 266.228 163.902 266.748C163.434 267.618 162.917 268.562 162.366 269.487C159.611 274.279 157.29 277.619 155.919 278.708C153.205 280.885 145.946 286.923 145.87 286.97C145.512 287.265 144.01 288.203 143.115 288.75L142.598 289.065L142.846 289.62C142.908 289.763 144.485 293.173 147.172 293.296H147.302L147.426 293.255C149.233 292.666 151.125 292.379 153.026 292.406C157.753 292.503 162.394 293.674 166.595 295.829C167.093 296.21 167.709 296.407 168.337 296.387C168.965 296.367 169.567 296.131 170.039 295.719C170.507 295.358 171.073 295.145 171.665 295.11C172.627 295.253 173.598 295.333 174.571 295.35C175.826 295.44 177.072 295.075 178.077 294.323C178.806 293.779 179.666 293.434 180.571 293.323C181.583 293.399 182.217 293.679 182.444 294.165C182.954 295.24 181.714 297.328 181.246 297.978L180.936 298.403L181.259 298.807C183.229 301.257 183.236 302.373 183.071 302.818C182.795 303.551 181.576 303.77 180.763 303.92C180.075 304.044 179.551 304.139 179.386 304.673L179.331 304.886L179.407 305.091C181.197 309.972 180.653 316.571 176.107 319.2C175.39 319.519 174.613 319.685 173.827 319.686L173.752 319.693Z" fill="#7CC243"/>
<path id="Vector_15" d="M171.555 193.219H171.741C171.92 193.219 172.099 193.219 172.278 193.219H172.657L173.256 193.294H173.359L173.648 193.342C173.883 193.342 174.124 193.431 174.372 193.479L174.53 193.513L174.73 193.554C175.143 193.65 175.536 193.753 175.921 193.869C179.999 195.04 181.432 203.118 181.432 209.676C181.432 209.751 181.432 209.97 181.37 210.511C181.308 211.052 181.253 211.517 181.163 212.134C181.115 212.462 181.06 212.818 181.005 213.181C180.95 213.544 180.881 213.948 180.805 214.358C180.578 215.728 180.309 217.131 180.006 218.582C179.896 219.102 179.786 219.63 179.662 220.17C179.345 221.608 179.007 223.039 178.649 224.428C178.498 225.017 178.339 225.613 178.181 226.208C178.022 226.804 177.843 227.413 177.671 228.015C177.402 228.94 177.12 229.857 176.838 230.754C175.921 233.608 174.599 237.456 173.015 241.885C172.422 243.528 171.816 245.205 171.21 246.855L170.322 249.353C169.722 250.969 169.13 252.537 168.572 254.008C168.29 254.748 168.021 255.46 167.753 256.144C166.375 259.677 165.356 262.223 164.839 263.319C164.612 263.784 164.343 264.325 164.033 264.927C163.799 265.386 163.537 265.879 163.262 266.399C162.773 267.31 162.256 268.241 161.733 269.137C159.088 273.765 156.739 277.14 155.458 278.167C152.737 280.337 145.464 286.382 145.395 286.43C145.112 286.662 143.804 287.491 142.702 288.155L141.655 288.785L142.157 289.887C142.337 290.291 144.024 293.823 147.082 293.994H147.344L147.592 293.912C149.326 293.353 151.141 293.08 152.964 293.104C157.56 293.184 162.077 294.308 166.168 296.39C166.768 296.793 167.47 297.018 168.193 297.04C168.965 297.009 169.709 296.741 170.322 296.274C170.672 295.996 171.095 295.822 171.541 295.774C172.514 295.921 173.497 296.001 174.482 296.014C175.875 296.102 177.255 295.694 178.374 294.863C179 294.399 179.735 294.1 180.509 293.994C181.163 294.049 181.625 294.213 181.735 294.432C181.99 294.98 181.342 296.527 180.598 297.554L179.978 298.396L180.633 299.217C182.623 301.702 182.348 302.524 182.341 302.558C182.196 302.928 181.005 303.14 180.55 303.243C179.82 303.379 178.911 303.544 178.649 304.495L178.532 304.92L178.683 305.324C180.13 309.267 180.171 315.962 175.742 318.57C175.118 318.854 174.439 319.001 173.752 319.001C170.308 319.001 167.174 315.448 166.864 314.86C166.83 314.778 166.802 314.695 166.774 314.613C166.161 312.861 165.115 311.95 160.83 311.498C160.204 311.437 159.659 311.403 159.163 311.403C157.697 311.343 156.259 311.812 155.113 312.724C154.29 313.324 153.386 313.806 152.427 314.155C151.928 314.357 151.396 314.471 150.857 314.49C149.941 314.49 149.403 313.997 148.529 313.121C148.014 312.568 147.436 312.076 146.807 311.656C145.809 311.041 144.771 310.492 143.7 310.013C143.122 309.746 142.529 309.465 141.792 309.075C140.594 308.438 136.971 307.282 131.199 305.447C127.755 304.352 124.18 303.215 121.384 302.243C119.758 301.675 118.718 300.84 118.298 299.751C117.671 298.156 118.443 296.328 118.656 295.897C119.345 295.213 123.257 291.653 126.763 288.538L126.935 288.367L127.039 288.148L130.131 281.508L133.513 282.014L134.202 282.117L134.691 281.624C134.973 281.343 135.249 281.063 135.525 280.775C136.849 279.416 138.089 277.978 139.237 276.469C139.623 275.958 139.981 275.451 140.312 274.949C140.978 273.962 141.559 272.92 142.047 271.835C143.425 268.672 144.665 265.947 145.581 263.408C145.739 262.963 145.891 262.525 146.035 262.08C146.744 259.891 147.299 257.656 147.695 255.391C147.847 254.515 147.998 253.591 148.15 252.571V252.455C148.26 250.572 148.315 248.347 148.308 245.944C148.308 243.713 148.26 241.426 148.164 239.153C148.102 237.668 148.019 236.189 147.916 234.745C147.847 233.732 147.764 232.691 147.675 231.746C146.827 222.635 145.285 215.775 143.074 211.326L143.459 210.908C144.357 209.821 145.373 208.836 146.49 207.971C146.593 207.91 146.731 207.814 146.91 207.691L147.385 207.342L147.888 206.965L148.914 206.198L149.08 206.075L149.135 206.034L149.555 205.719L150.519 204.994L151.07 204.583L152.221 203.713L153.522 202.803L154.783 201.879L156.05 200.927C157.428 199.921 158.709 199.051 159.797 198.333C161.051 197.511 162.105 196.868 162.938 196.423H162.979L164.178 195.786L164.274 195.731L165.197 195.238L165.287 195.191L165.424 195.115L166.382 194.588L166.506 194.533L166.602 194.485L167.339 194.15L167.415 194.116L167.56 194.054C167.877 193.924 168.159 193.821 168.434 193.732H168.476L168.579 193.698C168.813 193.623 169.061 193.554 169.316 193.5L169.55 193.445C169.888 193.37 170.163 193.328 170.432 193.294H170.515C170.776 193.294 171.072 193.253 171.431 193.246H171.561L171.555 193.219ZM171.561 191.877H171.431C171.067 191.88 170.704 191.9 170.342 191.939C170.002 191.975 169.664 192.03 169.33 192.103L169.054 192.165C168.772 192.233 168.496 192.308 168.221 192.397L168.062 192.445C167.739 192.548 167.415 192.671 167.098 192.801L166.85 192.911C166.595 193.02 166.327 193.137 166.065 193.267L165.838 193.376C165.507 193.534 165.149 193.705 164.839 193.876L164.605 193.999L163.668 194.499L162.387 195.184H162.339C161.409 195.677 160.272 196.368 159.088 197.162C157.903 197.956 156.587 198.853 155.299 199.784L153.984 200.749L152.716 201.68L151.497 202.584L150.333 203.453L149.782 203.864L148.405 204.905L148.184 205.076L147.165 205.836L146.669 206.205L146.207 206.541L145.856 206.78C144.65 207.728 143.538 208.79 142.536 209.95C141.937 210.634 141.517 211.093 141.517 211.093C144.196 215.885 145.65 223.888 146.4 231.835C146.497 232.828 146.573 233.821 146.648 234.813C146.754 236.292 146.834 237.748 146.889 239.181C146.993 241.556 147.034 243.836 147.034 245.91C147.034 248.402 146.979 250.599 146.882 252.345C146.738 253.338 146.586 254.255 146.435 255.083C146.051 257.287 145.511 259.46 144.816 261.587C144.678 262.018 144.534 262.442 144.375 262.874C143.501 265.311 142.385 267.83 140.883 271.212C140.423 272.226 139.879 273.202 139.258 274.128C138.932 274.616 138.587 275.102 138.225 275.586C137.111 277.048 135.911 278.443 134.629 279.762C134.36 280.043 134.085 280.316 133.809 280.59L129.408 279.906L125.875 287.436C125.875 287.436 117.692 294.727 117.534 295.062C117.534 295.062 114.207 301.107 120.977 303.462C127.748 305.817 139.23 309.157 141.186 310.205C143.142 311.252 144.093 311.492 146.125 312.744C147.75 313.751 148.57 315.777 150.905 315.777C151.614 315.761 152.314 315.618 152.971 315.353C156.484 314.052 156.264 312.69 159.225 312.69C159.734 312.693 160.242 312.723 160.748 312.779C165.369 313.265 165.225 314.244 165.645 315.284C165.996 316.153 169.598 320.288 173.8 320.288C174.707 320.29 175.604 320.091 176.424 319.706C181.445 316.811 181.811 309.63 180.027 304.776C180.185 304.201 187.114 304.981 181.755 298.3C181.755 298.3 185.75 292.871 180.495 292.556C177.154 293.07 177.884 294.61 174.53 294.61C173.573 294.597 172.618 294.517 171.672 294.371C169.991 294.371 169.406 295.637 168.228 295.637C167.763 295.613 167.314 295.458 166.933 295.192C165.259 294.165 159.184 291.701 152.999 291.701C151.023 291.677 149.057 291.975 147.179 292.584C144.878 292.481 143.445 289.312 143.445 289.312C143.445 289.312 145.78 287.908 146.311 287.463C146.311 287.463 153.612 281.412 156.353 279.248C158.068 277.879 160.755 273.697 162.966 269.829C163.517 268.864 164.04 267.919 164.508 267.043C164.791 266.516 165.059 266.016 165.294 265.55C165.617 264.927 165.893 264.373 166.113 263.9C166.671 262.723 167.753 260.053 169.075 256.63L169.895 254.495C170.453 253.016 171.045 251.448 171.644 249.833L172.553 247.375C173.159 245.718 173.766 244.041 174.358 242.391C175.839 238.284 177.216 234.286 178.201 231.212C178.498 230.295 178.773 229.371 179.042 228.474C179.221 227.865 179.393 227.256 179.558 226.653C179.724 226.051 179.882 225.442 180.033 224.853C180.412 223.367 180.757 221.923 181.06 220.547C181.177 219.999 181.294 219.465 181.404 218.938C181.728 217.37 181.997 215.933 182.217 214.673C182.286 214.249 182.355 213.852 182.41 213.475C182.465 213.099 182.527 212.743 182.575 212.407C182.665 211.723 182.74 211.189 182.789 210.737C182.837 210.285 182.857 209.957 182.857 209.758C182.857 208.156 182.857 194.513 176.342 192.644C175.901 192.521 175.488 192.411 175.081 192.322L174.695 192.24L173.91 192.083L173.483 192.021L172.794 191.939H172.381C172.174 191.939 171.968 191.939 171.775 191.939H171.548L171.561 191.877Z" fill="black"/>
<path id="Vector_16" d="M143.411 302.36C143.411 302.36 152.779 300.128 160.555 304.235C165.879 307.227 167.002 304.865 167.98 304.235C168.958 303.605 176.459 302.216 179.331 304.92" stroke="black" stroke-width="2" stroke-miterlimit="10"/>
<path id="Vector_17" d="M145.429 298.389C145.429 298.389 155.444 296.506 162.449 299.293C166.368 301.107 169.523 300.614 171.341 299.293C173.16 297.971 179.606 298.019 180.867 298.457" stroke="black" stroke-width="2" stroke-miterlimit="10"/>
<path id="Vector_18" d="M137.267 367.154C136.238 366.981 135.313 366.429 134.677 365.607C134.248 365.152 133.921 364.611 133.718 364.021C133.515 363.431 133.44 362.805 133.5 362.184C133.658 361.095 133.754 360.301 133.823 359.685C133.842 358.891 134.02 358.109 134.347 357.385C134.905 356.276 134.657 354.455 134.429 353.182V353.065C134.426 353.006 134.426 352.947 134.429 352.887C133.899 348.335 132.487 344.501 130.448 342.085C130.248 341.797 129.759 341.031 129.257 340.223C128.662 339.155 127.983 338.136 127.225 337.176C126.923 336.917 126.536 336.776 126.136 336.779C125.896 336.771 125.658 336.825 125.445 336.937C125.232 337.049 125.053 337.214 124.924 337.416C124.387 337.971 119.373 341.448 117.857 341.968C116.631 342.439 115.369 342.81 114.083 343.077C113.697 343.068 113.319 343.183 113.005 343.405C112.691 343.627 112.458 343.945 112.34 344.31C112.34 344.364 112.292 344.447 112.264 344.549C111.989 345.501 111.162 348.376 106.017 348.499C105.303 347.873 104.75 347.087 104.402 346.206C104.055 345.325 103.924 344.375 104.02 343.433C104.151 341.345 105.115 339.374 106.368 338.607C106.913 338.464 107.472 338.386 108.035 338.374C108.583 338.312 109.135 338.459 109.578 338.785L109.73 338.936L109.957 339.004C110.48 339.1 111.01 339.152 111.541 339.162C111.895 339.203 112.254 339.162 112.589 339.044C112.925 338.925 113.229 338.731 113.477 338.477C113.869 338.039 117.554 335.739 120.895 333.843L121.232 333.651V333.261C121.232 332.98 121.549 305.276 121.597 304.153C121.597 304.03 123.595 287.326 124.353 281.863C124.669 279.495 125.083 274.046 125.523 268.275C126.047 261.333 126.708 252.694 127.066 251.845C127.537 250.578 127.748 249.231 127.686 247.882C127.686 247.58 127.686 247.306 127.686 247.081C127.741 246.197 127.721 244.671 127.686 242.898V241.679C127.686 239.667 126.515 234.238 125.551 230.042C124.924 227.303 122.252 212.626 122.224 211.558C122.224 211.196 122.128 210.189 121.487 205.883C120.888 201.879 120.151 196.902 120.027 194.704C119.82 190.905 119.82 179.644 119.82 179.493V173.024C119.82 172.928 120.068 169.492 119.207 167.739C118.898 167.173 118.551 166.629 118.167 166.11C117.038 164.481 115.495 162.249 115.619 159.798C115.57 158.825 115.423 157.86 115.178 156.916C114.351 152.987 112.967 146.408 116.783 141.705C119.793 138.002 125.585 136.064 134.002 135.962C135.077 137.084 140.201 142.718 139.423 147.702C139.175 149.263 138.81 151.056 138.424 152.946C137.357 158.19 136.027 164.72 136.262 171.011C136.33 172.832 136.317 174.434 136.303 176.036C136.262 181.793 136.213 187.222 140.07 199.996C140.697 202.05 141.345 204.103 141.992 206.157C146.469 220.41 150.698 233.875 148.191 251.229C146.765 261.148 143.859 271.006 141.303 279.707C138.693 288.558 136.633 295.555 137.033 299.601C136.303 306.22 138.741 308.698 140.05 310.033C140.245 310.213 140.422 310.41 140.58 310.622C141.049 311.355 143.425 313.442 146.724 316.311C148.177 317.577 149.555 318.768 149.906 319.145C150.375 319.645 154.817 324.033 165.962 324.033H166.864H166.912C168.207 323.903 169.403 323.288 170.26 322.314C170.396 322.162 170.546 322.023 170.707 321.897C171.379 321.356 172.196 321.025 173.056 320.945C173.43 320.958 173.796 321.059 174.124 321.238C174.452 321.418 174.733 321.672 174.943 321.979C176.769 324.245 177.389 329.188 174.289 332.145C173.67 332.534 172.955 332.745 172.223 332.754C171.053 332.693 169.947 332.206 169.116 331.385L169.027 331.289L168.903 331.234C167.573 330.703 166.148 330.447 164.715 330.481C162.951 330.494 161.203 330.811 159.549 331.419L158.674 331.734L159.239 332.473C160.396 333.993 165.438 336.779 167.608 336.855H168.173C169.323 336.855 169.681 336.677 170.088 336.252C170.143 336.204 170.198 336.143 170.287 336.074C170.774 335.671 171.377 335.432 172.009 335.39C172.348 335.394 172.68 335.483 172.974 335.65C173.979 336.191 174.751 341.578 173.662 344.255C173.266 345.073 172.663 345.776 171.912 346.294C171.161 346.812 170.288 347.129 169.378 347.212C169.223 347.226 169.067 347.208 168.919 347.16C168.771 347.111 168.634 347.034 168.517 346.931C166.823 344.946 164.343 342.4 162.16 341.517C159.804 340.565 152.909 340.147 152.517 340.147H152.048L151.856 340.592C151.408 341.701 156.677 347.198 156.732 347.246L156.863 347.37L157.042 347.418C157.532 347.514 158.031 347.555 158.53 347.541C159.542 347.541 160.596 347.541 161.209 348.225C161.712 348.746 161.946 349.677 161.898 350.964C161.815 354.222 160.603 358.028 157.49 358.028C156.408 357.974 155.358 357.646 154.438 357.077C153.212 355.468 153.102 355.064 152.861 354.195C152.778 353.887 152.682 353.51 152.524 353.065C152.365 352.62 152.296 352.34 152.2 352.032C151.949 350.755 151.281 349.598 150.299 348.739C150.01 348.472 149.521 347.999 148.921 347.37C146.579 345.09 142.213 340.846 138.941 338.888L137.915 338.272V339.463C137.915 339.846 137.777 348.869 137.777 349.567C137.777 349.704 137.777 353.038 138.28 353.935C138.782 354.831 140.58 358.727 140.298 361.465C140.008 364.381 139.024 366.401 137.612 367.017C137.509 367.089 137.391 367.136 137.267 367.154V367.154Z" fill="#7CC243"/>
<path id="Vector_19" d="M133.72 136.653C135.642 138.673 139.382 143.581 138.741 147.606C138.493 149.16 138.135 150.94 137.749 152.83C136.675 158.108 135.339 164.679 135.573 171.053C135.642 172.853 135.628 174.476 135.614 176.05C135.573 181.855 135.524 187.339 139.416 200.215C140.043 202.269 140.697 204.391 141.338 206.417C145.787 220.595 149.996 233.985 147.537 251.188C146.118 261.053 143.218 270.89 140.649 279.57C138.039 288.435 135.965 295.466 136.351 299.649C135.614 306.542 138.28 309.233 139.561 310.561C139.726 310.732 139.953 310.958 140.008 311.04C140.491 311.8 142.254 313.381 146.276 316.886C147.654 318.077 149.08 319.316 149.403 319.665C150.209 320.514 154.769 324.772 165.934 324.772H166.898H167.002C168.443 324.613 169.774 323.928 170.735 322.849C170.84 322.728 170.956 322.616 171.079 322.513C171.636 322.058 172.313 321.773 173.029 321.692C173.305 321.697 173.575 321.771 173.816 321.906C174.056 322.041 174.259 322.233 174.406 322.465C176.018 324.464 176.583 329.003 173.869 331.659C173.376 331.962 172.809 332.126 172.23 332.131C171.251 332.072 170.326 331.663 169.626 330.981L169.447 330.79L169.206 330.673C167.783 330.101 166.257 329.824 164.722 329.859C162.881 329.871 161.056 330.202 159.329 330.838L157.565 331.467L158.695 332.953C159.983 334.644 165.163 337.512 167.587 337.601H168.18C169.406 337.601 169.998 337.403 170.59 336.793L170.707 336.684C171.075 336.372 171.529 336.179 172.009 336.129C172.221 336.133 172.429 336.187 172.615 336.287C173.304 336.971 173.993 341.674 173.015 344.05C172.673 344.744 172.16 345.341 171.522 345.784C170.885 346.227 170.145 346.502 169.371 346.583C169.257 346.586 169.143 346.569 169.034 346.535V346.535C167.291 344.481 164.729 341.873 162.414 340.935C159.818 339.887 152.572 339.511 152.51 339.511H151.552L151.208 340.374C150.898 341.133 151.05 341.585 153.192 344.276C154.144 345.5 155.165 346.67 156.25 347.781L156.512 348.027L156.87 348.116C157.411 348.228 157.963 348.276 158.516 348.26C159.384 348.26 160.279 348.26 160.706 348.718C161.133 349.177 161.25 349.882 161.216 350.998C161.133 354.181 159.949 357.392 157.497 357.392C156.58 357.344 155.691 357.071 154.907 356.598C153.846 355.229 153.756 354.873 153.529 354.065C153.447 353.764 153.343 353.38 153.178 352.894C153.054 352.525 152.951 352.21 152.861 351.881C152.565 350.487 151.829 349.223 150.76 348.273C150.485 348.027 149.996 347.589 149.383 346.952C147.013 344.659 142.612 340.38 139.271 338.375L137.205 337.142V339.525C137.205 339.908 137.067 348.944 137.067 349.643C137.067 350.491 137.109 353.36 137.66 354.346C138.107 355.14 139.85 358.925 139.595 361.492C139.34 364.06 138.479 365.983 137.336 366.476H137.288C136.463 366.298 135.73 365.831 135.221 365.162C134.855 364.784 134.575 364.332 134.399 363.837C134.223 363.342 134.156 362.816 134.202 362.293C134.36 361.191 134.457 360.37 134.533 359.774C134.542 359.067 134.694 358.368 134.98 357.72C135.628 356.433 135.373 354.469 135.132 353.1V352.997C135.129 352.947 135.129 352.896 135.132 352.846C134.588 348.123 133.169 344.282 131.041 341.736C130.799 341.38 130.352 340.627 129.863 339.894C128.354 337.478 128.01 336.971 127.707 336.704C127.278 336.332 126.727 336.127 126.157 336.129C125.811 336.11 125.465 336.178 125.152 336.326C124.839 336.474 124.569 336.699 124.366 336.978C123.553 337.724 118.856 340.887 117.609 341.318C116.443 341.756 115.249 342.115 114.035 342.393C113.512 342.388 113.001 342.548 112.576 342.851C112.151 343.154 111.835 343.583 111.672 344.077C111.637 344.169 111.607 344.263 111.582 344.358C111.321 345.261 110.639 347.609 106.244 347.781C105.678 347.218 105.244 346.538 104.975 345.788C104.706 345.039 104.608 344.239 104.688 343.447C104.819 341.394 105.735 339.826 106.623 339.217C107.074 339.103 107.536 339.041 108.001 339.032C108.365 339.009 108.728 339.082 109.055 339.244L109.303 339.545L109.778 339.641C110.347 339.755 110.926 339.814 111.507 339.819C111.954 339.863 112.405 339.807 112.827 339.654C113.249 339.501 113.631 339.256 113.945 338.936C114.503 338.416 118.126 336.198 121.205 334.425L121.894 334.034V333.281C121.997 323.739 122.21 305.57 122.259 304.242C122.383 303.188 124.277 287.272 124.979 281.966C125.296 279.577 125.716 274.121 126.15 268.337C126.639 261.95 127.307 253.208 127.659 252.071C128.167 250.727 128.402 249.296 128.347 247.861C128.347 247.567 128.347 247.307 128.347 247.101C128.409 246.204 128.389 244.671 128.347 242.891V241.652C128.347 239.982 127.604 236.018 126.192 229.871C125.613 227.345 122.996 213.003 122.892 211.531C122.892 211.1 122.803 210.162 122.141 205.733C121.542 201.749 120.805 196.786 120.688 194.622C120.482 190.837 120.482 179.562 120.482 179.446V173.024C120.523 172.449 120.695 169.204 119.793 167.39C119.477 166.811 119.122 166.253 118.732 165.72C117.664 164.173 116.197 162.051 116.301 159.833C116.269 158.799 116.116 157.772 115.846 156.773C115.047 152.966 113.711 146.586 117.32 142.137C120.158 138.638 125.675 136.79 133.727 136.66L133.72 136.653ZM134.298 135.291C105.576 135.496 115.102 156.177 114.93 159.778C114.758 163.379 117.768 166.411 118.553 167.993C119.338 169.574 119.097 172.976 119.097 172.976V179.446C119.097 179.446 119.097 190.83 119.304 194.691C119.51 198.552 121.618 210.881 121.508 211.449C121.398 212.017 124.263 227.728 124.842 230.172C125.42 232.616 126.908 239.42 126.963 241.666C127.018 243.911 127.032 245.965 126.963 247.012C126.894 248.06 127.08 249.935 126.384 251.558C125.689 253.18 124.352 276.25 123.629 281.788C122.906 287.326 120.874 304.133 120.874 304.133C120.826 305.283 120.509 333.268 120.509 333.268C120.509 333.268 113.47 337.341 112.891 338.06C112.7 338.215 112.48 338.331 112.244 338.4C112.007 338.47 111.759 338.491 111.514 338.464C111.028 338.458 110.544 338.409 110.067 338.32C110.067 338.32 109.544 337.676 108.001 337.676C107.347 337.687 106.697 337.779 106.065 337.95C103.234 339.573 101.705 346.165 105.755 349.177C112.106 349.122 112.74 345.07 112.953 344.529C113.021 344.294 113.167 344.089 113.367 343.948C113.567 343.806 113.81 343.736 114.055 343.748C115.414 343.476 116.748 343.091 118.043 342.598C119.724 342.023 125.262 338.197 125.468 337.806C125.534 337.699 125.627 337.612 125.739 337.554C125.851 337.496 125.976 337.47 126.102 337.478C126.332 337.473 126.555 337.553 126.729 337.704C127.08 338.012 129.25 341.633 129.883 342.537C133.176 346.439 133.665 352.805 133.734 353.189C133.803 353.572 134.298 355.975 133.734 357.091C133.169 358.207 133.313 358.761 132.824 362.102C132.384 365.1 135.435 367.852 137.274 367.852C137.472 367.856 137.67 367.819 137.853 367.743C139.533 367.01 140.608 364.765 140.952 361.629C141.296 358.494 139.203 354.304 138.886 353.682C138.569 353.059 138.466 350.334 138.466 349.643C138.466 348.951 138.603 339.545 138.603 339.545C142.626 341.969 148.474 348.027 149.851 349.3C151.229 350.574 151.229 351.457 151.917 353.339C152.606 355.222 152.2 355.283 153.984 357.652C155.036 358.329 156.251 358.714 157.503 358.768C160.858 358.768 162.497 355.051 162.6 351.039C162.738 345.816 158.888 347.212 157.207 346.795C155.74 345.426 152.165 340.873 152.517 340.873C152.868 340.873 159.659 341.291 161.898 342.201C164.136 343.112 166.802 346.028 167.994 347.418C168.17 347.6 168.385 347.742 168.623 347.833C168.861 347.924 169.117 347.963 169.371 347.945C170.419 347.865 171.427 347.51 172.291 346.916C173.155 346.322 173.845 345.51 174.289 344.563C175.412 341.825 174.854 335.931 173.311 335.096C172.913 334.874 172.465 334.756 172.009 334.753C171.229 334.795 170.483 335.086 169.881 335.582C169.378 335.958 169.55 336.225 168.18 336.225H167.635C165.679 336.157 160.844 333.487 159.79 332.118C161.369 331.537 163.038 331.234 164.722 331.221C166.054 331.191 167.379 331.423 168.62 331.905C169.579 332.867 170.868 333.435 172.23 333.494C173.112 333.486 173.973 333.224 174.709 332.741C178.215 329.475 177.464 324.04 175.481 321.603C175.206 321.214 174.844 320.895 174.423 320.672C174.002 320.448 173.533 320.326 173.056 320.316C172.048 320.39 171.087 320.767 170.301 321.397C169.53 321.952 169.247 322.999 166.795 323.417H165.962C155.837 323.417 151.36 319.761 150.409 318.741C149.458 317.721 141.889 311.444 141.152 310.28C140.415 309.116 136.847 307.357 137.708 299.628C136.868 291.899 145.973 271.431 148.866 251.352C151.759 231.274 145.608 215.981 140.718 199.798C135.828 183.615 137.274 179.432 136.936 170.977C136.599 162.523 139.141 153.747 140.091 147.791C141.042 141.835 134.278 135.264 134.278 135.264L134.298 135.291Z" fill="black"/>
<path id="Vector_20" d="M127.349 250.079L136.034 235.525" stroke="black" stroke-width="2" stroke-miterlimit="10"/>
<path id="Vector_21" d="M151.711 340.524C151.711 340.524 144.782 330.345 145.464 325.067" stroke="black" stroke-width="2" stroke-miterlimit="10"/>
<path id="Vector_22" d="M159.067 332.535C159.067 332.535 150.608 328.257 150.216 323.923" stroke="black" stroke-width="2" stroke-miterlimit="10"/>
<path id="Vector_23" d="M137.687 338.142C137.846 338.176 138.982 332.727 137.129 331.454" stroke="black" stroke-width="2" stroke-miterlimit="10"/>
<g id="HAND">
<path id="Vector_24" d="M63.7121 135.441C63.7121 135.441 60.0409 137.55 58.5669 139.138C57.0929 140.726 52.4092 148.783 51.5689 153.24C51.2176 158.6 52.6847 166.466 55.4881 171.196C58.2914 175.926 60.8123 175.933 62.4241 179.692C64.0358 183.45 70.7583 195.841 73.4446 206.006C76.6681 216.59 80.1464 227.447 80.6492 229.679C81.152 231.91 84.5546 244.561 90.5401 247.08C96.5256 249.6 103.703 244.856 103.703 244.856L124.132 230.651L147.612 214.639C150.665 213.309 154.027 212.835 157.331 213.27C160.134 215.775 165.176 213.954 166.161 212.989C167.146 212.024 167.704 211.387 168.682 211.942C169.24 212.852 173.022 213.612 175.405 212.222C177.788 210.833 177.719 206.095 177.719 206.095C178.138 205.353 178.63 204.654 179.186 204.007C179.537 203.802 181.252 200.585 177.994 197.675C177.994 197.675 177.616 196.806 178.036 196.594C178.456 196.381 183.498 196.491 184.125 196.491C184.751 196.491 186.019 198.209 186.487 198.894C186.956 199.578 189.587 200.947 190.744 198.476C191.901 196.005 191.536 191.062 190.744 190.432C189.952 189.803 189.015 189.748 189.745 188.817C190.475 187.886 191.006 184.114 190.165 182.389C189.325 180.664 187.279 179.082 186.356 179.527C185.433 179.972 183.601 182.813 181.948 183.231C180.295 183.648 172.987 184.251 168.049 183.635C163.11 183.019 163.482 182.95 161.56 182.005C159.639 181.061 156.883 180.438 155.465 182.218C154.046 183.998 153.681 183.991 152.627 185.298C151.573 186.606 151.938 189.262 151.89 190.09C151.842 190.918 143.432 198.394 140.229 200.359C137.026 202.323 117.637 215.419 115.749 216.336C113.862 217.254 109.73 219.677 108.689 219.992C107.649 220.307 102.401 208.608 101.457 206.52C100.514 204.432 96.6358 199.626 95.1549 195.245C93.674 190.864 88.3222 180.869 84.8577 165.377C81.3931 149.886 93.5501 137.023 63.7121 135.441Z" fill="#7CC243"/>
<path id="Vector_25" d="M64.0565 136.831C73.0589 137.345 78.452 138.885 81.0074 141.753C83.4663 144.492 83.239 148.339 82.9566 153.233C82.7362 156.964 82.4951 161.188 83.4939 165.652C85.5015 174.406 88.3477 182.95 91.9934 191.165C92.8062 193.068 93.4467 194.588 93.8118 195.677C94.8174 198.675 96.8011 201.721 98.3991 204.172C99.0436 205.108 99.6346 206.079 100.169 207.082L100.266 207.294C106.63 221.368 107.505 221.368 108.614 221.368C108.766 221.37 108.917 221.347 109.061 221.3C110.619 220.649 112.129 219.889 113.58 219.027C114.641 218.452 115.646 217.905 116.335 217.562C117.396 217.035 122.534 213.653 130.214 208.546C135.035 205.363 139.533 202.385 140.917 201.53C143.454 199.811 145.864 197.914 148.129 195.855C153.164 191.419 153.205 190.748 153.24 190.214C153.24 189.974 153.24 189.7 153.24 189.351C153.24 188.53 153.171 186.818 153.681 186.182C154.005 185.764 154.359 185.37 154.741 185.004C155.385 184.407 155.979 183.759 156.518 183.067C156.704 182.849 156.94 182.68 157.207 182.574C157.473 182.468 157.762 182.428 158.047 182.458C159.055 182.505 160.041 182.771 160.933 183.238L161.505 183.519C163.069 184.32 163.441 184.422 167.876 185.004C169.65 185.21 171.435 185.306 173.221 185.292C176.264 185.33 179.304 185.101 182.306 184.607C183.76 184.244 185.061 182.868 186.06 181.759C186.329 181.472 186.673 181.075 186.887 180.904C187.778 181.368 188.5 182.098 188.953 182.992C189.559 184.224 189.132 187.339 188.691 187.975C188.482 188.211 188.327 188.489 188.236 188.791C188.146 189.092 188.123 189.41 188.168 189.721C188.259 190.04 188.42 190.335 188.639 190.584C188.858 190.834 189.13 191.032 189.435 191.165L189.766 191.364C190.151 192.281 190.365 195.998 189.497 197.847C189.208 198.463 188.891 198.463 188.719 198.463C188.31 198.442 187.919 198.291 187.603 198.032C185.785 195.43 184.848 195.074 184.125 195.074H183.532C182.912 195.074 181.948 195.074 180.998 195.074C178.112 195.074 177.767 195.17 177.416 195.348C176.465 195.82 176.19 196.97 176.727 198.203L176.844 198.47L177.065 198.661C179.276 200.674 178.442 202.625 178.229 202.988C177.553 203.702 176.98 204.506 176.527 205.377L176.328 205.712V206.096C176.328 207.383 175.963 210.278 174.695 211.025C173.926 211.427 173.064 211.625 172.195 211.6C171.364 211.63 170.538 211.463 169.784 211.114L169.653 210.908L169.35 210.737C168.934 210.489 168.459 210.354 167.973 210.347C166.829 210.347 166.086 211.093 165.293 211.88L165.169 211.997C163.942 212.762 162.52 213.161 161.071 213.147C160.046 213.201 159.036 212.874 158.24 212.229L157.944 211.962L157.545 211.894C156.695 211.755 155.836 211.687 154.975 211.689C152.227 211.715 149.513 212.3 146.999 213.407L146.903 213.448L146.813 213.51L123.34 229.501L102.938 243.713C102.897 243.713 98.7572 246.451 94.3835 246.451C93.2508 246.463 92.1269 246.252 91.0773 245.828C86.2146 243.774 82.812 232.999 81.9648 229.398C81.6342 227.927 80.112 223.025 78.1903 216.823C77.1227 213.4 75.9104 209.484 74.7464 205.658C72.68 197.765 68.203 188.543 65.5305 183.067C64.7108 181.369 64.0565 180.034 63.6915 179.179C62.9461 177.445 61.7849 175.92 60.3095 174.736C58.8673 173.533 57.6441 172.093 56.6934 170.478C53.9383 165.877 52.6641 158.197 52.9534 153.364C53.8006 149.099 58.381 141.322 59.6001 140.008C60.9714 138.776 62.4725 137.695 64.0772 136.783L64.0565 136.831ZM63.7328 135.414C63.7328 135.414 60.0409 137.55 58.5669 139.138C57.0929 140.726 52.4092 148.784 51.5689 153.24C51.2176 158.6 52.6847 166.466 55.4881 171.197C58.2914 175.927 60.8123 175.934 62.4241 179.692C64.0358 183.45 70.7583 195.841 73.4446 206.007C76.6681 216.59 80.1464 227.447 80.6492 229.679C81.152 231.911 84.5546 244.562 90.5401 247.081C91.7588 247.579 93.0659 247.828 94.3835 247.813C99.205 247.813 103.703 244.856 103.703 244.856L124.132 230.651L147.612 214.639C149.941 213.631 152.449 213.098 154.989 213.071C155.774 213.068 156.557 213.132 157.331 213.263C158.381 214.134 159.719 214.585 161.085 214.53C163.337 214.53 165.548 213.592 166.161 212.982C166.85 212.257 167.38 211.73 167.987 211.73C168.23 211.736 168.468 211.807 168.675 211.935C169.013 212.483 170.528 212.982 172.202 212.982C173.316 213.01 174.419 212.746 175.398 212.216C177.781 210.847 177.712 206.089 177.712 206.089C178.131 205.347 178.623 204.648 179.179 204.001C179.53 203.796 181.246 200.578 177.988 197.669C177.988 197.669 177.609 196.799 178.029 196.587C179.011 196.459 180.002 196.416 180.991 196.457C182.368 196.457 183.808 196.457 184.118 196.457C184.751 196.457 186.012 198.175 186.48 198.86C186.767 199.164 187.112 199.408 187.496 199.577C187.879 199.746 188.293 199.838 188.712 199.846C189.153 199.845 189.584 199.71 189.946 199.459C190.308 199.208 190.584 198.854 190.737 198.442C191.894 195.985 191.529 191.028 190.737 190.399C189.945 189.769 189.008 189.714 189.738 188.783C190.468 187.852 190.999 184.08 190.158 182.355C189.428 180.897 187.734 179.466 186.763 179.466C186.624 179.449 186.483 179.47 186.356 179.528C185.468 179.993 183.601 182.814 181.948 183.231C179.055 183.7 176.125 183.915 173.194 183.875C171.465 183.888 169.738 183.797 168.021 183.601C163.082 182.971 163.454 182.916 161.512 181.978C160.429 181.424 159.237 181.111 158.02 181.061C157.527 181.034 157.035 181.122 156.583 181.318C156.131 181.514 155.731 181.813 155.416 182.191C153.997 183.964 153.632 183.964 152.579 185.271C151.525 186.579 151.89 189.235 151.842 190.063C151.793 190.891 143.383 198.367 140.18 200.332C136.978 202.296 117.588 215.392 115.701 216.309C113.814 217.227 109.681 219.65 108.641 219.965H108.6C107.47 219.965 102.346 208.546 101.409 206.486C100.472 204.425 96.5876 199.592 95.1067 195.211C93.6258 190.83 88.274 180.835 84.8095 165.343C81.3449 149.852 93.5501 137.023 63.7121 135.442L63.7328 135.414Z" fill="black"/>
<path id="Vector_26" d="M96.5462 225.271L96.3809 223.901C100.705 223.364 104.889 222.027 108.717 219.958L109.406 221.129C105.424 223.311 101.059 224.717 96.5462 225.271Z" fill="black"/>
<path id="Vector_27" d="M161.622 191.665C161.612 191.473 161.642 191.282 161.711 191.103C161.779 190.923 161.885 190.76 162.022 190.624C162.958 189.639 165.466 189.591 166.01 189.591L188.884 188.687L188.939 190.056L166.044 190.96C164.501 190.96 163.124 191.309 162.993 191.597L161.622 191.665Z" fill="black"/>
<path id="Vector_28" d="M165.163 198.696L163.785 198.586C163.806 198.359 163.874 198.138 163.984 197.938C164.094 197.738 164.245 197.563 164.426 197.422C166.733 195.492 176.087 196.327 177.148 196.43L177.017 197.799C173.235 197.436 166.685 197.306 165.307 198.483C165.176 198.579 165.17 198.655 165.163 198.696Z" fill="black"/>
<path id="Vector_29" d="M176.975 205.829C176.693 205.61 169.887 200.414 163.771 204.706L162.979 203.583C169.943 198.702 177.753 204.692 177.829 204.754L176.975 205.829Z" fill="black"/>
<path id="Vector_30" d="M169.278 207.383L166.811 210.619L167.908 211.446L170.376 208.21L169.278 207.383Z" fill="black"/>
</g>
<g id="CROWN">
<path id="Vector_31" d="M74.4844 60.6046V64.6367H77.0053L82.7497 56.2097L74.4844 60.6046Z" fill="#FCD000"/>
<path id="Vector_32" d="M79.9809 58.6947L76.537 63.74H75.3799V61.1386L79.9809 58.6947ZM82.7361 56.2097L74.4707 60.6046V64.6299H76.9985L82.743 56.2097H82.7361Z" fill="black"/>
<path id="Vector_33" d="M117.988 58.0033L121.976 63.9522C122.391 64.0724 122.834 64.0507 123.235 63.8906C123.636 63.7305 123.971 63.4412 124.187 63.0691C124.187 63.0691 125.103 60.2487 124.228 59.304C122.809 58.9138 117.988 58.0033 117.988 58.0033Z" fill="#FCD000"/>
<path id="Vector_34" d="M119.923 59.2834C121.211 59.5367 122.775 59.8585 123.656 60.0775C123.76 60.9452 123.666 61.825 123.381 62.6515C123.281 62.7909 123.151 62.9071 123.001 62.9922C122.851 63.0772 122.685 63.1292 122.513 63.1444L119.923 59.2834ZM117.988 58.0033L121.976 63.9522C122.14 64.0086 122.312 64.0364 122.486 64.0343C122.827 64.0259 123.162 63.9333 123.459 63.7648C123.756 63.5964 124.006 63.3573 124.187 63.0691C124.187 63.0691 125.103 60.2487 124.228 59.304C122.809 58.9138 117.988 58.0033 117.988 58.0033Z" fill="black"/>
<path id="Vector_35" d="M93.8185 60.0913H105.638L109.213 55.5663L90.6157 54.6079C90.6157 54.6079 93.5568 58.8385 93.8185 60.0913Z" fill="#FCD000"/>
<path id="Vector_36" d="M92.3723 55.6211L107.443 56.4015L105.204 59.2356H94.4524C93.8486 57.9847 93.1582 56.777 92.3861 55.6211H92.3723ZM90.6159 54.6079C90.6159 54.6079 93.5295 58.8386 93.7912 60.0845H105.611L109.185 55.5595L90.5884 54.6011L90.6159 54.6079Z" fill="black"/>
<path id="Vector_37" d="M72.535 73.2693C72.4366 73.2811 72.3372 73.2811 72.2388 73.2693C70.2138 70.9007 70.4824 67.56 72.9276 65.2393C76.6952 63.6853 92.9022 60.7349 100.899 60.7349H101.381C109.226 60.8512 124.841 64.2398 125.681 64.4247C129.201 65.5953 129.036 67.6901 128.891 69.5384C128.829 70.0294 128.829 70.5261 128.891 71.0171C128.895 71.1728 128.867 71.3276 128.809 71.4723C128.751 71.617 128.664 71.7485 128.553 71.8591C128.254 72.1912 127.889 72.4585 127.482 72.6446C127.074 72.8307 126.633 72.9315 126.184 72.9407C125.771 72.9457 125.365 72.8341 125.013 72.6189L124.944 72.5779H124.869C114.902 69.2167 107.139 67.7859 98.0612 67.5258H97.6755C92.8885 67.5258 86.0902 69.5795 80.6213 71.2704C76.9914 72.3177 73.8988 73.2693 72.535 73.2693Z" fill="#C00000"/>
<path id="Vector_38" d="M100.865 61.392H101.34C109.02 61.5083 124.304 64.8148 125.447 65.0544C128.423 66.0539 128.299 67.6352 128.154 69.4562C128.085 69.9925 128.085 70.5354 128.154 71.0718C127.948 71.4239 127.652 71.716 127.297 71.919C126.942 72.1221 126.539 72.2288 126.129 72.2287C125.845 72.2329 125.566 72.1569 125.323 72.0096L125.186 71.9275L125.034 71.8727C114.998 68.4909 107.174 67.0123 98.0269 66.7864H97.6205C92.7302 66.7864 85.8768 68.8811 80.401 70.5652C77.0605 71.5852 73.899 72.5504 72.6109 72.5778C71.0199 70.5241 71.2816 67.7858 73.2997 65.7869C76.9227 64.3698 92.5856 61.3851 100.885 61.3851L100.865 61.392ZM100.885 60.016C92.5373 60.016 76.0893 63.0692 72.5283 64.6231C69.6561 67.3066 69.4701 71.1539 71.8395 73.7963C72.0614 73.9135 72.3122 73.9657 72.5627 73.9469C76.1719 73.9469 89.7822 68.1555 97.655 68.1555H98.0269C106.499 68.3677 114.103 69.6205 124.628 73.1734C125.09 73.454 125.622 73.601 126.164 73.5978C127.968 73.5978 129.766 72.1123 129.546 70.8595C129.263 69.2577 131.047 65.4241 125.847 63.7195C125.847 63.7195 109.564 60.1324 101.381 60.0092L100.885 60.016Z" fill="black"/>
<path id="Vector_39" d="M73.0724 53.3347C79.0538 49.9068 85.7103 47.805 92.5855 47.1736C103.331 47.0504 112.829 47.8582 121.514 50.1172C129.897 53.0746 128.216 54.9092 128.216 54.9092C128.216 54.9092 129.477 59.5026 126.467 59.7833C122.892 59.3657 116.59 56.7164 115.749 56.1619C114.909 55.6074 110.494 54.7928 109.233 55.6074C107.27 55.3952 91.9312 54.9229 91.9312 54.9229C91.9312 54.9229 87.1717 53.6017 84.2237 55.4089C81.2758 57.2162 74.2778 60.7691 74.2778 60.7691C73.6764 60.7698 73.0887 60.5915 72.5903 60.2572C72.0918 59.9229 71.7056 59.4479 71.4813 58.8934C70.6892 56.8876 71.3298 53.3347 73.0724 53.3347Z" fill="#C00000"/>
<path id="Vector_40" d="M74.2366 61.3989C73.494 61.4063 72.7669 61.1888 72.1517 60.7755C71.5365 60.3622 71.0625 59.7726 70.7927 59.085C70.4828 58.2029 70.3643 57.2655 70.445 56.3346C70.5257 55.4036 70.8038 54.5003 71.261 53.6838C71.4293 53.4078 71.6578 53.1729 71.9296 52.9964C72.2014 52.8199 72.5096 52.7062 72.8314 52.6638C78.8655 49.2257 85.5758 47.124 92.503 46.5027C104.123 46.3726 113.373 47.3105 121.638 49.4669C126.198 51.0756 128.574 52.5748 128.946 54.0672C129.027 54.3705 129.01 54.6912 128.898 54.9845C129.077 55.7717 129.449 57.9555 128.492 59.3383C128.263 59.6621 127.962 59.9301 127.614 60.1221C127.266 60.3142 126.878 60.4254 126.481 60.4473H126.336C122.658 60.0161 116.225 57.3189 115.315 56.7164C114.565 56.2236 110.494 55.5458 109.564 56.1619L109.357 56.2989H109.109C107.202 56.0935 92.014 55.6143 91.89 55.6143H91.7247C91.6833 55.6143 87.2132 54.4026 84.5683 56.025C81.634 57.8323 74.8633 61.2688 74.5741 61.4126L74.4363 61.481H74.2366V61.3989ZM73.0725 54.0192C72.983 54.0192 72.7281 54.0192 72.4251 54.4574C72.0937 55.0844 71.8942 55.7719 71.8385 56.478C71.7829 57.1841 71.8723 57.8941 72.1013 58.5648C72.2621 58.9704 72.5362 59.3219 72.8913 59.5778C73.2465 59.8337 73.6678 59.9834 74.1057 60.0092C75.1526 59.4684 81.2001 56.381 83.845 54.7517C86.8206 52.9239 91.3183 53.985 92.014 54.1699C93.2951 54.2041 106.478 54.6285 109.068 54.8544C110.811 54.0466 115.143 54.9023 116.107 55.539C116.927 56.0798 122.995 58.6127 126.439 59.0371C126.625 59.0262 126.805 58.9737 126.967 58.8836C127.13 58.7935 127.269 58.6681 127.376 58.5168C128.023 57.5927 127.7 55.6896 127.521 55.0324L127.424 54.6696L127.638 54.4368C127.634 54.3675 127.615 54.2999 127.583 54.2383C127.369 53.7796 126.322 52.52 121.26 50.7333C113.173 48.6249 104.04 47.7007 92.5857 47.8308C85.8368 48.4681 79.3045 50.5389 73.4307 53.9029L73.2585 54.0056L73.0725 54.0192Z" fill="black"/>
<g id="CROWN_2">
<path id="Vector_41" d="M122.244 35.0841C122.244 35.0841 118.387 25.1511 118.532 19.5102C118.379 17.7953 118.379 16.0703 118.532 14.3554C118.814 14.3554 114.33 15.1222 114.124 13.7325C114.124 13.7325 113.566 21.6666 110.549 25.774C109.508 27.5952 108.073 29.1641 106.347 30.3675C103.592 32.1816 96.4703 32.5991 92.7578 30.9288C90.0991 28.6287 87.9983 26.2601 86.7723 22.6455C85.5462 19.031 84.637 13.9379 84.7059 12.8289C84.7059 12.8289 79.8845 13.7325 79.5194 12.8289C80.9417 19.3185 80.1139 26.0954 77.1707 32.0583C72.239 41.9777 73.1826 41.9298 73.1826 41.9298L92.5649 42.3474L125.261 44.9213L122.244 35.0841Z" fill="#BF9000"/>
<path id="Vector_42" d="M83.4387 14.4033C83.8671 17.343 84.5421 20.242 85.4569 23.0699C86.8758 27.2526 89.3622 29.8129 91.8487 31.9693L92.0003 32.0993L92.1862 32.1815C94.2983 33.0181 96.5603 33.4165 98.833 33.3521C101.492 33.3521 105.032 32.8729 107.098 31.5106C108.987 30.2032 110.56 28.4966 111.706 26.5133C113.924 23.4327 114.875 18.6065 115.254 15.8751C115.614 15.9244 115.978 15.9473 116.342 15.9436H117.031C117.031 17.5318 117.12 19.2021 117.148 19.5786C117.044 25.2879 120.592 34.7144 120.936 35.5564L123.347 43.4221L92.6822 40.9713H92.6064L74.8083 40.5606C75.862 37.8556 77.0623 35.2093 78.4038 32.6333C81.183 27.038 82.1663 20.7295 81.2209 14.5607C81.963 14.5389 82.7033 14.4771 83.4387 14.3759V14.4033ZM84.6992 12.7946C83.4824 13.0171 82.2507 13.1499 81.0142 13.1916C80.2428 13.1916 79.6367 13.0958 79.5127 12.7946C80.9349 19.2842 80.1072 26.0611 77.164 32.024C72.2805 41.8407 73.1553 41.8955 73.1759 41.8955L92.5582 42.3131L125.255 44.8871L122.245 35.0841C122.245 35.0841 118.387 25.151 118.532 19.5102C118.379 17.7998 118.379 16.0794 118.532 14.3691C117.814 14.4984 117.086 14.5649 116.356 14.5676C115.295 14.5676 114.22 14.3964 114.124 13.7324C114.124 13.7324 113.566 21.6665 110.549 25.7739C109.508 27.5952 108.073 29.164 106.348 30.3674C104.791 31.4011 101.809 31.9761 98.8399 31.9761C96.7625 32.0351 94.6943 31.6789 92.7579 30.9287C90.0992 28.6286 87.9985 26.26 86.7724 22.6455C85.5464 19.031 84.6372 13.9378 84.7061 12.8288L84.6992 12.7946Z" fill="black"/>
<path id="Vector_43" d="M126.653 51.7327L136.984 14.9783C136.984 14.9783 131.206 14.2458 131.309 12.9246C131.309 12.9246 127.107 25.8698 124.586 29.32C122.065 32.7702 118.856 38.2673 115.935 38.37C113.015 38.4726 107.429 36.8023 106.058 29.0735C104.688 21.3448 102.911 10.4875 102.911 8.97464C102.911 8.97464 95.8712 10.3849 95.8712 8.29008C95.8712 6.1953 95.451 27.3963 92.9301 31.4695C90.4091 35.5427 89.8788 39.0956 82.9428 37.9455C77.1639 34.6048 70.0212 23.0151 68.134 13.7187C68.134 13.7187 64.876 17.3743 63.5054 16.6418L72.6524 52.561C72.6524 52.561 84.2032 47.9676 93.8737 46.927C104.102 46.8175 110.404 47.2351 117.829 49.2203C123.712 50.8975 126.233 51.3151 126.653 51.7327Z" fill="#FFC000"/>
<path id="Vector_44" d="M101.678 10.563C102.201 14.821 104.006 25.3497 104.701 29.3133C106.079 37.0078 111.465 39.7461 115.681 39.7461H115.984C119.076 39.6366 121.694 35.8304 124.249 32.1543C124.759 31.4218 125.234 30.7235 125.695 30.1006C127.762 27.3144 130.689 19.0106 131.977 15.2249C133.026 15.6428 134.119 15.9413 135.235 16.1148L125.744 49.9188L123.932 49.4464C122.555 49.0973 120.681 48.6112 118.195 47.9061C111.644 46.1673 105.996 45.5512 96.5944 45.5512C95.7197 45.5512 94.8036 45.5512 93.8393 45.5512H93.7015C85.8908 46.3932 77.0331 49.4464 73.5823 50.7197L65.2067 17.7852C65.982 17.4312 66.7031 16.9703 67.3488 16.4161C69.918 25.5208 76.5922 35.8851 82.2334 39.1505L82.4469 39.2737L82.7017 39.3148C83.5662 39.4653 84.4415 39.5454 85.3191 39.5544C89.9821 39.5544 91.5181 36.7477 93.0265 34.0779C93.3572 33.4823 93.7153 32.8662 94.0804 32.2433C95.5406 29.8815 96.56 22.6593 97.111 10.7478C97.5986 10.8233 98.0915 10.8599 98.585 10.8574C99.6134 10.8441 100.64 10.7617 101.657 10.6109L101.678 10.563ZM95.8436 8.20125C95.8023 8.20125 95.3133 27.643 92.9094 31.5245C90.7122 35.0705 90.0303 38.2195 85.3329 38.2195C84.5292 38.2125 83.7274 38.1393 82.9359 38.0005C77.157 34.6598 70.0144 23.07 68.1271 13.7736C68.1271 13.7736 65.434 16.7926 63.9187 16.7926C63.7727 16.7965 63.6281 16.7636 63.4985 16.6967L72.6455 52.616C72.6455 52.616 84.1964 48.0225 93.8669 46.982C94.8036 46.982 95.7059 46.982 96.5806 46.982C105.252 46.982 111.045 47.4886 117.823 49.289C123.705 50.9593 126.226 51.3769 126.646 51.7945L136.978 15.0401C136.978 15.0401 131.199 14.3076 131.302 12.9864C131.302 12.9864 127.1 25.9315 124.58 29.3818C122.059 32.832 118.856 38.2674 115.935 38.3701H115.681C112.684 38.3701 107.415 36.5766 106.038 29.0669C104.66 21.3381 102.89 10.4809 102.89 8.96797C101.471 9.24231 100.031 9.39802 98.585 9.43347C97.1248 9.43347 95.8299 9.17334 95.8299 8.29025C95.8299 8.18756 95.8299 8.14648 95.8299 8.14648L95.8436 8.20125Z" fill="black"/>
<path id="Vector_45" d="M65.1308 5.64771C62.665 5.64771 60.6606 8.59134 60.6606 12.2264C60.6606 15.8614 62.665 18.8051 65.1308 18.8051C67.5967 18.8051 69.5941 15.8614 69.5941 12.2264C69.5941 8.59134 67.5691 5.64771 65.1308 5.64771Z" fill="#DAE3F3"/>
<path id="Vector_46" d="M65.1308 7.01684C66.777 7.01684 68.2166 9.4539 68.2166 12.2264C68.2166 14.9989 66.777 17.4359 65.1308 17.4359C63.4846 17.4359 62.0382 15.0057 62.0382 12.2264C62.0382 9.44705 63.4571 7.01684 65.1308 7.01684ZM65.1308 5.64771C62.665 5.64771 60.6606 8.59134 60.6606 12.2264C60.6606 15.8614 62.665 18.8051 65.1308 18.8051C67.5967 18.8051 69.5941 15.8614 69.5941 12.2264C69.5941 8.59134 67.5691 5.64771 65.1308 5.64771Z" fill="black"/>
<path id="Vector_47" d="M81.9645 2.17017C79.3127 2.17017 77.1431 5.21648 77.1431 8.97475C77.1431 12.733 79.2921 15.7793 81.9645 15.7793C84.637 15.7793 86.786 12.733 86.786 8.97475C86.786 5.21648 84.6163 2.17017 81.9645 2.17017Z" fill="#DAE3F3"/>
<path id="Vector_48" d="M81.9645 3.5393C83.8174 3.5393 85.4084 6.02427 85.4084 8.97475C85.4084 11.9252 83.838 14.4102 81.9645 14.4102C80.091 14.4102 78.5206 11.9184 78.5206 8.97475C78.5206 6.03111 80.091 3.5393 81.9645 3.5393ZM81.9645 2.17017C79.3127 2.17017 77.1431 5.21648 77.1431 8.97475C77.1431 12.733 79.2921 15.7793 81.9645 15.7793C84.637 15.7793 86.786 12.733 86.786 8.97475C86.786 5.21648 84.637 2.17017 81.9645 2.17017Z" fill="black"/>
<path id="Vector_49" d="M99.577 13.7324C102.072 13.7324 104.095 10.6583 104.095 6.86621C104.095 3.07411 102.072 0 99.577 0C97.0816 0 95.0586 3.07411 95.0586 6.86621C95.0586 10.6583 97.0816 13.7324 99.577 13.7324Z" fill="#DAE3F3"/>
<path id="Vector_50" d="M99.5697 1.36913C101.051 1.36913 102.711 3.62136 102.711 6.84567C102.711 10.07 101.051 12.3222 99.5697 12.3222C98.0888 12.3222 96.4288 10.0631 96.4288 6.84567C96.4288 3.62821 98.0819 1.36913 99.5697 1.36913ZM99.5697 0C97.0694 0 95.0513 3.07371 95.0513 6.84567C95.0513 10.6176 97.0694 13.6913 99.5697 13.6913C102.07 13.6913 104.088 10.6176 104.088 6.84567C104.088 3.07371 102.063 0 99.5697 0Z" fill="black"/>
<path id="Vector_51" d="M116.7 3.54614C114.22 3.54614 112.209 6.4761 112.209 10.0975C112.209 13.7188 114.22 16.6488 116.7 16.6488C119.179 16.6488 121.191 13.712 121.191 10.0975C121.191 6.48294 119.179 3.54614 116.7 3.54614Z" fill="#DAE3F3"/>
<path id="Vector_52" d="M116.7 4.91528C118.36 4.91528 119.813 7.3318 119.813 10.0975C119.813 12.8631 118.36 15.2796 116.7 15.2796C115.04 15.2796 113.587 12.8563 113.587 10.0975C113.587 7.33865 115.04 4.91528 116.7 4.91528ZM116.7 3.54614C114.22 3.54614 112.209 6.4761 112.209 10.0975C112.209 13.7188 114.22 16.6488 116.7 16.6488C119.179 16.6488 121.191 13.712 121.191 10.0975C121.191 6.48294 119.179 3.54614 116.7 3.54614Z" fill="black"/>
<path id="Vector_53" d="M134.884 17.5385C137.417 17.5385 139.471 14.682 139.471 11.1584C139.471 7.63469 137.417 4.7782 134.884 4.7782C132.35 4.7782 130.296 7.63469 130.296 11.1584C130.296 14.682 132.35 17.5385 134.884 17.5385Z" fill="#DAE3F3"/>
<path id="Vector_54" d="M134.884 6.14745C136.626 6.14745 138.093 8.44075 138.093 11.1585C138.093 13.8762 136.626 16.1695 134.884 16.1695C133.141 16.1695 131.674 13.8762 131.674 11.1585C131.674 8.44075 133.141 6.14745 134.884 6.14745ZM134.884 4.77832C132.349 4.77832 130.296 7.63296 130.296 11.1585C130.296 14.684 132.363 17.5386 134.884 17.5386C137.405 17.5386 139.471 14.6772 139.471 11.1585C139.471 7.63981 137.405 4.77832 134.884 4.77832Z" fill="black"/>
</g>
</g>
<g id="HEAD">
<g id="FACE">
<path id="Vector_55" d="M103.331 67.2591L96.6017 66.9853C96.6017 66.9853 94.9762 55.5188 89.4522 53.7663C83.3633 53.2666 81.8756 56.8469 79.6302 59.2018L76.5375 63.7405L75.6628 73.5982C75.013 74.1519 74.4408 74.7897 73.9615 75.4945C73.5413 76.2749 70.5176 80.7656 69.7048 84.7361C68.8921 88.7066 68.1344 96.3738 67.8176 97.7908C67.8176 97.7908 61.5152 100.05 60.7438 104.192C59.1321 108.299 56.8866 115.829 58.3606 121.6C59.8346 127.371 63.2441 134.285 63.616 135.223C65.2038 138.559 67.9159 141.237 71.2821 142.794C76.8406 145.3 83.8937 146.669 87.5718 151.776C91.2499 156.883 96.0782 158.875 101.347 159.19C106.617 159.505 111.968 157.417 111.968 157.417C116.922 154.028 121.257 149.823 124.787 144.985C125.31 144.78 129.408 137.297 134.312 135.278C134.312 135.278 135.394 133.909 136.379 134.059C137.364 134.21 142.819 131.376 146.883 117.944C148.426 112.372 147.826 98.9341 143.838 94.7582C139.85 90.5823 135.222 91.3354 133.121 92.2527C132.804 89.7472 128.038 77.7056 125.028 73.9405C125.028 73.5982 123.313 71.8184 123.313 71.8184L123.099 65.9722C122.811 64.6558 122.278 63.4045 121.529 62.2823C120.44 60.9132 119.717 57.771 117.851 56.6073C115.984 55.4435 113.332 54.4509 111.404 54.8C109.475 55.1492 108.249 55.2861 107.498 56.6415C106.747 57.997 105.308 59.0786 105.273 59.4962C105.239 59.9137 103.331 67.2591 103.331 67.2591Z" fill="#7CC243"/>
<path id="Vector_56" d="M88.343 55.087C88.6048 55.087 88.8872 55.087 89.1764 55.1212C92.9303 56.4904 94.8244 64.2602 95.2377 67.1696L95.403 68.2992L96.5464 68.3471L103.269 68.6277L104.392 68.6757L104.667 67.594C106.045 62.2476 106.417 60.5293 106.541 59.9406C106.637 59.8174 106.809 59.6325 106.947 59.4888C107.602 58.8331 108.174 58.0996 108.648 57.305C109.006 56.6684 109.461 56.5246 111.252 56.2097L111.596 56.1481C111.789 56.1137 111.985 56.0977 112.182 56.1002C113.926 56.2371 115.606 56.8118 117.065 57.7705C117.912 58.2976 118.553 59.6462 119.131 60.8442C119.477 61.6454 119.904 62.4093 120.406 63.1238C121.015 64.0471 121.451 65.0722 121.694 66.1496L121.9 71.8657V72.386L122.252 72.7557C122.738 73.259 123.198 73.7868 123.629 74.337V74.4808L123.884 74.7957C126.825 78.4718 131.412 90.26 131.681 92.4233L131.915 94.2648L133.617 93.4981C134.571 93.0957 135.597 92.8908 136.633 92.8956C137.798 92.9075 138.946 93.1637 140.004 93.6474C141.061 94.1311 142.004 94.8313 142.77 95.7024C146.214 99.3032 146.986 112.132 145.491 117.547C141.655 130.287 136.84 132.498 136.351 132.683H136.179C135.644 132.732 135.124 132.888 134.651 133.141C134.178 133.394 133.76 133.738 133.424 134.154C129.498 135.941 126.212 140.624 124.614 142.91C124.373 143.246 124.111 143.595 123.925 143.827L123.815 143.875L123.574 144.211C120.169 148.86 116.007 152.911 111.259 156.198C108.407 157.218 105.41 157.78 102.38 157.861C102.029 157.861 101.692 157.861 101.361 157.827C95.8507 157.505 91.718 155.267 88.6323 150.981C85.643 146.819 80.8147 145.019 76.1447 143.273C74.6087 142.705 73.1623 142.164 71.7985 141.548C68.761 140.123 66.306 137.707 64.8418 134.702C64.7592 134.49 64.5939 134.134 64.3253 133.532C63.2714 131.218 60.8056 125.789 59.6416 121.209C58.1676 115.452 60.778 107.703 61.9696 104.636L62.0178 104.52V104.39C62.5344 101.651 66.6602 99.5975 68.2169 99.0294L68.9056 98.7692L69.071 98.0367C69.2018 97.4548 69.3602 96.1952 69.6358 94.0115C69.9801 91.1979 70.4623 87.3369 70.9651 84.9683C71.6539 81.8399 73.7753 78.2801 74.6914 76.7535L75.0909 76.069C75.4825 75.5078 75.9456 74.9992 76.4684 74.5561L76.8817 74.1933L76.9299 73.6456L77.7702 64.1507L80.608 59.9885C81.0075 59.5572 81.3863 59.0986 81.7445 58.6536C83.3356 56.7026 84.7063 55.0185 88.2397 55.0185L88.343 55.087ZM88.2397 53.6494C83.067 53.6494 81.6067 56.9285 79.5266 59.1259L76.434 63.6646L75.5593 73.5224C74.9095 74.0761 74.3373 74.7139 73.858 75.4186C73.4378 76.199 70.4141 80.6898 69.6013 84.6603C68.7886 88.6308 68.0309 96.2979 67.7141 97.715C67.7141 97.715 61.4117 99.9741 60.6403 104.116C59.0285 108.223 56.7831 115.753 58.2571 121.524C59.7311 127.295 63.1406 134.209 63.5125 135.147C65.1003 138.483 67.8123 141.161 71.1786 142.718C76.8404 145.299 83.8935 146.668 87.5716 151.775C91.2497 156.882 96.078 158.874 101.347 159.189C101.712 159.189 102.077 159.223 102.449 159.223C105.7 159.143 108.916 158.532 111.968 157.416C116.921 154.027 121.256 149.823 124.786 144.984C125.31 144.779 129.408 137.297 134.312 135.277C134.312 135.277 135.29 134.045 136.199 134.045H136.344H136.413C137.536 134.045 142.881 131.053 146.848 117.923C148.391 112.351 147.792 98.913 143.804 94.7371C142.908 93.7318 141.81 92.9247 140.581 92.3681C139.352 91.8115 138.019 91.5178 136.668 91.506C135.436 91.4979 134.216 91.745 133.086 92.2316C132.769 89.7261 128.003 77.6846 124.993 73.9194C124.993 73.5772 123.278 71.7973 123.278 71.7973L123.064 65.9511C122.776 64.6348 122.244 63.3834 121.494 62.2613C120.406 60.8921 119.683 57.75 117.816 56.5862C116.137 55.4932 114.204 54.8473 112.202 54.7105C111.923 54.7086 111.644 54.7315 111.369 54.779C109.447 55.1281 108.214 55.265 107.464 56.6204C106.713 57.9759 105.273 59.0575 105.239 59.4751C105.204 59.8927 103.331 67.2586 103.331 67.2586L96.6015 66.9848C96.6015 66.9848 94.976 55.5183 89.452 53.7658C89.0662 53.7658 88.6943 53.7179 88.343 53.7179L88.2397 53.6494Z" fill="black"/>
<g id="EYES">
<g id="LEFT SIDE EYE">
<path id="Vector_57" d="M91.4608 98.2774C96.1249 97.5771 98.7618 89.4816 97.3504 80.1956C95.939 70.9095 91.0139 63.9494 86.3499 64.6496C81.6858 65.3498 79.0489 73.4453 80.4603 82.7314C81.8716 92.0174 86.7968 98.9776 91.4608 98.2774Z" fill="black"/>
<path id="Vector_58" d="M82.3848 86.3375L85.6083 83.5992H86.9376C86.9376 83.5992 86.483 89.3769 88.9144 90.0752C91.4904 90.0752 91.0772 90.9104 92.3583 86.8372V84.9889C92.3583 84.9889 87.7986 85.6187 88.9144 80.4639C90.23 78.5197 94.3627 73.1595 94.3627 73.1595C94.3627 73.1595 97.2349 83.1132 96.4634 87.6381C95.692 92.1631 95.4854 95.2437 91.3045 96.695C89.493 97.2631 85.6771 96.914 82.3848 86.3375Z" fill="white"/>
<path id="Vector_59" d="M82.0337 84.5919C82.0337 84.5919 88.1294 81.3197 93.5914 72.2697C93.5914 72.2697 90.361 66.1839 87.2202 65.9375C84.0794 65.691 82.1026 71.5783 82.0337 72.1328C81.9648 72.6873 80.7043 75.1996 82.0337 84.5919Z" fill="#7CC243"/>
</g>
<g id="RIGHT SIDE EYE">
<path id="Vector_60" d="M119.985 82.4362C121.074 73.1074 118.159 65.1068 113.473 64.5663C108.788 64.0258 104.106 71.1502 103.017 80.479C101.928 89.8078 104.843 97.8084 109.528 98.3488C114.214 98.8893 118.895 91.765 119.985 82.4362Z" fill="black"/>
<path id="Vector_61" d="M118.215 85.5984L114.771 83.1271L113.442 83.2229C113.442 83.2229 114.33 88.9527 111.954 89.829C109.385 90.0138 109.888 90.8216 108.262 86.8511L108.124 85.0165C108.124 85.0165 112.719 85.304 111.238 80.2245C109.778 78.3762 105.259 73.3378 105.259 73.3378C105.259 73.3378 103.138 83.4762 104.24 87.9327C105.342 92.3893 105.79 95.463 110.088 96.5788C111.968 97.0169 115.722 96.394 118.215 85.5984Z" fill="white"/>
<path id="Vector_62" d="M118.339 84.3728C118.339 84.3728 112.092 81.1759 106.417 72.1944C106.417 72.1944 109.633 66.0333 112.829 65.78C116.025 65.5267 118.105 71.3524 118.188 71.9411C118.27 72.5298 119.579 74.9395 118.339 84.3728Z" fill="#7CC243"/>
</g>
</g>
<g id="NOSE">
<path id="Vector_63" d="M102.629 116.369C109.096 116.369 114.338 111.159 114.338 104.732C114.338 98.3045 109.096 93.0941 102.629 93.0941C96.1618 93.0941 90.9194 98.3045 90.9194 104.732C90.9194 111.159 96.1618 116.369 102.629 116.369Z" fill="#7CC243"/>
<path id="Vector_64" d="M102.629 93.7787C105.551 93.7787 108.354 94.9327 110.421 96.9868C112.488 99.0409 113.649 101.827 113.649 104.732C113.649 107.637 112.488 110.423 110.421 112.477C108.354 114.531 105.551 115.685 102.629 115.685C99.7057 115.685 96.9026 114.531 94.8359 112.477C92.7691 110.423 91.608 107.637 91.608 104.732C91.608 101.827 92.7691 99.0409 94.8359 96.9868C96.9026 94.9327 99.7057 93.7787 102.629 93.7787V93.7787ZM102.629 92.4095C99.3403 92.4095 96.1869 93.7078 93.8618 96.0186C91.5367 98.3295 90.2305 101.464 90.2305 104.732C90.2305 108 91.5367 111.134 93.8618 113.445C96.1869 115.756 99.3403 117.054 102.629 117.054C105.917 117.054 109.07 115.756 111.395 113.445C113.72 111.134 115.027 108 115.027 104.732C115.027 101.464 113.72 98.3295 111.395 96.0186C109.07 93.7078 105.917 92.4095 102.629 92.4095Z" fill="black"/>
<path id="Vector_65" d="M98.8266 108.463C97.7658 108.463 97.263 107.046 97.1528 106.703V98.2215C97.5716 98.0537 98.017 97.961 98.4684 97.9476C99.7564 98.1256 100.459 100.645 100.611 101.583C100.611 101.959 100.741 104.958 100.611 106.464C100.59 106.765 100.503 107.058 100.355 107.322C100.207 107.586 100.003 107.814 99.7564 107.99C99.6212 108.1 99.4988 108.224 99.3914 108.36C99.21 108.425 99.0192 108.459 98.8266 108.463V108.463Z" fill="#5B8B39"/>
<path id="Vector_66" d="M98.4269 98.639C99.0193 98.7965 99.7012 100.33 99.9216 101.651C99.9216 102.165 100.046 104.985 99.9216 106.443C99.9095 106.657 99.8471 106.865 99.7394 107.05C99.6318 107.236 99.4819 107.394 99.3017 107.511C99.1954 107.599 99.0942 107.692 98.9986 107.792H98.8196C98.365 107.792 97.9792 107.025 97.8346 106.614V98.7485C98.0274 98.7068 98.2231 98.6794 98.4201 98.6664L98.4269 98.639ZM98.4889 97.2973C98.4889 97.2973 96.7876 97.352 96.457 97.9818V106.82C96.457 106.82 97.0632 109.168 98.8196 109.168C99.1896 109.16 99.5537 109.074 99.8872 108.914C99.8872 108.565 101.155 108.23 101.265 106.546C101.375 104.862 101.265 101.535 101.265 101.535C101.265 101.535 100.631 97.4958 98.4614 97.2836L98.4889 97.2973Z" fill="black"/>
<path id="Vector_67" d="M105.204 108.463C105.009 108.459 104.816 108.425 104.633 108.36C104.527 108.222 104.404 108.098 104.268 107.99C104.021 107.814 103.817 107.586 103.669 107.322C103.521 107.058 103.434 106.765 103.414 106.464C103.29 104.951 103.414 101.959 103.414 101.583C103.565 100.645 104.261 98.1598 105.549 97.9476C106.003 97.9612 106.451 98.0562 106.871 98.2283V106.703C106.768 107.046 106.265 108.463 105.204 108.463Z" fill="#5B8B39"/>
<path id="Vector_68" d="M105.604 98.639C105.801 98.652 105.997 98.6795 106.19 98.7212V106.601C106.038 107.018 105.659 107.778 105.205 107.778H105.026C104.93 107.679 104.829 107.585 104.723 107.497C104.543 107.38 104.393 107.222 104.285 107.037C104.177 106.851 104.115 106.643 104.103 106.429C103.986 105.006 104.103 102.185 104.103 101.637C104.33 100.316 105.012 98.7828 105.604 98.6254V98.639ZM105.535 97.2562C103.359 97.4684 102.732 101.507 102.732 101.507C102.732 101.507 102.594 104.848 102.732 106.518C102.87 108.189 104.11 108.572 104.11 108.887C104.446 109.046 104.812 109.132 105.184 109.14C106.941 109.14 107.547 106.792 107.547 106.792V97.9545C107.209 97.311 105.48 97.2699 105.48 97.2699L105.535 97.2562Z" fill="black"/>
</g>
<path id="Vector_69" d="M92.0347 141.972C93.4285 143.03 94.9101 143.969 96.4635 144.779C100.031 144.872 103.596 144.494 107.064 143.656C103.596 144.494 100.031 144.872 96.4635 144.779C94.9101 143.969 93.4285 143.03 92.0347 141.972V141.972Z" fill="#6D1406"/>
<path id="Vector_70" d="M88.8047 123.27L89.156 123.339L88.8047 123.27Z" fill="#6D1406"/>
<path id="Vector_71" d="M88.1226 123.126L88.467 123.195L88.1226 123.126Z" fill="#6D1406"/>
<path id="Vector_72" d="M83.0396 121.832L83.2669 121.901L83.0396 121.832Z" fill="#6D1406"/>
<path id="Vector_73" d="M90.8916 123.674L91.2911 123.75L90.8916 123.674Z" fill="#6D1406"/>
<path id="Vector_74" d="M90.1821 123.544L90.5747 123.613L90.1821 123.544Z" fill="#6D1406"/>
<path id="Vector_75" d="M91.8491 123.845L92.2831 123.92L91.8491 123.845Z" fill="#6D1406"/>
<path id="Vector_76" d="M87.4546 122.982L87.8059 123.058L87.4546 122.982Z" fill="#6D1406"/>
<path id="Vector_77" d="M92.6343 123.982L92.9787 124.044L92.6343 123.982Z" fill="#6D1406"/>
<path id="Vector_78" d="M83.9556 122.106L84.2173 122.181L83.9556 122.106Z" fill="#6D1406"/>
<path id="Vector_79" d="M86.814 122.839L87.1446 122.908L86.814 122.839Z" fill="#6D1406"/>
<path id="Vector_80" d="M84.4653 122.25L84.7477 122.325L84.4653 122.25Z" fill="#6D1406"/>
<path id="Vector_81" d="M83.48 121.969L83.7279 122.024L83.48 121.969Z" fill="#6D1406"/>
<path id="Vector_82" d="M85.0093 122.394L85.3055 122.476L85.0093 122.394Z" fill="#6D1406"/>
<path id="Vector_83" d="M86.187 122.709L86.5038 122.784L86.187 122.709Z" fill="#6D1406"/>
<path id="Vector_84" d="M85.5879 122.544L85.891 122.619L85.5879 122.544Z" fill="#6D1406"/>
<path id="Vector_85" d="M89.4863 123.393L89.8514 123.462L89.4863 123.393Z" fill="#6D1406"/>
<path id="Vector_86" d="M135.036 111.981C133.52 118.581 130.8 122.729 129.084 124.598C130.8 122.729 133.52 118.581 135.036 111.981V111.981Z" fill="#6D1406"/>
<path id="Vector_87" d="M100.5 126.131C100.279 126.131 100.024 126.131 99.7421 126.131C95.451 126.131 84.0723 123.948 81.2897 122.592C80.6835 122.298 80.1325 122.072 79.5471 121.839C77.7372 121.156 76.0276 120.235 74.4639 119.101C78.2728 125.262 87.1236 138.269 96.801 143.355C108.786 143.3 111.451 140.377 114.02 137.557C114.482 137.05 114.964 136.523 115.488 136.016C117.065 134.49 120.474 131.163 127.769 123.92C128.354 123.331 131.04 120.422 132.921 114.425C130.035 116.554 124.366 120.333 118.105 122.387C112.426 124.392 106.507 125.651 100.5 126.131V126.131Z" fill="#6D1406"/>
<path id="Vector_88" d="M94.666 124.304L95.0242 124.352L94.666 124.304Z" fill="#6D1406"/>
<path id="Vector_89" d="M95.334 124.399L95.6715 124.44L95.334 124.399Z" fill="#6D1406"/>
<path id="Vector_90" d="M93.9912 124.201L94.3563 124.256L93.9912 124.201Z" fill="#6D1406"/>
<path id="Vector_91" d="M93.3228 124.078L93.674 124.133L93.3228 124.078Z" fill="#6D1406"/>
<path id="Vector_92" d="M95.9883 124.482L96.2982 124.522L95.9883 124.482Z" fill="#6D1406"/>
<path id="Vector_93" d="M86.8415 137.447C85.5466 136.16 84.3068 134.805 83.1221 133.436C84.3068 134.805 85.5466 136.16 86.8415 137.447Z" fill="#6D1406"/>
<path id="Vector_94" d="M72.859 119.176C72.4871 118.56 72.1702 118.047 71.936 117.622C72.1771 118.047 72.4871 118.56 72.859 119.176Z" fill="#6D1406"/>
<path id="Vector_95" d="M73.8374 120.757C73.4793 120.182 73.1487 119.655 72.8594 119.176C73.1487 119.655 73.4793 120.182 73.8374 120.757Z" fill="#6D1406"/>
<path id="Vector_96" d="M81.9233 121.401L82.1644 121.511L81.9233 121.401Z" fill="#6D1406"/>
<path id="Vector_97" d="M112.574 140.966C112.164 141.298 111.731 141.602 111.279 141.876C111.731 141.602 112.164 141.298 112.574 140.966V140.966Z" fill="#6D1406"/>
<path id="Vector_98" d="M75.3662 118.108L75.931 118.492L75.3662 118.108Z" fill="#6D1406"/>
<path id="Vector_99" d="M113.662 140.001C113.435 140.213 113.201 140.432 112.974 140.644C113.201 140.432 113.435 140.22 113.662 140.001Z" fill="#6D1406"/>
<path id="Vector_100" d="M71.2817 116.479C71.2817 116.479 71.4333 116.76 71.7157 117.239C71.4333 116.76 71.2817 116.479 71.2817 116.479Z" fill="#6D1406"/>
<path id="Vector_101" d="M110.281 142.445C109.254 142.959 108.176 143.365 107.064 143.656C108.176 143.365 109.254 142.959 110.281 142.445V142.445Z" fill="#6D1406"/>
<path id="Vector_102" d="M75.6972 123.619C75.2357 122.934 74.8018 122.25 74.4092 121.654C74.7742 122.27 75.2357 122.927 75.6972 123.619Z" fill="#6D1406"/>
<path id="Vector_103" d="M126.611 127.062C126.136 127.542 125.606 128.069 125.041 128.623C125.606 128.069 126.136 127.542 126.611 127.062Z" fill="#6D1406"/>
<path id="Vector_104" d="M81.3866 131.355C80.8769 130.732 80.3879 130.109 79.9126 129.493C80.3879 130.109 80.8769 130.732 81.3866 131.355Z" fill="#6D1406"/>
<path id="Vector_105" d="M78.3279 127.377C77.3705 126.063 76.482 124.79 75.6968 123.619C76.482 124.762 77.3705 126.063 78.3279 127.377Z" fill="#6D1406"/>
<path id="Vector_106" d="M90.5401 140.809C89.2727 139.768 88.0329 138.639 86.8413 137.447C88.0329 138.639 89.2727 139.768 90.5401 140.809Z" fill="#6D1406"/>
<path id="Vector_107" d="M119.18 134.408L117.919 135.64L119.18 134.408Z" fill="#6D1406"/>
<path id="Vector_108" d="M115.226 138.344C115.026 138.563 114.82 138.782 114.62 139.029C114.82 138.782 115.026 138.563 115.226 138.344Z" fill="#6D1406"/>
<path id="Vector_109" d="M82.647 121.695L82.8536 121.771L82.647 121.695Z" fill="#6D1406"/>
<path id="Vector_110" d="M82.2817 121.559L82.4884 121.634L82.2817 121.559Z" fill="#6D1406"/>
<path id="Vector_111" d="M114.31 139.337C114.097 139.556 113.883 139.782 113.663 140.021C113.883 139.782 114.097 139.556 114.31 139.337Z" fill="#6D1406"/>
<path id="Vector_112" d="M120.978 132.641C120.668 132.943 120.358 133.244 120.062 133.545C120.358 133.244 120.668 132.977 120.978 132.641Z" fill="#6D1406"/>
<path id="Vector_113" d="M135.036 111.981L135.125 111.886V111.112L134.051 111.886C134.051 111.886 132.976 112.782 131.165 114.063L130.696 114.391C129.732 115.076 128.595 115.808 127.328 116.575C126.481 117.088 125.579 117.609 124.628 118.115C124.153 118.368 123.671 118.622 123.175 118.868C122.679 119.115 122.176 119.354 121.659 119.553C120.888 119.895 120.103 120.237 119.304 120.539C118.773 120.737 118.229 120.929 117.692 121.107C114.971 122.004 112.602 122.661 110.522 123.16C107.195 123.971 103.806 124.507 100.39 124.762H100.059H99.0536H98.7988H98.5646H98.3029H98.0411H97.7656H97.4901H97.187H96.9115H96.6016H96.2985L95.9886 124.721L95.6717 124.68L95.3342 124.639L95.0243 124.591L94.6661 124.543L94.3562 124.495L93.9911 124.441L93.6743 124.393L93.323 124.338L92.9786 124.283L92.6342 124.222L92.2829 124.16L91.849 124.085L91.2911 123.989L90.8916 123.913L90.5748 123.852L90.1821 123.783L89.8515 123.715L89.4865 123.646L89.1559 123.578L88.8046 123.51L88.4671 123.434L88.1227 123.366L87.8059 123.297L87.4546 123.222L87.1446 123.147L86.814 123.078L86.5041 123.003L86.1872 122.928L85.891 122.859L85.588 122.784L85.3056 122.715L85.0094 122.633L84.7477 122.565L84.4653 122.49L84.2173 122.421L83.9556 122.346L83.7283 122.024L83.4803 121.949L83.2737 121.88L83.0464 121.812L82.8535 121.75L82.6469 121.675L82.4885 121.613L82.2818 121.538L82.1647 121.49L81.9237 121.381C81.2349 121.052 80.6425 120.812 80.0295 120.566C79.4165 120.319 78.7966 120.066 78.0941 119.724C77.359 119.352 76.6461 118.938 75.9588 118.485L75.394 118.101C74.5399 117.506 73.5688 116.732 72.4116 115.795L71.3096 116.479C71.3096 116.479 71.4611 116.76 71.7435 117.239C71.8055 117.355 71.8813 117.485 71.9639 117.622C72.205 118.047 72.5149 118.56 72.8869 119.176C73.1762 119.655 73.5068 120.183 73.8649 120.758L74.4366 121.654C74.8292 122.271 75.2632 122.928 75.7246 123.619C76.5099 124.79 77.3984 126.063 78.3558 127.377C78.8655 128.062 79.389 128.747 79.94 129.493C80.491 130.239 80.9043 130.732 81.414 131.355C81.9237 131.978 82.5574 132.724 83.1497 133.408C84.3344 134.778 85.5742 136.147 86.8691 137.42C88.0607 138.611 89.3005 139.741 90.5679 140.781C91.0638 141.185 91.5597 141.568 92.0625 141.945C93.4564 143.003 94.9379 143.942 96.4914 144.752C100.059 144.844 103.624 144.467 107.092 143.629C108.203 143.338 109.282 142.932 110.308 142.417C110.666 142.239 110.997 142.048 111.314 141.849C111.763 141.574 112.193 141.27 112.602 140.939L112.981 140.617C113.229 140.405 113.463 140.186 113.67 139.973C113.876 139.761 114.103 139.528 114.317 139.289L114.627 138.96C114.827 138.734 115.033 138.515 115.233 138.276C115.633 137.838 116.039 137.399 116.473 136.982L117.926 135.572L119.187 134.339L120.068 133.477C120.364 133.176 120.674 132.874 120.984 132.573L122.362 131.204L125.055 128.623C125.62 128.069 126.15 127.542 126.626 127.062L128.768 124.94L129.098 124.598C130.813 122.729 133.534 118.581 135.049 111.981H135.036ZM127.81 123.975C120.516 131.218 117.107 134.545 115.529 136.071C115.006 136.578 114.524 137.105 114.062 137.612C111.479 140.432 108.814 143.355 96.8426 143.41C87.1997 138.296 78.3145 125.31 74.5055 119.156C76.0693 120.29 77.7789 121.211 79.5887 121.894C80.1742 122.127 80.7252 122.353 81.3313 122.647C84.0864 124.016 95.4926 126.186 99.7837 126.186C100.066 126.186 100.321 126.186 100.541 126.186C106.551 125.725 112.474 124.484 118.16 122.496C124.421 120.443 130.09 116.664 132.976 114.535C131.054 120.477 128.368 123.393 127.81 123.975Z" fill="black"/>
<path id="Vector_114" d="M144.857 165.398C142.626 165.398 140.442 165.33 138.362 165.193C130.641 164.679 128.279 164.18 126.377 163.776C125.964 163.687 125.579 163.604 125.165 163.529C122.989 163.132 110.591 157.621 105.611 152.549C103.414 150.707 101.478 148.893 99.7355 147.284C96.8908 144.642 94.6385 142.547 92.9028 141.808C90.1477 140.665 81.0764 130.704 81.3106 129.123C81.3106 129.123 82.2473 127.103 90.7125 127.103H91.5734C91.8354 127.213 92.1111 127.287 92.3931 127.322C93.2996 127.376 94.157 127.75 94.8107 128.377C95.6028 129.212 96.1263 129.554 96.574 129.554C96.7584 129.552 96.9391 129.502 97.0985 129.41C97.2578 129.317 97.3903 129.185 97.4832 129.027C97.5564 128.916 97.6165 128.796 97.6622 128.671C97.8069 128.322 97.924 127.986 98.902 127.986C99.1742 127.991 99.4457 128.014 99.7148 128.055L100.776 128.192C102.532 128.411 103.062 128.479 104.998 130.026C107.353 131.902 109.385 134.901 111.025 138.926L111.128 139.179C112.857 143.41 115.467 149.81 119.779 151.7L121.026 152.337C125.207 154.507 130.93 157.471 140.587 157.532H140.938C151.828 157.532 174.441 154.349 178.904 153.487C183.67 152.556 194.429 150.748 194.539 150.748H194.622H194.677C194.856 150.687 199.175 149.201 201.165 146.949C202.646 145.279 204.409 143.567 206.29 143.567C206.733 143.57 207.171 143.661 207.578 143.834C209.135 144.492 210.432 145.641 211.27 147.102C212.107 148.564 212.439 150.259 212.213 151.926C211.476 156.526 209.458 157.32 209.079 157.402C208.949 157.433 208.814 157.447 208.68 157.443C207.825 157.39 206.988 157.183 206.207 156.834C205.275 156.393 204.25 156.179 203.218 156.211C202.396 156.2 201.58 156.346 200.814 156.642C198.686 157.491 176.417 162.612 167.064 163.433C159.73 164.705 152.302 165.362 144.857 165.398V165.398Z" fill="#FF8986"/>
<path id="Vector_115" d="M90.7123 127.261V127.795H91.4424C91.713 127.899 91.9951 127.97 92.2827 128.007C93.0312 128.055 93.7397 128.36 94.2871 128.87V128.904C95.0447 129.691 95.7197 130.218 96.5187 130.218C96.8172 130.218 97.1106 130.141 97.371 129.996C97.6314 129.851 97.8502 129.643 98.0065 129.39C98.1035 129.237 98.1843 129.074 98.2476 128.904L98.3095 128.753C98.4818 128.693 98.6645 128.667 98.8468 128.678C99.0776 128.682 99.3078 128.703 99.5356 128.74L100.61 128.877C102.298 129.089 102.676 129.137 104.488 130.567C106.747 132.368 108.703 135.277 110.308 139.193L110.411 139.453C112.175 143.773 114.833 150.31 119.366 152.323L120.605 152.96C124.848 155.157 130.655 158.169 140.484 158.231H140.835C151.773 158.231 174.454 155.034 178.931 154.164C183.691 153.24 194.443 151.426 194.553 151.426H194.663H194.766C194.952 151.358 199.443 149.817 201.551 147.428C202.928 145.867 204.554 144.279 206.159 144.279C206.51 144.28 206.858 144.355 207.178 144.498C209.21 145.354 212 148.024 211.4 151.844C210.842 155.321 209.479 156.595 208.755 156.8C208.687 156.807 208.618 156.807 208.549 156.8C207.812 156.748 207.09 156.572 206.414 156.28C205.373 155.799 204.234 155.564 203.087 155.595C202.178 155.586 201.276 155.748 200.428 156.074C198.314 156.916 176.183 162.003 166.878 162.824H166.823H166.767C159.489 164.092 152.116 164.749 144.726 164.789C142.509 164.789 140.346 164.72 138.279 164.583C130.606 164.07 128.271 163.577 126.391 163.214C125.971 163.125 125.578 163.043 125.158 162.968C123.044 162.578 110.894 157.17 105.969 152.179L105.921 152.131L105.872 152.09C103.737 150.303 101.795 148.496 100.073 146.894C97.1799 144.204 94.8932 142.102 93.0404 141.295C92.1794 140.932 89.5965 138.721 86.6898 135.64C83.6385 132.375 82.2196 130.232 81.9235 129.438C82.3987 129.034 84.2929 127.904 90.5814 127.904V127.37L90.7123 127.261ZM90.5814 126.535C81.0969 126.535 80.5184 129.054 80.5184 129.054C79.9053 131.108 89.8513 141.445 92.5031 142.554C95.1549 143.663 99.3909 148.441 104.984 153.138C110.267 158.251 122.768 163.783 125.055 164.2C127.342 164.618 128.878 165.248 138.328 165.87C140.477 166.014 142.667 166.083 144.871 166.083C152.33 166.042 159.772 165.378 167.119 164.097C176.576 163.262 198.954 158.094 201.055 157.252C201.741 156.991 202.47 156.861 203.204 156.868C204.09 156.845 204.971 157.011 205.787 157.354C206.685 157.797 207.665 158.051 208.666 158.101C208.863 158.104 209.06 158.081 209.251 158.032C210.353 157.717 212.192 156.259 212.874 151.974C213.556 147.688 210.67 144.355 207.832 143.157C207.342 142.943 206.812 142.831 206.276 142.828C204.092 142.828 202.143 144.704 200.635 146.442C198.747 148.585 194.436 150.043 194.436 150.043C194.436 150.043 183.601 151.878 178.78 152.829C173.958 153.781 151.607 156.868 140.952 156.868H140.608C130.104 156.8 124.359 153.254 120.075 151.091C115.942 149.283 113.359 142.807 111.679 138.686C109.998 134.565 107.897 131.457 105.445 129.506C102.993 127.555 102.504 127.774 99.8249 127.391C99.5239 127.345 99.2201 127.32 98.9157 127.316C97.1524 127.316 97.1455 128.308 96.9251 128.637C96.8934 128.7 96.8455 128.753 96.7862 128.792C96.7269 128.83 96.6583 128.852 96.5876 128.856C96.3327 128.856 95.9677 128.603 95.3478 127.959C94.0735 126.481 91.8626 126.795 91.8626 126.446L90.5814 126.535Z" fill="black"/>
<g id="LINES">
<path id="Vector_116" d="M103.82 141.733C102.036 138.228 93.5503 128.192 93.4883 128.096L94.5421 127.213C94.8934 127.631 103.214 137.482 105.067 141.117L103.82 141.733Z" fill="black"/>
<path id="Vector_117" d="M76.4268 72.9679L78.0385 81.2922" stroke="black" stroke-width="2" stroke-miterlimit="10"/>
<path id="Vector_118" d="M96.8009 67.3165L95.4346 67.491L95.9164 71.2186L97.2827 71.0442L96.8009 67.3165Z" fill="black"/>
<path id="Vector_119" d="M102.429 76.377C102.313 73.1913 102.6 70.0037 103.283 66.8889L104.619 67.2107C103.98 70.2019 103.707 73.259 103.806 76.3154L102.429 76.377Z" fill="black"/>
<path id="Vector_120" d="M118.718 89.3974L118.512 88.0283C120.461 87.7408 121.797 79.437 121.921 71.9136H123.299C123.251 74.7888 122.817 88.7881 118.718 89.3974Z" fill="black"/>
<path id="Vector_121" d="M140.621 116.582C140.532 116.582 132.315 114.158 132.9 104.047L134.278 104.129C133.754 113.152 140.917 115.24 140.986 115.26L140.621 116.582Z" fill="black"/>
<path id="Vector_122" d="M66.1504 121.018V120.333V119.649C66.2055 119.649 71.4196 119.375 73.0382 108.216L74.4158 108.408C72.5836 120.847 66.4121 121.011 66.1504 121.018Z" fill="black"/>
<path id="Vector_123" d="M133.021 92.7487L129.188 97.0829L130.222 97.9869L134.056 93.6527L133.021 92.7487Z" fill="black"/>
<path id="Vector_124" d="M75.7244 105.067C74.3469 102.603 72.5767 101.069 70.4759 100.522C68.3292 100.071 66.0909 100.415 64.1805 101.487L63.4917 100.316C65.7247 99.0568 68.3496 98.6688 70.8548 99.2279C73.3275 99.9125 75.38 101.631 76.9574 104.431L75.7244 105.067Z" fill="black"/>
</g>
</g>
</g>
<path id="Vector_125" d="M216.07 145.197C216.484 144.099 217.259 143.174 218.27 142.571C219.28 141.968 220.467 141.723 221.636 141.876C226.051 142.191 228.151 145.532 226.781 148.975C225.41 152.419 221.849 152.843 220.375 152.631C218.901 152.419 214.176 150.94 216.07 145.197Z" fill="#393737"/>
<path id="Vector_126" d="M221.112 142.52H221.587C223.55 142.657 225.079 143.444 225.899 144.738C226.256 145.327 226.464 145.994 226.506 146.68C226.548 147.367 226.422 148.053 226.14 148.681C224.914 151.796 221.698 151.953 221.064 151.953C220.866 151.955 220.668 151.941 220.472 151.912C220.217 151.912 217.971 151.508 216.89 149.783C216.201 148.66 216.132 147.182 216.725 145.381C217.056 144.502 217.66 143.75 218.448 143.233C219.236 142.715 220.168 142.458 221.112 142.499V142.52ZM221.112 141.815C220.024 141.778 218.952 142.083 218.048 142.686C217.144 143.29 216.454 144.161 216.077 145.176C214.183 150.919 218.908 152.384 220.382 152.59C220.61 152.622 220.84 152.638 221.071 152.638C222.29 152.674 223.491 152.338 224.513 151.676C225.535 151.014 226.329 150.057 226.788 148.934C228.165 145.511 226.058 142.15 221.642 141.835H221.112V141.815Z" fill="black"/>
<path id="Vector_127" d="M218.853 142.821C218.853 142.821 224.239 140.891 226.994 145.525C227.683 146.032 228.468 143.369 227.683 140.863C226.898 138.358 223.227 137.283 221.422 137.324C219.618 137.365 218.853 142.821 218.853 142.821Z" fill="#F7F7F7"/>
<path id="Vector_128" d="M221.484 138.009C223.02 138.009 226.306 138.933 226.995 141.069C227.347 142.178 227.388 143.361 227.112 144.492C226.458 143.609 225.597 142.899 224.604 142.422C223.612 141.945 222.517 141.715 221.415 141.753C220.833 141.755 220.252 141.81 219.68 141.918C220.1 139.789 220.851 138.036 221.402 138.022H221.484V138.009ZM221.484 137.338H221.388C219.576 137.379 218.826 142.814 218.826 142.814C219.663 142.549 220.537 142.415 221.415 142.417C222.543 142.373 223.662 142.64 224.646 143.189C225.631 143.737 226.444 144.546 226.995 145.525C227.044 145.563 227.104 145.585 227.167 145.587C227.801 145.587 228.4 143.157 227.677 140.863C226.905 138.399 223.351 137.324 221.512 137.324L221.484 137.338Z" fill="black"/>
<path id="Vector_129" d="M217.124 143.492C217.124 143.492 219.005 143.28 219.397 142.075C219.79 140.87 220.74 138.255 220.375 137.728C220.01 137.201 217.965 137.002 217.124 138.303C216.284 139.604 216.387 142.773 217.124 143.492Z" fill="#F7F7F7"/>
<path id="Vector_130" d="M219.129 138.009C219.349 138.003 219.569 138.04 219.776 138.118C219.594 139.237 219.301 140.336 218.901 141.397L218.729 141.876C218.578 142.349 217.916 142.616 217.441 142.739C217.131 141.904 217.062 139.652 217.689 138.686C217.853 138.466 218.068 138.288 218.316 138.168C218.565 138.049 218.839 137.992 219.115 138.002L219.129 138.009ZM219.115 137.317C218.725 137.301 218.337 137.382 217.987 137.553C217.637 137.724 217.336 137.98 217.11 138.296C216.263 139.604 216.373 142.766 217.11 143.485C217.11 143.485 218.991 143.273 219.383 142.068C219.776 140.863 220.727 138.248 220.361 137.721C220.193 137.573 219.995 137.46 219.78 137.39C219.566 137.321 219.339 137.296 219.115 137.317V137.317Z" fill="black"/>
<g id="RALING">
<path id="Vector_131" d="M180.385 372.486V294.446H179.854C179.455 294.446 139.623 295.336 136.158 295.336H124.876L124.979 354.612L120.846 356.201L121.156 295.178H120.647C120.206 295.178 76.5991 294.61 64.1667 293.481L63.6156 293.426V293.973C63.5192 297.698 63.5123 358.206 63.5123 363.943L59.8136 364.593V293.207H59.3314C58.9113 293.207 17.1437 290.468 4.9178 289.065L4.33923 288.997L4.48387 347.185L0.530273 345.96V277.421C2.08511 278.268 3.34209 279.567 4.13259 281.145V283.883L4.60096 283.931C4.85581 283.931 29.9963 286.272 50.0605 286.861C57.4304 287.073 67.156 287.388 77.0193 287.71C94.2388 288.264 112.002 288.846 118.16 288.915C118.603 288.849 119.004 288.619 119.283 288.271C119.648 287.936 120.061 287.552 120.474 287.552H120.977L121.115 282.836C122.148 283.322 124.228 284.711 125.392 288.312L125.509 288.661H125.874C126.129 288.661 151.104 289.147 167.07 289.147C173.421 289.147 177.567 289.072 179.393 288.921H179.868V281.247C181.163 281.932 183.835 283.63 184.366 286.21C184.366 289.401 184.125 365.47 184.104 372.466L180.385 372.486Z" fill="#404040"/>
<path id="Vector_132" d="M1.03317 278.283C2.10257 279.067 2.98067 280.08 3.60232 281.247V283.376V284.314L4.53906 284.403C4.79391 284.403 29.9482 286.751 50.0399 287.34C57.4029 287.552 66.915 287.86 76.985 288.189C94.2045 288.743 111.982 289.325 118.16 289.394C118.733 289.334 119.26 289.054 119.627 288.613C119.875 288.381 120.261 288.031 120.468 288.031H121.473V287.032L121.57 283.671C123.183 284.833 124.348 286.51 124.869 288.422L125.096 289.106H125.833C126.081 289.106 151.063 289.592 167.036 289.592C173.4 289.592 177.561 289.517 179.434 289.366L180.385 289.291V282.13C181.673 282.931 183.429 284.335 183.829 286.238C183.829 290.051 183.601 362.43 183.567 371.946H180.908V294.952V293.898H179.854C179.448 293.898 139.63 294.788 136.165 294.788H124.366V295.904L124.469 354.318L121.391 355.461L121.701 295.705V294.685H120.681C120.24 294.685 76.6543 294.117 64.2356 292.988L63.1336 292.885V293.98C63.0372 297.684 63.0303 355.4 63.0303 363.532L60.3647 364.005V292.728L59.4004 292.666C58.9802 292.666 17.2195 289.928 4.98677 288.524L3.82962 288.374V289.531L3.96737 346.466L1.05383 345.563V278.283H1.03317ZM0.0206632 276.633V346.336L5.00743 347.883L4.86279 289.544C17.2608 290.914 59.3246 293.652 59.3246 293.652V365.189L64.0359 364.361C64.0359 364.361 64.0359 297.903 64.1392 293.974C76.7439 295.124 120.667 295.678 120.667 295.678L120.351 356.947L125.496 354.962L125.392 295.904H136.179C139.691 295.904 179.889 295.014 179.889 295.014V373.055H184.621C184.621 373.055 184.882 288.641 184.882 286.211C184.145 282.445 179.372 280.481 179.372 280.481V288.374C177.375 288.531 172.787 288.593 167.091 288.593C150.946 288.593 125.909 288.107 125.909 288.107C124.228 282.938 120.64 282.069 120.64 282.069L120.495 287.011C119.448 287.011 118.711 288.381 118.188 288.381C108.545 288.271 70.3796 286.916 50.095 286.327C29.8104 285.738 4.63549 283.397 4.63549 283.397V281.001C2.60359 277.236 0 276.647 0 276.647L0.0206632 276.633Z" fill="black"/>
</g>
</g>
</g>
<defs>
<clipPath id="clip0">
<rect width="228" height="380" fill="white"/>
</clipPath>
</defs>
</svg>
