<svg width="200" height="332" viewBox="0 0 200 332" fill="none" xmlns="http://www.w3.org/2000/svg">
<g id="Sloth">
<g id="Sloth_2">
<path id="Vector" d="M22.172 248.682C22.172 248.682 18.4834 251.905 20.9425 259.57C23.4016 267.234 29.4149 284.468 30.1002 285.572C30.7855 286.675 37.8873 301.446 45.9499 302.267C54.0125 303.088 64.1243 300.766 64.1243 300.766L75.0558 297.893L57.7011 265.861C57.7011 265.861 41.3005 264.906 39.3923 263.123C37.4842 261.339 29.4149 254.186 29.1394 254.072C28.864 253.957 23.677 247.114 23.677 247.114L22.172 248.682Z" fill="#C00000"/>
<path id="Vector_2" d="M23.5828 248.641C27.5469 253.85 28.2859 254.698 28.6084 254.906C29.2803 255.424 36.8322 262.107 38.6866 263.843C40.541 265.579 52.5879 266.534 57.0626 266.817L73.5371 297.22L63.8956 299.784C59.2195 300.798 54.4556 301.353 49.6719 301.439C48.4627 301.445 47.254 301.388 46.0505 301.271C42.98 300.962 37.9476 298.021 31.3766 285.794C31.1683 285.397 31.0406 285.161 30.9533 285.033C30.315 283.916 24.557 267.537 21.9031 259.247C19.6993 252.383 22.7093 249.536 22.8303 249.428H22.8706V249.395L23.5424 248.675L23.5828 248.641ZM23.6365 247.127L22.1315 248.695C22.1315 248.695 18.4429 251.918 20.902 259.583C23.361 267.248 29.3744 284.481 30.0597 285.585C30.745 286.689 37.8468 301.459 45.9094 302.28C47.1462 302.404 48.3886 302.462 49.6316 302.455C54.492 302.37 59.3324 301.809 64.0837 300.78L75.0152 297.906L57.6606 265.875C57.6606 265.875 41.2599 264.919 39.3518 263.136C37.4437 261.353 29.3744 254.2 29.0989 254.085C28.8234 253.971 23.6365 247.127 23.6365 247.127Z" fill="black"/>
<path id="Vector_3" d="M133.08 322.327C128.329 322.235 123.586 321.898 118.869 321.318L115.093 320.941C102.254 319.703 89.9515 313.539 84.6773 310.12C80.2832 306.473 73.7256 297.402 73.3023 296.816L56.3642 266.656H55.9879H55.5848C54.2394 266.647 52.8997 266.833 51.6073 267.207C50.7471 267.425 49.8601 267.518 48.9735 267.483C44.336 267.367 39.7788 266.244 35.6165 264.193C30.5438 260.155 23.0523 249.684 20.8351 246.326V246.272L20.7881 246.225C18.4701 243.931 11.0929 229.557 8.17018 222.229C6.08735 216.993 5.12656 210.513 4.3539 205.298C4.12546 203.797 3.91718 202.384 3.68202 201.146V201.092V201.045C2.76826 198.353 2.28451 188.104 1.92841 180.594C1.77388 177.23 1.63278 174.37 1.49841 172.997C0.886995 169.7 0.698867 154.222 0.678711 152.776C3.76936 143.072 11.4624 137.931 17.3884 135.326C18.2471 135.008 19.1612 134.866 20.0759 134.909C29.4822 134.909 51.4863 144.33 52.7092 145.535C53.6565 147.076 60.0999 152.607 61.6788 153.879C65.1244 156.384 68.7337 158.655 72.4826 160.676L73.0806 160.952L73.3426 160.353C74.1959 158.556 75.6203 156.268 79.6919 152.876C81.6793 151.553 84.0249 150.874 86.4107 150.932C87.2506 150.932 88.0703 150.986 88.937 151.039C89.6962 151.093 90.4823 151.14 91.2886 151.154C94.9302 151.221 96.4486 152.601 96.4621 152.614L96.8383 152.964L97.2817 152.701L107.36 146.443C107.36 146.443 108.22 146.1 112.903 145.804C118.406 146.517 121.765 149.842 126.777 155.225C132.011 160.851 136.009 171.564 136.184 172.048L136.439 172.721L137.111 172.405C137.984 171.988 138.663 170.965 139.604 169.552C140.054 168.879 140.558 168.112 141.149 167.324C141.901 166.335 142.432 166.079 142.694 166.019C142.585 168.224 142.157 170.403 141.424 172.486C140.564 174.753 141.592 175.743 141.713 175.85L142.11 176.2L142.54 175.897C143.413 175.278 146.033 173.683 147.693 173.683C147.964 173.646 148.239 173.71 148.465 173.865C148.691 174.019 148.852 174.252 148.916 174.518C148.916 177.735 146.497 180.07 146.477 180.096C143.729 182.903 143.998 183.535 144.125 183.838C144.193 183.997 144.308 184.132 144.454 184.224C144.601 184.315 144.772 184.359 144.945 184.349C145.034 184.358 145.124 184.358 145.214 184.349C145.603 184.275 145.886 184.201 146.181 184.141C146.442 184.064 146.71 184.014 146.981 183.993C147.099 183.994 147.215 184.026 147.317 184.087C147.787 184.349 149.641 186.907 149.682 188.892C149.547 189.363 148.479 190.238 143.171 190.991L142.439 191.099L141.767 191.227L141.901 191.9C142.923 196.92 143.312 211.94 142.647 220.587L142.513 221.589C141.498 229.113 140.833 234.079 135.122 242.787C127.731 252.504 120.341 253.769 120.274 253.782L119.723 253.87V254.428C119.393 264.421 117.667 267.113 117.653 267.14L117.331 267.611L117.747 268.008C126.159 275.996 135.549 282.883 145.691 288.506H145.751H145.818C147.252 288.97 148.747 289.215 150.253 289.232C155.5 289.232 157.825 285.868 158.168 285.329C158.544 284.919 161.252 281.965 161.883 281.292C162.515 280.619 167.319 274.334 168.226 273.001C169.133 271.669 171.76 266.494 174.199 261.669C175.542 258.977 177.719 256.649 179.453 254.778C180.293 253.877 181.012 253.103 181.562 252.383C182.651 250.963 184.68 249.913 185.889 249.287C186.689 248.87 186.978 248.715 187.153 248.48C187.712 247.431 188.192 246.343 188.59 245.223C188.826 244.651 189.094 243.998 189.148 243.877C189.403 243.46 192.615 234.288 192.635 234.207C192.884 233.42 193.529 232.652 193.764 232.652C193.8 232.676 193.831 232.706 193.858 232.74C194.254 233.877 194.268 235.088 194.308 240.371C194.308 241.522 194.308 242.861 194.348 244.408C194.449 253.298 194.066 259.57 193.253 262.578C192.494 264.516 191.526 264.596 191.486 264.596H190.868L190.814 265.215L190.613 269.98C186.319 288.977 178.264 300.04 172.257 305.975C164.752 313.377 152.504 318.666 152.376 318.72C146.244 321.183 139.686 322.409 133.08 322.327Z" fill="#FFD966"/>
<path id="Vector_4" d="M20.0489 135.589C29.032 135.589 50.0551 144.384 52.1716 145.992C53.4683 147.823 59.6294 153.085 61.2487 154.431C64.7373 156.958 68.3891 159.251 72.1802 161.295L73.3761 161.833L73.9472 160.642C74.7669 158.919 76.1443 156.712 80.0882 153.421C81.9596 152.186 84.163 151.552 86.4039 151.604C87.2169 151.604 88.0298 151.658 88.8831 151.712C89.7364 151.766 90.4486 151.813 91.2683 151.827C94.6277 151.887 95.9715 153.092 95.9715 153.092L96.724 153.825L97.6109 153.273L107.629 147.076C107.864 147.002 109.013 146.726 112.883 146.483C118.123 147.156 121.402 150.454 126.32 155.716C131.46 161.248 135.411 171.866 135.579 172.284L136.089 173.63L137.433 172.997C138.475 172.506 139.234 171.362 140.195 169.915C140.638 169.242 141.142 168.488 141.72 167.721L141.928 167.459C141.748 169.087 141.378 170.688 140.826 172.23C139.812 174.922 141.149 176.2 141.303 176.341L142.096 177.014L142.963 176.409C144.105 175.601 146.41 174.316 147.726 174.316C148.096 174.316 148.203 174.397 148.271 174.578C148.224 177.425 146.06 179.545 146.047 179.565C143.003 182.674 143.359 183.454 143.574 184.026C143.694 184.307 143.895 184.544 144.152 184.709C144.408 184.873 144.708 184.957 145.012 184.948C145.145 184.947 145.278 184.934 145.408 184.908C145.805 184.834 146.127 184.76 146.403 184.692C146.624 184.636 146.848 184.593 147.075 184.565C148.116 185.691 148.815 187.092 149.09 188.602C148.418 189.383 144.743 189.948 143.171 190.211L142.412 190.325L141.068 190.574L141.344 191.92C142.345 196.899 142.728 211.778 142.069 220.391L141.935 221.387C140.94 228.79 140.282 233.709 134.658 242.248C127.422 251.723 120.314 253.015 120.247 253.015L119.145 253.183V254.3C118.842 263.573 117.331 266.413 117.189 266.649L116.343 267.645L117.25 268.493C125.707 276.516 135.143 283.435 145.335 289.084L145.449 289.145L145.576 289.185C147.076 289.665 148.638 289.919 150.212 289.939C155.628 289.939 158.161 286.541 158.658 285.78L162.34 281.743C163.072 280.935 167.796 274.764 168.743 273.385C169.69 272.005 172.196 267.039 174.756 261.945C176.1 259.334 178.203 257.046 179.91 255.216C180.756 254.3 181.488 253.506 182.06 252.766C183.054 251.467 184.996 250.458 186.158 249.859C186.722 249.638 187.231 249.295 187.65 248.856C187.891 248.533 188.174 247.894 189.175 245.451C189.383 244.933 189.645 244.287 189.712 244.159L189.679 244.22C189.994 243.688 193.213 234.469 193.24 234.388C193.287 234.244 193.348 234.104 193.421 233.971C193.549 234.96 193.562 236.596 193.596 240.357C193.596 241.508 193.596 242.847 193.636 244.395C193.757 255.465 193.132 260.256 192.574 262.335C192.071 263.594 191.52 263.836 191.405 263.87L190.156 263.822L190.102 265.168L189.9 269.879C185.641 288.721 177.679 299.622 171.76 305.49C164.369 312.812 152.208 318.04 152.114 318.081C146.064 320.497 139.598 321.695 133.086 321.607C128.37 321.521 123.66 321.196 118.977 320.631L115.194 320.248C102.516 319.03 90.3344 312.973 85.1206 309.555C80.8474 306.002 74.4847 297.233 73.9069 296.433L57.13 266.676L56.7605 266.003L56.0214 265.969H55.5847C54.1711 265.959 52.7634 266.154 51.4056 266.548C50.6115 266.75 49.7919 266.834 48.9734 266.797C44.4613 266.681 40.0271 265.593 35.9725 263.607C30.967 259.569 23.583 249.26 21.3793 245.943L21.3053 245.828L21.2113 245.734C19.0478 243.574 11.6504 229.133 8.79492 221.966C6.74569 216.805 5.7849 210.365 5.01895 205.19C4.79051 203.683 4.58223 202.263 4.34707 201.018V200.91V200.809C3.46019 198.245 2.95628 187.593 2.62706 180.541C2.45909 177.061 2.33143 174.302 2.19033 172.916V172.809C1.69986 170.171 1.45799 158.738 1.3908 152.863C4.43442 143.442 11.9259 138.469 17.7041 135.925C18.4563 135.661 19.2529 135.547 20.0489 135.589ZM20.0489 134.243C19.0487 134.203 18.0506 134.363 17.1128 134.714C10.3537 137.695 3.00331 143.233 0 152.681C0 152.681 0.17469 169.585 0.819696 173.071C1.26314 177.452 1.67299 197.296 3.0369 201.267C3.99769 206.744 4.82411 215.641 7.55195 222.484C10.2798 229.328 17.7981 244.247 20.2572 246.71C22.4475 249.987 30.0801 260.66 35.2536 264.791C39.5331 266.885 44.2121 268.033 48.9734 268.156C49.9283 268.187 50.8828 268.083 51.8087 267.847C53.0359 267.493 54.3077 267.318 55.5847 267.328H55.961L72.758 297.2C72.758 297.2 79.6582 306.85 84.3076 310.658C89.817 314.312 102.233 320.402 114.999 321.634C121.221 322.233 127.093 322.98 133.053 322.98C139.75 323.083 146.401 321.86 152.624 319.38C152.624 319.38 165.027 314.09 172.714 306.493C180.4 298.896 187.495 286.938 191.264 270.108L191.473 265.283C191.573 265.283 192.937 265.236 193.871 262.82C194.691 259.839 195.101 253.628 195 244.442C194.899 235.257 195 233.971 194.436 232.43C194.366 232.31 194.268 232.208 194.152 232.134C194.035 232.059 193.902 232.013 193.764 232C192.998 232 192.232 233.278 191.997 234.018C191.688 234.994 188.718 243.305 188.563 243.567C188.409 243.83 186.924 247.672 186.615 248.083C186.306 248.493 182.725 249.772 181.032 251.979C179.338 254.186 175.657 257.322 173.601 261.4C171.545 265.478 168.561 271.359 167.675 272.658C166.788 273.957 162.031 280.094 161.359 280.848L157.596 284.979C157.596 284.979 155.487 288.613 150.206 288.613C148.767 288.602 147.338 288.375 145.966 287.94C135.867 282.337 126.526 275.462 118.17 267.483C118.17 267.483 120.018 264.886 120.354 254.415C120.354 254.415 127.94 253.251 135.659 243.123C141.747 233.884 142.224 228.682 143.312 220.607C143.984 211.711 143.588 196.792 142.566 191.731C143.655 191.523 150.011 190.91 150.354 188.925C150.354 186.664 148.304 183.791 147.619 183.448C147.413 183.336 147.181 183.28 146.947 183.286C146.311 183.369 145.68 183.493 145.059 183.656H144.911C143.877 183.656 146.927 180.561 146.927 180.561C146.927 180.561 149.614 177.997 149.574 174.403C149.488 173.976 149.248 173.596 148.9 173.335C148.551 173.075 148.119 172.952 147.686 172.99C145.449 172.99 142.15 175.325 142.15 175.325C142.15 175.325 141.33 174.605 142.042 172.708C142.865 170.381 143.318 167.94 143.386 165.474C143.225 165.361 143.031 165.305 142.835 165.312C142.372 165.312 141.606 165.595 140.618 166.907C138.871 169.215 137.93 171.274 136.822 171.786C136.311 170.399 132.414 160.279 127.295 154.767C122.175 149.256 118.681 145.844 112.943 145.131C107.568 145.461 107.024 145.871 107.024 145.871L96.9457 152.129C96.9457 152.129 95.3265 150.555 91.3221 150.481C89.6289 150.481 88.0433 150.259 86.4308 150.259C83.905 150.202 81.4231 150.926 79.3223 152.331C74.8811 156.026 73.5105 158.489 72.758 160.063C69.0623 158.057 65.5026 155.809 62.102 153.334C59.9049 151.578 54.0528 146.483 53.1861 145.131C52.4672 143.926 29.7778 134.243 20.0489 134.243Z" fill="black"/>
<path id="Vector_5" d="M8.6875 39.8038L8.9025 39.326L8.6875 39.8038Z" fill="#FFD966"/>
<path id="Vector_6" d="M8.37158 40.5575L8.57314 40.0663L8.37158 40.5575Z" fill="#FFD966"/>
<path id="Vector_7" d="M8.07617 41.3112C8.13664 41.143 8.20383 40.9815 8.27102 40.8132C8.20383 40.9815 8.17024 41.143 8.07617 41.3112Z" fill="#FFD966"/>
<path id="Vector_8" d="M7.80078 42.0515C7.86125 41.8765 7.92172 41.7083 7.98891 41.5333C7.92172 41.715 7.86125 41.8833 7.80078 42.0515Z" fill="#FFD966"/>
<path id="Vector_9" d="M7.31689 43.505C7.37064 43.3301 7.43111 43.1484 7.49158 42.9667C7.43111 43.1484 7.37064 43.3301 7.31689 43.505Z" fill="#FFD966"/>
<path id="Vector_10" d="M9.03027 39.0569L9.252 38.6128L9.03027 39.0569Z" fill="#FFD966"/>
<path id="Vector_11" d="M7.10205 44.2048L7.2633 43.6799L7.10205 44.2048Z" fill="#FFD966"/>
<path id="Vector_12" d="M7.54541 42.7916L7.72682 42.2533L7.54541 42.7916Z" fill="#FFD966"/>
<path id="Vector_13" d="M9.39307 38.3235C9.46697 38.1754 9.5476 38.0409 9.62151 37.8995C9.5476 38.0139 9.46697 38.1754 9.39307 38.3235Z" fill="#FFD966"/>
<path id="Vector_14" d="M12.0938 34.5012L12.3692 34.2522L12.0938 34.5012Z" fill="#FFD966"/>
<path id="Vector_15" d="M11.0928 35.625C11.1801 35.5106 11.2675 35.4097 11.3548 35.3087C11.2675 35.4097 11.1801 35.5106 11.0928 35.625Z" fill="#FFD966"/>
<path id="Vector_16" d="M11.583 35.0395C11.6704 34.9385 11.7577 34.8443 11.8518 34.7501C11.7577 34.8443 11.6704 34.9385 11.583 35.0395Z" fill="#FFD966"/>
<path id="Vector_17" d="M10.6357 36.2508C10.7164 36.1297 10.8037 36.022 10.8843 35.9076C10.8037 35.9951 10.7164 36.1297 10.6357 36.2508Z" fill="#FFD966"/>
<path id="Vector_18" d="M9.78271 37.6033C9.86334 37.4687 9.94397 37.3409 10.0179 37.2063C9.94397 37.3409 9.86334 37.4687 9.78271 37.6033Z" fill="#FFD966"/>
<path id="Vector_19" d="M10.1855 36.9103C10.2595 36.7824 10.3468 36.6613 10.4274 36.5402C10.3602 36.668 10.2729 36.7824 10.1855 36.9103Z" fill="#FFD966"/>
<path id="Vector_20" d="M6.91357 44.8643C6.96061 44.6893 7.01436 44.5076 7.06811 44.3259C7.01436 44.5076 6.96061 44.6893 6.91357 44.8643Z" fill="#FFD966"/>
<path id="Vector_21" d="M6.08047 48.4042C6.07799 48.3727 6.07799 48.3411 6.08047 48.3097C6.07799 48.3411 6.07799 48.3727 6.08047 48.4042Z" fill="#FFD966"/>
<path id="Vector_22" d="M6.04688 48.5861C6.04688 48.5861 6.04688 48.5253 6.04688 48.4241C6.05363 48.5253 6.04688 48.5861 6.04688 48.5861Z" fill="#FFD966"/>
<path id="Vector_23" d="M14.2168 51.0216C14.2168 50.5707 14.1765 50.167 14.1631 49.8103C14.2168 50.167 14.2168 50.5707 14.2168 51.0216Z" fill="#FFD966"/>
<path id="Vector_24" d="M14.1632 49.4536C14.1632 49.1306 14.1632 48.8413 14.1632 48.5923C14.1565 48.8547 14.1565 49.1441 14.1632 49.4536Z" fill="#FFD966"/>
<path id="Vector_25" d="M17.5023 64.4062C17.2895 64.1426 17.09 63.8686 16.9043 63.5852C17.09 63.8686 17.2895 64.1426 17.5023 64.4062Z" fill="#FFD966"/>
<path id="Vector_26" d="M16.9044 63.5852C16.7028 63.2891 16.508 62.9728 16.3198 62.6296C16.4744 62.9661 16.6692 63.2824 16.9044 63.5852Z" fill="#FFD966"/>
<path id="Vector_27" d="M14.5328 55.0188C14.385 53.3769 14.2842 52.0646 14.2305 51.0216C14.2842 52.0646 14.385 53.3769 14.5328 55.0188Z" fill="#FFD966"/>
<path id="Vector_28" d="M6.59131 46.089L6.71225 45.6246L6.59131 46.089Z" fill="#FFD966"/>
<path id="Vector_29" d="M6.46338 46.6207C6.49697 46.4793 6.53057 46.3246 6.57088 46.1698C6.53057 46.3246 6.49697 46.4793 6.46338 46.6207Z" fill="#FFD966"/>
<path id="Vector_30" d="M6.1543 48.1892C6.1543 48.1352 6.1543 48.0609 6.19481 47.9934C6.1543 48.0609 6.1543 48.1082 6.1543 48.1892Z" fill="#FFD966"/>
<path id="Vector_31" d="M6.74561 45.4901C6.78592 45.3286 6.83295 45.1536 6.87998 44.9786C6.82623 45.1536 6.78592 45.3286 6.74561 45.4901Z" fill="#FFD966"/>
<path id="Vector_32" d="M12.6313 34.0166L12.9203 33.8013L12.6313 34.0166Z" fill="#FFD966"/>
<path id="Vector_33" d="M6.34912 47.1052C6.34912 46.9638 6.41631 46.8158 6.4499 46.6543C6.41631 46.8158 6.38272 46.9638 6.34912 47.1052Z" fill="#FFD966"/>
<path id="Vector_34" d="M6.1543 47.8999C6.1543 47.8189 6.1543 47.7312 6.20832 47.6434C6.21508 47.7312 6.19482 47.8189 6.1543 47.8999Z" fill="#FFD966"/>
<path id="Vector_35" d="M6.25537 47.5359C6.25537 47.4215 6.3024 47.3003 6.33599 47.1792C6.3024 47.3003 6.27553 47.4349 6.25537 47.5359Z" fill="#FFD966"/>
<path id="Vector_36" d="M19.7803 51.6676C21.6952 51.3917 22.9247 52.5558 22.9919 52.2127C22.9247 49.4065 25.2494 49.8843 25.7265 51.3244C25.8732 51.7624 26.0646 52.1841 26.2976 52.5828C26.519 52.7844 26.7173 53.0101 26.8888 53.2557C27.124 53.3701 27.2987 53.1817 27.2987 52.4818C27.2987 50.6986 27.8429 49.6084 28.797 49.5344C29.751 49.4604 30.302 51.7954 30.3692 52.0713C30.4364 52.3472 30.6715 57.7509 30.8395 61.0751C31.2022 60.4781 31.4506 59.8186 31.5718 59.1304C32.4251 54.1036 29.7779 43.727 28.7768 42.0985C27.6346 40.221 23.3682 34.0974 16.4679 33.9089H16.3537C11.7648 33.9089 8.90257 42.0447 7.76709 46.8898L13.9954 45.7189L16.4142 45.2613L15.5609 47.3877C15.5206 47.7107 15.3325 49.7363 16.1051 57.1722C16.9114 64.8301 21.9505 65.9202 23.0591 66.1019C21.3861 59.1304 19.2495 56.3848 19.2495 56.3848C18.1611 54.5612 18.3425 52.4886 19.7803 51.6676Z" fill="#FFD966"/>
<path id="Vector_37" d="M32.2773 61.2771C32.5724 60.6719 32.7827 60.0288 32.9022 59.366C32.9559 59.0228 33.003 58.6931 33.0298 58.2893C33.0298 58.6661 32.9559 59.0228 32.9022 59.366C32.7827 60.0288 32.5724 60.6719 32.2773 61.2771Z" fill="#FFD966"/>
<path id="Vector_38" d="M30.9536 63.1882C31.2551 62.8573 31.5314 62.5041 31.78 62.1317C31.5314 62.5041 31.2551 62.8573 30.9536 63.1882Z" fill="#FFD966"/>
<path id="Vector_39" d="M13.1958 33.5927L13.4914 33.411L13.1958 33.5927Z" fill="#FFD966"/>
<path id="Vector_40" d="M17.8315 64.7762C18.2426 65.2111 18.6924 65.6076 19.1753 65.9606C18.6924 65.6076 18.2426 65.2111 17.8315 64.7762Z" fill="#FFD966"/>
<path id="Vector_41" d="M33.0298 58.2892C33.0298 57.9056 33.0768 57.5153 33.0835 57.1049C33.0768 57.5288 33.0634 57.9056 33.0298 58.2892Z" fill="#FFD966"/>
<path id="Vector_42" d="M15.0566 32.7381L15.3791 32.6708L15.0566 32.7381Z" fill="#FFD966"/>
<path id="Vector_43" d="M14.5327 55.0188C14.5999 55.6917 14.6738 56.4858 14.7612 57.3135C14.8345 58.0847 14.9648 58.8495 15.1508 59.6015C14.9648 58.8495 14.8345 58.0847 14.7612 57.3135C14.6738 56.4858 14.5999 55.7186 14.5327 55.0188Z" fill="#FFD966"/>
<path id="Vector_44" d="M13.7871 33.2361L14.0962 33.088L13.7871 33.2361Z" fill="#FFD966"/>
<path id="Vector_45" d="M14.4053 32.9467L14.7278 32.839L14.4053 32.9467Z" fill="#FFD966"/>
<path id="Vector_46" d="M32.9828 54.5208L32.9223 53.8479C32.8753 53.3903 32.8215 52.9327 32.761 52.502L32.6602 51.8291C32.5931 51.3715 32.5192 50.9072 32.4385 50.4832C31.7129 46.3582 30.564 42.5292 29.9257 41.4862L29.8115 41.2977C29.6435 41.0353 29.4218 40.6921 29.1396 40.3018C28.9985 40.1134 28.8507 39.9048 28.6827 39.6894C28.5147 39.4741 28.3401 39.2453 28.1519 39.0165C27.9638 38.7877 27.7555 38.5454 27.5405 38.3032C27.3255 38.0609 27.0904 37.8119 26.8686 37.5697C26.7477 37.4418 26.62 37.3207 26.4924 37.1996C26.0971 36.7765 25.68 36.3744 25.2427 35.995C24.3277 35.2419 23.3343 34.5899 22.2797 34.0503C21.9102 33.8618 21.5272 33.6869 21.1308 33.5321C19.6685 32.9391 18.1121 32.6132 16.5351 32.5698H16.3873H16.1051C15.9909 32.5698 15.8699 32.5698 15.7624 32.5698C15.6549 32.5698 15.5273 32.6102 15.4131 32.6304L15.0906 32.6977C14.9763 32.6977 14.8688 32.765 14.7613 32.7986L14.4388 32.9063L14.1298 33.0476L13.8207 33.1956L13.5251 33.3706L13.2295 33.5523L12.954 33.7609L12.6651 33.9762L12.403 34.2118L12.1276 34.4608L11.8857 34.7097C11.7916 34.8039 11.7043 34.8982 11.6169 34.9991C11.5296 35.1 11.4624 35.1741 11.3885 35.2683C11.3146 35.3625 11.2138 35.4702 11.1265 35.5846L10.9182 35.8672C10.8376 35.9816 10.7502 36.0893 10.6696 36.2104L10.4747 36.4997C10.3941 36.6209 10.3068 36.742 10.2329 36.8699L10.0515 37.1659C9.97755 37.3005 9.89692 37.4284 9.8163 37.563L9.65505 37.8591C9.58114 38.0004 9.50052 38.135 9.42661 38.283L9.28551 38.5724L9.06379 39.0165C9.02348 39.104 8.98317 39.1982 8.93613 39.2857L8.72113 39.7635L8.60691 40.0259L8.40535 40.5171L8.30456 40.7729C8.23738 40.9411 8.17019 41.1026 8.10972 41.2708C8.04925 41.439 8.04925 41.4256 8.02237 41.4996C7.9955 41.5736 7.89472 41.8428 7.83425 42.0178L7.76034 42.2129L7.57894 42.7513C7.55796 42.8086 7.54002 42.867 7.52518 42.9262C7.46472 43.1079 7.40424 43.2896 7.35049 43.4646C7.35049 43.5251 7.31018 43.5857 7.29674 43.6395L7.13549 44.1644C7.13549 44.2048 7.13549 44.2452 7.13549 44.2855C7.08174 44.4672 7.02799 44.6489 6.98096 44.8239V44.9383C6.93393 45.1132 6.8869 45.2882 6.84658 45.4497V45.5776L6.72564 46.0419V46.1294C6.68533 46.2841 6.65174 46.4389 6.61815 46.5802C6.61815 46.7417 6.55096 46.8898 6.51736 47.0311V47.1051C6.51736 47.2263 6.45689 47.3474 6.43674 47.4618V47.5694C6.43674 47.6569 6.39642 47.7444 6.38298 47.8252V47.9194C6.38298 47.9867 6.38299 48.0607 6.34267 48.1145V48.2356C6.3402 48.267 6.3402 48.2985 6.34267 48.3299C6.34267 48.4308 6.34267 48.4914 6.34267 48.4914L14.5396 46.9503C14.5191 47.0389 14.5056 47.1289 14.4993 47.2195C14.4993 47.4483 14.4523 47.8521 14.4523 48.5115C14.4523 48.7605 14.4523 49.0499 14.4523 49.3729C14.4523 49.4873 14.4523 49.6017 14.4523 49.7161C14.4523 50.0727 14.4523 50.4765 14.506 50.9274C14.5598 51.9704 14.6606 53.2826 14.8084 54.9246C14.8756 55.5975 14.9495 56.3916 15.0368 57.2193C15.1102 57.9905 15.2404 58.7553 15.4265 59.5072C15.6745 60.5589 16.0561 61.5743 16.562 62.5287C16.7501 62.8719 16.945 63.2016 17.1465 63.4843C17.3429 63.7707 17.5537 64.0469 17.7781 64.312C17.8856 64.4398 17.9998 64.5609 18.1073 64.6821C18.5183 65.117 18.9681 65.5134 19.4511 65.8664C20.6302 66.733 22.0251 67.2569 23.4824 67.3805H23.5697C23.4689 66.9095 23.3681 66.4519 23.2606 66.0347C22.152 65.8866 17.1129 64.7628 16.3067 57.1049C15.534 49.7026 15.7221 47.6435 15.7624 47.3205L16.6292 45.2007L14.2104 45.6583L7.98206 46.8292C9.11754 41.9841 11.9798 33.8484 16.5687 33.8484H16.6829C23.5831 34.0368 27.8496 40.1605 28.9918 42.038C29.9929 43.6664 32.6401 54.043 31.7868 59.0698C31.6656 59.7581 31.4172 60.4176 31.0545 61.0146C31.1015 61.9298 31.1418 62.6902 31.1687 63.1209C31.4702 62.7899 31.7464 62.4368 31.9951 62.0644C32.1776 61.7896 32.3436 61.5042 32.4923 61.2097C32.7873 60.6045 32.9976 59.9614 33.1171 59.2986C33.1709 58.9554 33.2179 58.6257 33.2448 58.2219C33.2717 57.8182 33.2918 57.4481 33.2985 57.0376C33.0903 56.2906 33.0298 55.4225 32.9828 54.5208Z" fill="black"/>
<path id="Vector_47" d="M27.0173 70.651C26.9569 70.6606 26.8954 70.6606 26.835 70.651C26.8954 70.6606 26.9569 70.6606 27.0173 70.651Z" fill="black"/>
<path id="Vector_48" d="M26.7951 70.6914C26.7481 70.6978 26.7004 70.6978 26.6533 70.6914C26.7005 70.6949 26.7479 70.6949 26.7951 70.6914Z" fill="black"/>
<path id="Vector_49" d="M26.5871 70.6448C26.5127 70.6085 26.4496 70.5525 26.4048 70.4828C26.4496 70.5525 26.5127 70.6085 26.5871 70.6448Z" fill="black"/>
<path id="Vector_50" d="M27.2456 70.5635L27.0835 70.631L27.2456 70.5635Z" fill="black"/>
<path id="Vector_51" d="M28.4544 77.3334C28.4312 77.3155 28.4127 77.2924 28.4004 77.2659C28.4127 77.2924 28.4312 77.3155 28.4544 77.3334Z" fill="black"/>
<path id="Vector_52" d="M28.515 77.3601C28.5076 77.3633 28.4995 77.3649 28.4914 77.3649C28.4833 77.3649 28.4753 77.3633 28.4678 77.3601C28.4678 77.3601 28.5015 77.3601 28.515 77.3601Z" fill="black"/>
<path id="Vector_53" d="M28.3872 77.246L28.3467 77.1515L28.3872 77.246Z" fill="black"/>
<path id="Vector_54" d="M27.5745 70.3616L27.5137 70.4021L27.5745 70.3616Z" fill="black"/>
<path id="Vector_55" d="M28.1988 76.1627C28.1988 76.1155 28.1988 76.0682 28.1988 76.021C28.1988 75.9737 28.192 76.1155 28.1988 76.1627Z" fill="black"/>
<path id="Vector_56" d="M27.4942 70.4154L27.2983 70.5302C27.3667 70.4975 27.4322 70.4591 27.4942 70.4154Z" fill="black"/>
<path id="Vector_57" d="M28.2192 76.4386C28.2229 76.3959 28.2229 76.353 28.2192 76.3103C28.2229 76.353 28.2229 76.3959 28.2192 76.4386Z" fill="black"/>
<path id="Vector_58" d="M28.1789 75.8532C28.1754 75.8038 28.1754 75.7541 28.1789 75.7047C28.1754 75.7541 28.1754 75.8038 28.1789 75.8532Z" fill="black"/>
<path id="Vector_59" d="M28.145 73.6797C28.1418 73.6235 28.1418 73.5672 28.145 73.511C28.1418 73.5672 28.1418 73.6235 28.145 73.6797Z" fill="black"/>
<path id="Vector_60" d="M28.1587 72.8587C28.1587 72.7979 28.1587 72.7439 28.1587 72.6899C28.1654 72.7439 28.1587 72.7979 28.1587 72.8587Z" fill="black"/>
<path id="Vector_61" d="M28.1519 73.249C28.1486 73.1973 28.1486 73.1454 28.1519 73.0938C28.1486 73.1454 28.1486 73.1973 28.1519 73.249Z" fill="black"/>
<path id="Vector_62" d="M28.9984 77.8648C28.8595 77.9716 28.6898 78.0306 28.5147 78.033C28.408 78.0321 28.3027 78.0089 28.2055 77.9649C28.1083 77.9208 28.0214 77.857 27.9503 77.7773C27.7756 77.5956 27.2784 77.064 27.5337 71.1692C27.3056 71.2902 27.0527 71.357 26.7946 71.3643C26.6171 71.3665 26.4417 71.3249 26.284 71.2432C26.284 71.5527 26.2303 71.8488 26.1832 72.1113L25.639 75.025L24.8596 72.1987C24.8596 72.1651 24.0802 69.3657 23.321 66.4788C22.4207 63.0738 21.339 59.7899 20.9022 59.1573C20.3177 58.3027 19.0075 55.537 18.9538 55.4158V55.362V55.3014C18.8607 54.9385 18.8443 54.5601 18.9056 54.1905C18.9669 53.8208 19.1046 53.4681 19.3099 53.1548C19.5464 52.8712 19.8474 52.6486 20.1876 52.5058C20.5278 52.3629 20.8973 52.3039 21.2651 52.3338H21.6749C21.9937 52.3654 22.3018 52.4661 22.5779 52.6287C22.854 52.7914 23.0915 53.0122 23.274 53.2759L23.8048 52.0848L23.9862 51.6744H24.4363C25.1459 51.7557 25.8069 52.076 26.3109 52.5828C26.0779 52.1841 25.8865 51.7624 25.7398 51.3244C25.2628 49.8844 22.938 49.4066 23.0052 52.2127C22.938 52.5559 21.7085 51.3917 19.7936 51.6676C18.3558 52.4886 18.1744 54.5612 19.2494 56.3781C19.2494 56.3781 21.386 59.1237 23.059 66.0953C23.1665 66.5327 23.2673 66.9903 23.368 67.4411C23.368 67.5084 23.368 67.5757 23.4151 67.6497C25.1217 75.7989 27.5136 82.7772 28.0578 82.9791C28.602 83.181 29.8383 81.2025 29.9726 78.7396C30.0129 78.0667 30.1204 76.5391 30.2481 74.7424C30.0264 75.9672 29.6703 77.3736 28.9984 77.8648Z" fill="black"/>
<path id="Vector_63" d="M28.1651 75.5303C28.1618 75.4763 28.1618 75.4222 28.1651 75.3683C28.1618 75.4222 28.1618 75.4763 28.1651 75.5303Z" fill="black"/>
<path id="Vector_64" d="M28.1919 71.6945V71.5325C28.1953 71.5864 28.1953 71.6405 28.1919 71.6945Z" fill="black"/>
<path id="Vector_65" d="M20.002 53.3502L20.1168 53.2625L20.002 53.3502Z" fill="black"/>
<path id="Vector_66" d="M19.834 53.4916L19.9218 53.3971L19.834 53.4916Z" fill="black"/>
<path id="Vector_67" d="M20.2168 53.2021L20.3654 53.1346L20.2168 53.2021Z" fill="black"/>
<path id="Vector_68" d="M20.8149 53.0135C20.8866 53.0098 20.9583 53.0098 21.0299 53.0135C20.9583 53.0098 20.8866 53.0098 20.8149 53.0135Z" fill="black"/>
<path id="Vector_69" d="M20.4854 53.0876L20.6677 53.0471L20.4854 53.0876Z" fill="black"/>
<path id="Vector_70" d="M19.7129 53.7068C19.7306 53.6716 19.751 53.6378 19.7737 53.6056C19.751 53.6378 19.7306 53.6716 19.7129 53.7068Z" fill="black"/>
<path id="Vector_71" d="M19.5181 54.6894C19.5214 54.6557 19.5214 54.6218 19.5181 54.5881C19.5214 54.6218 19.5214 54.6557 19.5181 54.6894Z" fill="black"/>
<path id="Vector_72" d="M19.5918 53.9088C19.6046 53.8694 19.6204 53.8311 19.6391 53.7941C19.6204 53.8311 19.6046 53.8694 19.5918 53.9088Z" fill="black"/>
<path id="Vector_73" d="M22.2393 53.2356C22.2849 53.2656 22.3278 53.2994 22.3676 53.3368C22.3278 53.2994 22.2849 53.2656 22.2393 53.2356Z" fill="black"/>
<path id="Vector_74" d="M19.592 55.0594C19.592 55.0594 19.592 55.0594 19.592 55.0054C19.5904 55.0233 19.5904 55.0414 19.592 55.0594Z" fill="black"/>
<path id="Vector_75" d="M23.9794 54.7169C23.9794 54.6156 23.9456 54.5144 23.9321 54.4266L23.9794 54.7169Z" fill="black"/>
<path id="Vector_76" d="M19.5517 54.972C19.5479 54.9474 19.5479 54.9223 19.5517 54.8977C19.5479 54.9223 19.5479 54.9474 19.5517 54.972Z" fill="black"/>
<path id="Vector_77" d="M21.8091 53.0201L21.9171 53.0606L21.8091 53.0201Z" fill="black"/>
<path id="Vector_78" d="M23.146 54.3862C23.2122 54.5371 23.2683 54.6922 23.314 54.8505C23.2683 54.6922 23.2122 54.5371 23.146 54.3862Z" fill="black"/>
<path id="Vector_79" d="M23.9191 54.3458C23.9191 54.1507 23.8654 53.9824 23.8452 53.868C23.8654 53.9824 23.8855 54.1641 23.9191 54.3458Z" fill="black"/>
<path id="Vector_80" d="M19.5315 54.8374C19.5279 54.8082 19.5279 54.7788 19.5315 54.7496C19.5279 54.7788 19.5279 54.8082 19.5315 54.8374Z" fill="black"/>
<path id="Vector_81" d="M22.0176 53.101L22.1391 53.1685L22.0176 53.101Z" fill="black"/>
<path id="Vector_82" d="M22.9512 54.0027C22.9984 54.0769 23.039 54.1647 23.0862 54.2457C23.0255 54.1647 22.9849 54.0769 22.9512 54.0027Z" fill="black"/>
<path id="Vector_83" d="M22.481 53.424L22.6093 53.5657L22.481 53.424Z" fill="black"/>
<path id="Vector_84" d="M22.7163 53.6797L22.8446 53.8619L22.7163 53.6797Z" fill="black"/>
<path id="Vector_85" d="M30.8393 61.0819C30.6714 57.7577 30.416 52.2665 30.369 52.0781C30.322 51.8897 29.7576 49.4739 28.7968 49.5412C27.836 49.6085 27.2985 50.7053 27.2985 52.4886C27.2985 53.1615 27.1238 53.3769 26.8887 53.2625C27.1859 53.6789 27.4297 54.131 27.6143 54.6083V54.6756V54.7429C27.5979 53.5903 27.7083 52.4394 27.9435 51.311L28.2392 50.6919L28.8506 50.9947C29.1059 51.1226 30.3892 51.8157 30.3892 52.9126V72.0036C30.6781 67.966 30.9871 63.7064 30.9468 63.5045C30.9468 63.5045 30.9468 63.3363 30.9132 63.1209C30.9267 62.7575 30.8864 61.9971 30.8393 61.0819Z" fill="black"/>
<path id="Vector_86" d="M24.7053 63.6256C24.5978 62.7508 24.497 61.8424 24.4634 61.6943C24.4754 61.7435 24.4934 61.791 24.5172 61.8356C24.3731 61.3677 24.2697 60.8881 24.2081 60.4023L23.7647 57.7106C23.6034 56.6742 23.4354 55.6312 23.3212 54.8842C23.2755 54.7259 23.2194 54.5708 23.1533 54.4199C23.126 54.3742 23.1013 54.3271 23.0793 54.2786C23.0323 54.1979 22.992 54.1104 22.945 54.0364C22.9176 53.9867 22.8861 53.9395 22.8509 53.895L22.7233 53.7133L22.6158 53.599L22.4881 53.4576L22.3739 53.3702C22.3343 53.3329 22.2916 53.2991 22.2462 53.2692L22.1454 53.2019L22.0245 53.1346C21.9921 53.1183 21.9584 53.1048 21.9237 53.0943L21.8162 53.0539H21.7356H21.6348H21.2048H21.0368C20.9652 53.0502 20.8935 53.0502 20.8218 53.0539H20.674L20.4926 53.0943L20.3717 53.1414L20.2239 53.2087L20.1231 53.2692L20.0089 53.3567L19.9282 53.4307L19.8409 53.5249L19.7804 53.6124C19.7578 53.6445 19.7376 53.6783 19.7199 53.7133L19.6729 53.8008C19.6544 53.8377 19.6387 53.876 19.6259 53.9152C19.6259 53.9152 19.6259 53.9758 19.6259 54.0027C19.6259 54.0296 19.6259 54.0835 19.6259 54.1238C19.6222 54.1529 19.6222 54.1823 19.6259 54.2113V54.3257C19.6292 54.3525 19.6292 54.3797 19.6259 54.4065V54.5209C19.6259 54.5209 19.6259 54.568 19.6259 54.5949C19.6292 54.6285 19.6292 54.6623 19.6259 54.6958C19.6226 54.7181 19.6226 54.7408 19.6259 54.7631C19.6223 54.7922 19.6223 54.8215 19.6259 54.8506C19.6259 54.8506 19.6259 54.891 19.6259 54.9044C19.6221 54.929 19.6221 54.9539 19.6259 54.9785C19.6259 54.9785 19.6259 55.0188 19.6259 55.0323C19.6276 55.0479 19.6276 55.0637 19.6259 55.0794C19.6259 55.0794 20.9696 57.899 21.5273 58.72C22.085 59.5409 23.2675 63.343 24.0334 66.2568C24.7994 69.1706 25.572 71.9632 25.572 71.9632C25.6433 71.4168 25.6658 70.865 25.6392 70.3145C25.4242 69.4734 25.1689 67.6228 24.7053 63.6256Z" fill="#E3E3E3"/>
<path id="Vector_87" d="M29.7578 52.9798C29.7578 52.2396 28.5954 51.6676 28.5954 51.6676C28.0445 52.8183 28.3267 68.9686 28.3267 68.9686V69.0427C28.3294 69.0897 28.3294 69.1369 28.3267 69.184C28.3267 69.2715 28.3267 69.3724 28.3267 69.5003V70.6173C28.3267 70.6913 28.3267 70.7586 28.3267 70.8327V70.9874C28.3267 71.0615 28.3267 71.1355 28.3267 71.2162V71.3508C28.3267 71.4248 28.3267 71.4921 28.3267 71.5662V71.7277C28.3267 71.795 28.3267 71.869 28.3267 71.943V72.0978C28.3267 72.1785 28.3267 72.2593 28.3267 72.3468V72.4881C28.3267 72.5621 28.3267 72.6428 28.3267 72.7236C28.3267 72.8044 28.3267 72.8313 28.3267 72.8918V73.1274C28.3233 73.1789 28.3233 73.2306 28.3267 73.2821V73.5177C28.3234 73.5737 28.3234 73.6299 28.3267 73.6859V74.8433C28.3267 74.9106 28.3267 74.9846 28.3267 75.0519V75.2134C28.3267 75.2807 28.3267 75.3413 28.3267 75.4019C28.3233 75.4556 28.3233 75.5096 28.3267 75.5634C28.3232 75.6216 28.3232 75.6801 28.3267 75.7383C28.3232 75.7876 28.3232 75.8371 28.3267 75.8864C28.3267 75.9469 28.3267 76.0008 28.3267 76.0546C28.3267 76.1084 28.3267 76.1488 28.3267 76.1959C28.3267 76.243 28.3267 76.2969 28.3267 76.344C28.3303 76.3865 28.3303 76.4293 28.3267 76.4718C28.3299 76.5144 28.3299 76.5571 28.3267 76.5997V76.7208C28.3234 76.7566 28.3234 76.7927 28.3267 76.8285V76.9294V77.0236V77.1178V77.1851L28.367 77.2793C28.3792 77.3058 28.3977 77.3288 28.4207 77.3466C28.4282 77.3498 28.4362 77.3514 28.4442 77.3514C28.4523 77.3514 28.4603 77.3498 28.4677 77.3466C28.4919 77.3532 28.5175 77.3532 28.5417 77.3466C29.3613 76.7343 29.704 73.309 29.704 73.309L29.7578 52.9798Z" fill="#E3E3E3"/>
<path id="Vector_88" d="M28.891 51.062C29.1463 51.1898 30.4296 51.8829 30.4296 52.9798L30.4095 53.0067V73.3831C30.3759 73.7397 30.3154 74.2444 30.2214 74.7962C30.0131 75.9941 29.657 77.4005 28.9851 77.8917C28.8461 77.9985 28.6765 78.0575 28.5013 78.06C28.3947 78.059 28.2894 78.0358 28.1922 77.9918C28.095 77.9478 28.0081 77.8839 27.937 77.8042C27.7623 77.6225 27.2651 77.0909 27.5204 71.1961C27.2923 71.3171 27.0394 71.3839 26.7813 71.3912C26.6038 71.3934 26.4284 71.3518 26.2707 71.2701C26.2438 71.5796 26.2169 71.8757 26.1699 72.1382L25.6391 75.025L24.8732 72.2997C24.8665 72.266 24.0938 69.4666 23.3346 66.5798C22.4343 63.1747 21.3525 59.8908 20.9158 59.2583C20.3111 58.4036 19.0211 55.6379 18.9673 55.5168V55.4629V55.4024C18.8743 55.0394 18.8578 54.6611 18.9192 54.2914C18.9805 53.9218 19.1182 53.569 19.3234 53.2557C19.5599 52.9721 19.8609 52.7496 20.2012 52.6067C20.5414 52.4638 20.9109 52.4049 21.2786 52.4348H21.6885C22.0072 52.4664 22.3154 52.567 22.5915 52.7297C22.8676 52.8923 23.1051 53.1132 23.2875 53.3769L23.8183 52.1858L23.9997 51.7753H24.4499C25.1642 51.8536 25.8304 52.1742 26.3379 52.6837C26.5593 52.8854 26.7576 53.1111 26.9291 53.3567C27.2256 53.7719 27.4688 54.2226 27.6532 54.6985C27.6454 53.5832 27.7563 52.4702 27.984 51.3783L28.2796 50.7592L28.891 51.062Z" fill="black"/>
<path id="Vector_89" d="M114.737 11.8369C115.026 12.6848 115.315 13.5933 115.584 14.5623C115.315 13.5933 114.999 12.6848 114.737 11.8369Z" fill="#FFD966"/>
<path id="Vector_90" d="M112.93 7.30127C113.232 7.9742 113.541 8.6875 113.843 9.44118C113.541 8.6875 113.232 7.9742 112.93 7.30127Z" fill="#FFD966"/>
<path id="Vector_91" d="M109.093 1.15076C109.201 1.22478 109.315 1.28534 109.416 1.36609C109.315 1.28534 109.201 1.22478 109.093 1.15076Z" fill="#FFD966"/>
<path id="Vector_92" d="M110.484 2.45618C110.545 2.53718 110.619 2.60467 110.673 2.69243C110.619 2.60467 110.545 2.53718 110.484 2.45618Z" fill="#FFD966"/>
<path id="Vector_93" d="M109.826 1.72949C109.913 1.81024 110.014 1.88427 110.094 1.97175C110.014 1.88427 109.913 1.81024 109.826 1.72949Z" fill="#FFD966"/>
<path id="Vector_94" d="M108.28 0.693115C108.401 0.753679 108.529 0.800791 108.65 0.868084C108.536 0.800791 108.408 0.753679 108.28 0.693115Z" fill="#FFD966"/>
<path id="Vector_95" d="M106.479 0.134644C106.627 0.134644 106.775 0.17502 106.916 0.208666C106.775 0.17502 106.627 0.154831 106.479 0.134644Z" fill="#FFD966"/>
<path id="Vector_96" d="M107.414 0.329712C107.55 0.365238 107.685 0.407917 107.817 0.45757C107.685 0.407917 107.55 0.365238 107.414 0.329712Z" fill="#FFD966"/>
<path id="Vector_97" d="M98.1348 51.4725C98.7545 51.3724 99.3302 51.0888 99.7876 50.6582C99.3338 51.0864 98.7632 51.3698 98.1482 51.4725C98.1482 51.4725 98.1549 51.4725 98.1348 51.4725Z" fill="#FFD966"/>
<path id="Vector_98" d="M103.812 45.2142C103.954 44.9518 104.095 44.6826 104.229 44.4134C104.663 43.2097 104.984 41.9685 105.19 40.7056C104.991 41.9678 104.676 43.2091 104.249 44.4134C104.095 44.6826 103.954 44.9518 103.812 45.2142Z" fill="#FFD966"/>
<path id="Vector_99" d="M116.067 16.4801C116.577 18.6341 116.976 20.8127 117.263 23.0075C116.976 20.8127 116.577 18.6341 116.067 16.4801Z" fill="#FFD966"/>
<path id="Vector_100" d="M117.337 23.5055C117.411 24.1179 117.485 24.737 117.559 25.3897C116.116 25.9578 114.645 26.4498 113.151 26.8634C114.645 26.4498 116.116 25.9578 117.559 25.3897C117.485 24.737 117.411 24.1179 117.337 23.5055Z" fill="#FFD966"/>
<path id="Vector_101" d="M89.985 35.551C91.7251 35.2953 91.7789 36.9372 92.135 38.4782C92.4911 40.0192 92.9077 38.5253 93.2638 38.1148C93.6199 37.7043 93.8281 35.8067 95.4675 35.551C96.8516 35.7528 95.7766 36.3719 96.2872 37.5698C97.725 38.135 97.631 36.9574 97.631 36.9574C101.32 35.9816 102.334 37.8255 101.32 40.0865C100.164 41.3987 98.4036 46.8966 97.7721 49.9517L98.1685 50.1132C98.8404 49.9046 100.614 48.5251 103.013 43.8751C104.598 39.7703 105.096 28.1353 105.102 28.0209L105.149 26.7894L106.379 26.7288C109.709 26.442 112.985 25.6993 116.114 24.5216C114.952 14.5892 112.58 9.62968 110.477 5.23544C110.296 4.8586 110.115 4.4885 109.94 4.11838C109.113 2.36876 107.34 1.36609 105.069 1.36609C102.428 1.36609 99.6399 2.67158 97.4093 4.94609C92.2425 10.2286 89.4609 21.4867 88.0432 30.0195C87.3714 35.3625 88.0432 38.7676 88.6278 40.6518C88.7218 38.6868 88.8629 37.5227 88.8629 37.5227C88.8629 37.5227 88.5337 36.6277 89.985 35.551Z" fill="#FFD966"/>
<path id="Vector_102" d="M88.6617 20.5177C87.8621 23.5728 87.2171 26.7356 86.7065 29.8176C86.552 31.0222 86.4646 32.1325 86.4243 33.1823C86.4646 32.1527 86.552 31.0423 86.7065 29.8176C87.2171 26.7221 87.8621 23.5593 88.6617 20.5177Z" fill="#FFD966"/>
<path id="Vector_103" d="M88.6616 20.5176C89.2688 18.1353 90.0114 15.7897 90.8856 13.4922C90.0114 15.7897 89.2688 18.1353 88.6616 20.5176Z" fill="#FFD966"/>
<path id="Vector_104" d="M86.8608 39.2789C87.0866 40.6883 87.5915 42.0382 88.3457 43.2492C87.5915 42.0382 87.0866 40.6883 86.8608 39.2789Z" fill="#FFD966"/>
<path id="Vector_105" d="M92.9883 8.84238C93.4801 7.92727 94.0253 7.04197 94.621 6.19104C94.0253 7.04197 93.4801 7.92727 92.9883 8.84238Z" fill="#FFD966"/>
<path id="Vector_106" d="M96.4419 3.98369C96.7644 3.65395 97.1138 3.31077 97.443 3.05505C97.1003 3.34441 96.7644 3.65395 96.4419 3.98369Z" fill="#FFD966"/>
<path id="Vector_107" d="M98.9077 1.97176C99.1227 1.83717 99.331 1.69585 99.5796 1.56799C99.331 1.67566 99.1227 1.83717 98.9077 1.97176Z" fill="#FFD966"/>
<path id="Vector_108" d="M106.144 32.691C106.144 33.1015 106.076 33.5255 106.036 33.9562C106.076 33.5255 106.11 33.1015 106.144 32.691Z" fill="#FFD966"/>
<path id="Vector_109" d="M97.7925 2.77917C98.0209 2.59748 98.2426 2.41579 98.4644 2.24756C98.2426 2.41579 98.0209 2.59748 97.7925 2.77917Z" fill="#FFD966"/>
<path id="Vector_110" d="M105.835 35.9951C105.788 36.4527 105.734 36.9103 105.68 37.341C105.734 36.8834 105.788 36.4258 105.835 35.9951Z" fill="#FFD966"/>
<path id="Vector_111" d="M104.403 0.0336071C104.591 0.0336071 104.78 0.0336071 104.968 0.0336071C104.78 0.00668985 104.591 0.0201485 104.403 0.0336071Z" fill="#FFD966"/>
<path id="Vector_112" d="M101.125 0.814265C101.327 0.733514 101.535 0.646028 101.736 0.578735C101.562 0.646028 101.327 0.733514 101.125 0.814265Z" fill="#FFD966"/>
<path id="Vector_113" d="M102.233 0.430684C102.428 0.376849 102.63 0.309556 102.831 0.262451C102.63 0.329744 102.435 0.376849 102.233 0.430684Z" fill="#FFD966"/>
<path id="Vector_114" d="M100.016 1.32568C100.224 1.21801 100.426 1.10361 100.634 1.0094C100.426 1.10361 100.218 1.21801 100.016 1.32568Z" fill="#FFD966"/>
<path id="Vector_115" d="M103.329 0.17492C103.521 0.134545 103.716 0.100892 103.913 0.0739746C103.721 0.100892 103.526 0.134545 103.329 0.17492Z" fill="#FFD966"/>
<path id="Vector_116" d="M88.5208 43.8419C88.4999 43.7935 88.4819 43.7439 88.4668 43.6934C88.4819 43.7439 88.4999 43.7935 88.5208 43.8419Z" fill="#FFD966"/>
<path id="Vector_117" d="M86.6862 38.2965C86.5787 37.6235 86.4914 36.8295 86.4443 35.9749C86.4914 36.8295 86.5787 37.6033 86.6862 38.2965Z" fill="#FFD966"/>
<path id="Vector_118" d="M117.337 23.5055C117.337 23.3238 117.29 23.1488 117.264 22.9739C116.976 20.7791 116.577 18.6004 116.068 16.4464C115.913 15.7735 115.752 15.1611 115.584 14.5622C115.315 13.5932 115.026 12.6848 114.737 11.8369C114.448 10.989 114.146 10.1949 113.844 9.44123C113.541 8.68754 113.232 7.97424 112.93 7.30131C112.775 6.95812 112.628 6.62838 112.473 6.30538C112.016 5.32963 111.573 4.41444 111.129 3.51944C110.991 3.23184 110.832 2.95514 110.652 2.69173C110.598 2.60425 110.525 2.53696 110.464 2.45621C110.343 2.28757 110.213 2.12582 110.074 1.9717C109.994 1.88422 109.893 1.8102 109.806 1.72945C109.675 1.60129 109.539 1.47999 109.396 1.36606C109.295 1.28531 109.181 1.22475 109.073 1.15073C108.933 1.04876 108.787 0.954418 108.637 0.868095C108.516 0.800802 108.388 0.753691 108.267 0.693127C108.114 0.615521 107.957 0.545893 107.797 0.48452C107.665 0.434867 107.53 0.392188 107.394 0.356662C107.232 0.302827 107.071 0.249002 106.896 0.208626C106.722 0.16825 106.607 0.154791 106.46 0.134603C106.312 0.114415 106.117 0.0673071 105.942 0.0471191H105.479C105.338 0.0471191 105.19 0.0471191 105.042 0.0471191H104.948C104.76 0.0471191 104.572 0.0471191 104.384 0.0471191C104.195 0.0471191 104.054 0.0471175 103.893 0.0874933C103.732 0.127869 103.503 0.148053 103.309 0.188429L102.811 0.275913C102.61 0.323018 102.408 0.390311 102.213 0.444146C102.019 0.49798 101.884 0.531628 101.716 0.592191C101.548 0.652755 101.306 0.74697 101.105 0.827721C100.903 0.908473 100.782 0.948844 100.614 1.02287C100.446 1.09689 100.204 1.23148 99.9962 1.33914C99.7879 1.44681 99.6804 1.49392 99.5258 1.5814C99.3713 1.66888 99.1026 1.85058 98.854 1.98516L98.424 2.26106C98.1888 2.42929 97.9671 2.61099 97.7521 2.79268C97.6311 2.88689 97.5169 2.96764 97.4027 3.06858C97.06 3.35794 96.7308 3.66748 96.4016 3.99722C95.7361 4.68244 95.1272 5.4206 94.5808 6.20443C93.9851 7.05536 93.4399 7.94067 92.9481 8.85578C92.1506 10.3555 91.4482 11.9041 90.8451 13.4923C89.9846 15.7906 89.2555 18.1362 88.6615 20.5177C87.862 23.5728 87.217 26.7356 86.7064 29.8176C86.5518 31.0221 86.4645 32.1325 86.4242 33.1822C86.3839 34.232 86.4242 35.1472 86.4242 36.0085C86.4242 36.8699 86.5585 37.637 86.666 38.3301C86.7198 38.6801 86.7803 39.0031 86.8407 39.3126C87.0665 40.722 87.5713 42.0719 88.3256 43.2829C88.3542 43.4266 88.3924 43.5682 88.4398 43.7069C88.4548 43.7572 88.4728 43.8066 88.4936 43.8549V43.8953C88.4936 42.6571 88.5339 41.5669 88.5809 40.645C87.9628 38.7676 87.3178 35.3558 87.9964 30.0127C89.414 21.48 92.1956 10.2218 97.3624 4.93933C99.593 2.66482 102.381 1.35933 105.022 1.35933C107.293 1.35933 109.053 2.362 109.893 4.11162C110.068 4.48173 110.249 4.85184 110.43 5.22868C112.533 9.62292 114.905 14.5824 116.068 24.5149C112.938 25.6926 109.663 26.4352 106.332 26.7221L105.102 26.7827L105.055 28.0141C105.055 28.1285 104.552 39.7635 102.966 43.8684C100.567 48.5183 98.7733 49.9247 98.1216 50.1064L97.7252 49.9449C97.6238 50.3886 97.5498 50.838 97.5035 51.2908C97.5345 51.31 97.5686 51.3236 97.6043 51.3312H97.6916L97.7924 51.3715H97.8596H97.9335H97.9872H98.041H98.0947C98.7145 51.2715 99.2901 50.9879 99.7476 50.5573C100.825 49.6013 101.752 48.4873 102.496 47.2532C102.912 46.5803 103.335 45.9073 103.759 45.1267C103.9 44.8643 104.041 44.5951 104.175 44.326C104.622 43.1523 104.962 41.9406 105.19 40.7056C105.378 39.6491 105.539 38.5118 105.68 37.3409C105.734 36.8833 105.788 36.4258 105.835 35.9951C105.909 35.3221 105.976 34.6492 106.036 33.9763C106.077 33.5456 106.11 33.1217 106.144 32.7112C106.352 30.0666 106.433 28.0747 106.433 28.0747C108.709 27.9253 110.962 27.5259 113.152 26.8836C114.646 26.4699 116.117 25.978 117.559 25.4099C117.485 24.7369 117.411 24.1179 117.337 23.5055Z" fill="black"/>
<path id="Vector_119" d="M97.7652 49.9315C98.3968 46.8764 100.157 41.3786 101.313 40.0663C102.334 37.8053 101.313 35.9615 97.6241 36.9372C97.6241 36.9372 97.7249 38.1148 96.2804 37.5496C95.7697 36.372 96.8447 35.7529 95.4607 35.5308C93.8213 35.7865 93.6197 37.6842 93.2569 38.0947C92.8941 38.5051 92.491 39.9923 92.1281 38.458C91.7653 36.9238 91.7183 35.2751 89.9781 35.5308C88.5269 36.6075 88.8494 37.4823 88.8494 37.4823C88.8494 37.4823 88.7083 38.6465 88.6142 40.6114C88.5672 41.5333 88.5336 42.6302 88.5269 43.8617C88.5269 44.8307 88.5269 45.8805 88.5806 46.9908C89.3331 53.7201 90.7642 62.872 91.8594 65.9473C92.9546 69.0226 93.3644 69.3119 93.875 69.3119C94.6275 68.9014 95.1718 66.7817 96.1997 61.2367C97.2277 55.6918 97.698 53.202 97.4965 51.8157C97.4765 51.6436 97.4765 51.4697 97.4965 51.2976C97.5574 50.837 97.6472 50.3808 97.7652 49.9315ZM91.4227 60.6984C90.2939 56.9502 89.407 38.2158 89.407 38.2158C89.407 38.2158 89.7698 37.1391 90.5895 37.5025C91.4092 37.8659 92.1752 41.0959 92.1752 45.7661C92.1752 50.4362 93.4047 63.7804 93.4047 63.7804C93.4047 63.7804 92.8269 64.3928 91.4227 60.6984ZM93.4383 56.9704C93.4383 56.9704 93.5257 50.2411 93.1158 49.1307C92.706 48.0204 92.5649 43.8617 92.7731 40.7325C93.6936 38.0408 95.4607 37.4285 95.4607 37.4285C94.9702 50.8332 95.4607 56.9434 95.4607 56.9434L93.4383 56.9704ZM95.7765 56.9704L95.4875 50.6246C95.4875 50.6246 96.1191 40.7191 96.9388 39.1848C97.7585 37.6505 100.15 38.2225 100.15 38.2225C100.701 40.6181 99.539 41.4391 99.539 41.4391C98.7909 42.8479 98.2135 44.3412 97.819 45.8872C97.0396 48.7202 95.7563 56.9704 95.7563 56.9704H95.7765Z" fill="black"/>
<path id="Vector_120" d="M92.189 45.7661C92.189 41.0959 91.4231 37.8591 90.6034 37.5025C89.7837 37.1458 89.4209 38.2158 89.4209 38.2158C89.4209 38.2158 90.2943 56.9502 91.4365 60.6984C92.8677 64.3928 93.4522 63.7804 93.4522 63.7804C93.4522 63.7804 92.189 50.4362 92.189 45.7661Z" fill="#E3E3E3"/>
<path id="Vector_121" d="M95.4675 37.4285C95.4675 37.4285 93.6736 38.0139 92.78 40.7325C92.5717 43.8617 92.7128 48.0406 93.1226 49.1307C93.5325 50.2209 93.4451 56.9704 93.4451 56.9704H95.4608C95.4608 56.9704 94.977 50.8332 95.4675 37.4285Z" fill="#E3E3E3"/>
<path id="Vector_122" d="M97.7992 45.914C98.2022 44.3668 98.7887 42.8735 99.5461 41.4659C99.5461 41.4659 100.708 40.645 100.157 38.2493C100.157 38.2493 97.7656 37.7043 96.9459 39.2116C96.1262 40.719 95.4946 50.6514 95.4946 50.6514L95.7835 56.9972C95.7835 56.9972 97.04 48.7201 97.7992 45.914Z" fill="#E3E3E3"/>
<path id="Vector_123" d="M0 152.675C0 152.675 5.32802 135.118 11.4757 126.908C15.1827 121.955 19.6448 117.618 24.6983 114.055L20.1228 136.592C18.878 137.39 17.578 138.098 16.2326 138.711C14.9359 139.189 13.8407 139.936 11.9998 140.178C10.1588 140.42 7.76023 142.749 7.14882 143.368C6.53741 143.987 4.27988 146.06 3.72894 148.751C3.178 151.443 2.05596 158.502 2.05596 158.845C2.05596 159.189 0.994386 160.191 0.994386 160.191L0 152.675Z" fill="#FFD966"/>
<path id="Vector_124" d="M23.4957 115.939L19.4039 136.087C18.2993 136.793 17.1452 137.418 15.9505 137.958C15.5339 138.106 15.1375 138.287 14.7612 138.456C13.8582 138.915 12.8872 139.226 11.8856 139.377C9.97743 139.633 7.73335 141.625 6.571 142.796L6.4299 142.937C5.62365 143.725 3.49378 145.824 2.9294 148.617C2.54643 150.541 1.78721 155.104 1.45127 157.405L0.833136 152.742C1.39752 150.945 6.45678 134.976 12.1342 127.393C15.3994 123.088 19.225 119.241 23.5091 115.953L23.4957 115.939ZM24.6983 114.055C19.6448 117.618 15.1827 121.955 11.4757 126.908C5.32802 135.118 0 152.675 0 152.675L0.987666 160.205C0.987666 160.205 2.04924 159.141 2.04924 158.859C2.04924 158.576 3.178 151.537 3.72222 148.798C4.26644 146.06 6.52397 144.007 7.1421 143.415C7.76023 142.823 10.1454 140.474 11.9931 140.225C13.8408 139.976 14.9292 139.236 16.2259 138.758C17.5736 138.145 18.8759 137.437 20.1228 136.639L24.6983 114.055Z" fill="black"/>
<path id="Vector_125" d="M25.2426 35.9951C25.2426 35.9951 24.6984 26.5741 33.8561 24.0708C43.2154 23.593 44.7876 27.2874 46.2255 30.9145C48.8201 37.5008 50.6245 44.3724 51.6005 51.3851C52.6285 61.479 53.3743 64.4466 53.2399 69.9243C53.1055 75.402 52.4202 90.6573 52.4202 90.6573C52.4202 90.6573 51.4527 115.401 51.4527 117.877C51.4527 120.354 52.1649 132.897 52.3732 135.528C52.5815 138.159 53.1526 145.077 53.2735 145.622C53.3944 146.167 56.0954 180.763 53.2735 196.233C50.4516 211.704 48.9533 218.265 45.5402 221.549C42.127 224.833 32.9693 222.222 31.0544 220.459C29.1395 218.696 7.14216 217.31 16.273 162.015L19.5921 135.427C19.5921 135.427 25.3972 105.98 26.5864 101.35C27.7756 96.7204 32.8618 78.0466 33.0835 69.3187C33.3052 60.5907 33.4665 43.4445 25.2426 35.9951Z" fill="#FFD966"/>
<path id="Vector_126" d="M35.435 25.3896C42.5839 25.3896 43.6925 28.189 44.9758 31.446C47.5406 37.9213 49.3225 44.6807 50.2836 51.5801C50.6263 54.9447 50.9555 57.549 51.1974 59.6553C51.7147 63.9889 52.0036 66.3846 51.9163 69.9376C51.7819 75.3211 51.1033 90.4957 51.0966 90.6504C51.0563 91.6666 50.1089 115.448 50.1089 117.911C50.1089 120.374 50.8211 132.897 51.0294 135.636C51.0294 135.723 51.7349 144.572 51.9499 145.811C52.1985 147.661 54.6374 181.126 51.9499 195.957C49.2624 210.789 47.7506 217.525 44.5995 220.546C43.7798 221.334 42.3487 221.724 40.4204 221.724C36.7116 221.724 32.8281 220.23 31.9547 219.416C31.421 219.001 30.8182 218.685 30.1742 218.48C27.7487 217.484 22.7029 215.412 19.2091 207.835C14.7546 198.171 14.2171 182.781 17.6235 162.203V162.143L20.9359 135.643C21.2046 134.297 26.7745 106.161 27.9234 101.68C28.0376 101.229 28.1922 100.643 28.3736 99.9436C30.1339 93.2143 34.2525 77.3803 34.4608 69.3589C34.6624 61.6337 35.1327 43.7203 26.6133 35.423C26.6603 33.5725 27.3322 27.3478 34.1047 25.4233C34.575 25.4233 35.0386 25.4233 35.4485 25.4233L35.435 25.3896ZM35.4485 24.0774C34.9513 24.0774 34.4205 24.0774 33.8696 24.1178C24.6984 26.6211 25.2426 35.995 25.2426 35.995C33.4664 43.3972 33.3052 60.5839 33.0835 69.3051C32.8617 78.0263 27.7756 96.6799 26.5864 101.337C25.3971 105.993 19.5921 135.427 19.5921 135.427L16.3133 161.981C7.1623 217.276 29.1597 218.642 31.0947 220.425C32.3444 221.583 36.6646 223.117 40.501 223.117C42.5167 223.117 44.4181 222.686 45.6073 221.542C49.0205 218.258 50.5255 211.69 53.3407 196.227C56.1558 180.763 53.4616 146.134 53.3407 145.615C53.2197 145.097 52.6688 138.213 52.4403 135.555C52.2119 132.897 51.5199 120.367 51.5199 117.904C51.5199 115.441 52.5075 90.6975 52.5075 90.6975C52.5075 90.6975 53.1794 75.4422 53.3272 69.9646C53.475 64.4869 52.7158 61.5462 51.6878 51.4253C50.7118 44.4127 48.9075 37.541 46.3128 30.9548C44.969 27.543 43.4909 24.0707 35.5224 24.0707L35.4485 24.0774Z" fill="black"/>
<path id="Vector_127" d="M104.759 143.664C99.7808 141.161 85.2749 140.696 81.3242 140.616C82.6209 137.204 87.2636 124.768 90.0587 114.519C93.109 103.436 96.3609 79.2779 96.8581 75.6441L115.402 71.1489C114.723 80.8728 107.743 126.026 107.669 126.497L104.759 143.664Z" fill="#FFD966"/>
<path id="Vector_128" d="M114.643 72.0238C113.655 83.3089 107.078 125.939 107.004 126.376L104.249 142.715C98.8739 140.595 87.1227 140.091 82.2918 139.97C83.9245 135.629 88.1238 124.23 90.7172 114.728C93.7004 103.833 96.7642 81.1286 97.436 76.2094L114.629 72.044L114.643 72.0238ZM116.108 70.3146L96.2401 75.0991C96.2401 75.0991 92.7194 102.306 89.4205 114.351C86.1216 126.397 80.3501 141.268 80.3501 141.268C80.3501 141.268 101.178 141.47 105.257 144.754L108.334 126.585C108.334 126.585 115.886 77.811 116.108 70.3146Z" fill="black"/>
<path id="Vector_129" d="M74.5788 157.944C74.5788 157.944 79.3895 150.891 86.5383 151.1C93.6871 151.308 94.8696 151.578 96.2403 153.361C96.2403 153.361 104.914 147.681 108.468 146.854C108.468 146.854 105.821 141.659 98.229 141.315C90.0186 140.299 81.2775 140.084 80.3503 140.219C80.3503 140.219 76.3526 142.816 75.1231 147.13C73.8935 151.443 73.8935 155.137 74.5788 157.944Z" fill="#C00000"/>
<path id="Vector_130" d="M81.5395 141.524C87.0626 141.608 92.5774 141.983 98.0611 142.648H98.2022C102.596 142.843 105.116 144.801 106.345 146.154C103.087 147.5 98.5314 150.306 96.5023 151.598C94.9032 150.131 92.7263 149.916 86.6055 149.741H86.2628C81.4186 149.741 77.6695 152.614 75.5127 154.794C75.4076 152.329 75.7142 149.864 76.4198 147.5C77.3134 144.35 79.974 142.17 80.8206 141.538H81.5395V141.524ZM81.5395 140.192C81.1427 140.182 80.7456 140.196 80.3503 140.232C80.3503 140.232 76.3526 142.83 75.1231 147.143C73.8935 151.457 73.8935 155.151 74.5788 157.957C74.5788 157.957 79.2282 151.107 86.2292 151.107H86.5383C93.7073 151.308 94.8696 151.584 96.2403 153.368C96.2403 153.368 104.914 147.688 108.468 146.86C108.468 146.86 105.821 141.665 98.229 141.322C92.6903 140.643 87.1191 140.261 81.5395 140.178V140.192Z" fill="black"/>
<path id="Vector_131" d="M55.9277 282.012C55.9277 282.012 54.1472 264.63 57.567 255.458C60.9869 246.286 63.614 236.575 79.1546 227.403C84.6237 223.09 91.8666 221.105 91.8666 221.105C91.8666 221.105 96.8116 220.25 100.178 223.312C103.544 226.374 106.413 243.5 106.413 243.5C106.413 243.5 106.473 249.556 106.413 249.772C106.352 249.987 114.616 254.22 119.85 252.988C119.85 253.331 121.013 259.22 117.801 268.318C117.801 268.318 110.081 261.339 107.145 256.757C104.209 252.174 97.3021 241.084 95.2528 236.084C94.1442 236.017 88.6281 235.472 78.5163 243.271C69.4257 252.019 66.147 259.22 65.7506 261.817C65.2802 264.791 64.5344 280.989 64.5344 280.989C64.5344 280.989 62.9622 286.049 60.436 287.146C57.7686 287.146 56.1023 284.212 55.9277 282.012Z" fill="#C00000"/>
<path id="Vector_132" d="M93.4988 222.007C95.6978 221.923 97.8506 222.653 99.5457 224.059C101.817 226.125 104.309 236.845 105.445 243.574C105.445 246.158 105.485 249.038 105.445 249.577L105.331 249.974L105.633 250.377C106.177 251.104 112.775 254.213 117.787 254.213C118.198 254.211 118.608 254.189 119.017 254.146C119.263 258.33 118.711 262.523 117.391 266.501C115.153 264.394 110.215 259.576 108.045 256.198C107.051 254.698 98.5244 241.34 96.1863 235.707L95.9444 235.129L95.3129 235.088H95.239C95.0575 235.088 94.7754 235.088 94.3991 235.088C91.2681 235.088 85.8595 236.374 77.8977 242.491H77.8574L77.8171 242.531C68.4108 251.575 65.1588 258.991 64.7423 261.642C64.2787 264.502 63.5866 279.138 63.506 280.787C62.9484 282.516 61.618 285.309 60.1936 286.11C58.2788 285.942 57.0358 283.566 56.9014 281.891C56.9014 281.716 55.1881 264.637 58.4804 255.794C58.7289 255.121 58.9708 254.449 59.2127 253.776C62.2966 245.31 65.4948 236.555 79.6379 228.204H79.6983L79.7521 228.164C84.7509 224.22 91.4025 222.249 92.0542 222.06C92.5154 222 92.98 221.971 93.445 221.973L93.4988 222.007ZM93.445 220.963C92.9078 220.958 92.371 220.994 91.8392 221.071C91.8392 221.071 84.6232 223.07 79.1541 227.403C63.5799 236.575 61.0133 246.293 57.5666 255.458C54.1198 264.623 55.9272 282.012 55.9272 282.012C56.1019 284.212 57.7682 287.146 60.4355 287.146C62.9618 286.049 64.534 280.989 64.534 280.989C64.534 280.989 65.2798 264.791 65.7635 261.824C66.1734 259.226 69.4522 252.039 78.5293 243.278C87.0487 236.71 92.3028 236.064 94.4125 236.064C94.8089 236.064 95.0844 236.064 95.2658 236.064C97.3151 241.064 104.215 252.147 107.158 256.736C110.101 261.326 117.814 268.297 117.814 268.297C121.046 259.226 119.877 253.352 119.877 252.995C119.182 253.151 118.472 253.228 117.76 253.224C112.661 253.224 106.338 249.96 106.412 249.778C106.486 249.597 106.412 243.507 106.412 243.507C106.412 243.507 103.55 226.374 100.177 223.319C98.0205 221.354 95.2054 221.004 93.4585 221.004L93.445 220.963Z" fill="black"/>
<g id="FACE">
<path id="Vector_133" d="M95.9312 168.28C95.9312 168.28 94.2918 172.896 93.9828 175.965C93.6737 179.033 93.1631 190.036 93.1631 194.76C93.1631 199.484 93.7812 216.865 95.4878 221.179C97.5034 221.959 99.5661 222.989 101.615 227.969C103.665 232.948 105.593 244.032 105.593 244.752C106.413 245.317 110.202 248.036 110.202 248.036C110.202 248.036 114.233 249.731 115.738 247.625C117.243 245.519 119.481 241.979 119.77 239.005C119.77 235.411 119.467 227.76 118.338 224.2C117.21 220.641 116.323 215.735 113.575 212.808C113.367 211.987 111.008 206.953 112.957 201.617C115.859 196.233 118.392 193.717 123.707 192.411C129.377 193.508 128.968 197.546 129.169 199.733C129.371 201.92 128.081 208.938 126.918 211.63C125.756 214.322 124.117 216.966 125.622 219.153C127.127 221.34 129.653 224.84 131.561 223.191C133.469 221.542 134.705 216.966 135.183 214.16C135.66 211.354 136.311 200.13 135.801 196.233C135.29 192.337 133.852 187.68 131.796 185.52C128.82 183.501 127.731 183.912 127.355 183.912C126.979 183.912 126.771 183.024 127.288 182.203C127.805 181.382 129.781 175.393 127.463 169.168C125.145 162.943 125.413 160.487 119.877 156.578C119.534 156.578 116.874 154.862 113.797 155.481C113.164 155.846 112.643 156.376 112.288 157.015C111.933 157.654 111.758 158.377 111.781 159.108L111.64 165.676C111.64 165.676 112.365 168.138 113.32 168.562C114.274 168.986 116.598 168.704 116.598 168.704C116.598 168.704 118.103 168.771 118.923 171.025C119.743 173.28 120.562 175.615 120.562 178.078C120.494 180.294 120.007 182.477 119.125 184.511C117.674 187.032 115.933 189.374 113.938 191.489C112.312 192.983 110.968 195.237 110.383 195.035C109.799 194.834 107.306 194.76 106.695 192.707C106.083 190.655 104.095 184.43 104.921 180.117C105.747 175.803 106.319 175.527 106.319 175.527C106.937 173.313 106.937 170.972 106.319 168.758C105.264 165.265 103.631 164.168 103.631 164.168C103.631 164.168 100.063 161.773 95.9312 168.28Z" fill="#FFF1C8"/>
<path id="Vector_134" d="M115.167 156.355C116.478 156.402 117.764 156.723 118.943 157.298C119.151 157.385 119.306 157.459 119.447 157.506C123.478 160.366 124.09 162.297 125.339 166.113C125.669 167.109 126.011 168.239 126.522 169.518C128.719 175.42 126.777 181.113 126.435 181.671C126.183 182.041 126.031 182.469 125.992 182.914C125.953 183.359 126.029 183.807 126.213 184.215C126.33 184.417 126.497 184.586 126.698 184.704C126.9 184.822 127.128 184.885 127.362 184.888H127.637C127.725 184.888 127.819 184.888 127.933 184.888C128.679 184.888 129.787 185.379 131.145 186.301C133.026 188.353 134.336 192.801 134.8 196.334C135.283 200.035 134.672 211.139 134.188 213.965C133.63 217.242 132.401 221.118 130.909 222.404C130.795 222.518 130.641 222.583 130.479 222.585C129.21 222.585 127.12 219.55 126.448 218.548C125.548 217.236 126.179 215.634 127.322 213.164C127.496 212.781 127.678 212.397 127.839 212.02C129.048 209.241 130.399 202.095 130.177 199.679C130.177 199.463 130.177 199.228 130.123 199.006C129.996 196.725 129.781 192.573 123.895 191.442L123.68 191.402L123.465 191.442C117.499 192.896 114.851 195.971 112.043 201.146L112.009 201.206V201.28C110.195 206.26 111.828 210.883 112.446 212.626C112.507 212.801 112.58 212.996 112.594 213.057L112.654 213.312L112.836 213.501C114.851 215.654 115.826 219.133 116.692 222.195C116.928 223.009 117.143 223.783 117.364 224.517C118.379 227.7 118.748 234.86 118.748 238.938C118.594 240.371 117.788 242.928 114.885 247.013C114.778 247.174 114.442 247.645 113.246 247.645C112.36 247.612 111.486 247.432 110.659 247.114L106.513 244.153C106.171 241.656 104.444 232.161 102.549 227.558C100.534 222.673 98.4374 221.28 96.2806 220.385C94.8428 215.869 94.1709 200.19 94.1709 194.76C94.1709 190.116 94.6748 179.175 94.9839 176.079C95.3772 173.574 96.0048 171.111 96.8584 168.724C98.9681 165.44 100.782 164.747 101.938 164.747C102.327 164.737 102.713 164.825 103.06 165.003C103.06 165.003 104.444 166.019 105.364 169.04C105.902 170.993 105.923 173.052 105.425 175.016C105.049 175.534 104.538 176.765 103.94 179.921C103.107 184.275 104.887 190.17 105.647 192.707L105.741 193.01C106.413 195.291 108.744 195.742 109.732 195.931L110.074 196.005C110.204 196.05 110.34 196.073 110.477 196.072C111.317 196.072 111.935 195.318 112.876 194.174C113.415 193.488 114.001 192.841 114.63 192.236C116.719 190.027 118.535 187.573 120.038 184.928C120.977 182.758 121.497 180.429 121.57 178.064C121.57 175.372 120.67 172.862 119.87 170.662C119.071 168.461 117.452 167.708 116.645 167.674H116.565H116.484C116.484 167.674 115.765 167.755 115.013 167.755C114.58 167.782 114.146 167.735 113.729 167.614C113.208 167.005 112.83 166.288 112.621 165.514L112.755 159.114V159.014C112.749 158.501 112.875 157.996 113.121 157.547C113.367 157.098 113.725 156.72 114.159 156.45C114.493 156.396 114.83 156.369 115.167 156.369V156.355ZM115.167 155.36C114.716 155.361 114.266 155.406 113.823 155.494C113.191 155.859 112.67 156.39 112.315 157.028C111.96 157.667 111.784 158.391 111.808 159.121L111.64 165.676C111.64 165.676 112.365 168.138 113.32 168.562C113.866 168.739 114.439 168.816 115.013 168.791C115.542 168.789 116.072 168.76 116.598 168.704C116.598 168.704 118.103 168.771 118.923 171.025C119.743 173.28 120.562 175.615 120.562 178.078C120.494 180.294 120.007 182.477 119.125 184.511C117.674 187.032 115.933 189.374 113.938 191.489C112.365 192.929 111.109 195.062 110.464 195.062H110.383C109.765 194.854 107.306 194.787 106.695 192.734C106.083 190.682 104.095 184.43 104.921 180.117C105.747 175.803 106.319 175.527 106.319 175.527C106.937 173.313 106.937 170.972 106.319 168.758C105.264 165.265 103.631 164.168 103.631 164.168C103.117 163.872 102.531 163.723 101.938 163.738C100.513 163.738 98.3231 164.532 95.9447 168.28C95.9447 168.28 94.3053 172.896 93.9962 175.978C93.6872 179.06 93.1631 190.036 93.1631 194.76C93.1631 199.484 93.7812 216.865 95.4878 221.179C97.5034 221.959 99.5661 222.989 101.615 227.969C103.665 232.948 105.593 244.032 105.593 244.752C106.413 245.317 110.202 248.036 110.202 248.036C111.179 248.435 112.218 248.663 113.272 248.708C113.738 248.747 114.207 248.672 114.637 248.487C115.066 248.303 115.445 248.016 115.738 247.652C117.223 245.546 119.481 242.006 119.77 239.032C119.77 235.438 119.467 227.787 118.338 224.227C117.21 220.667 116.323 215.762 113.575 212.835C113.367 212.014 111.008 206.98 112.957 201.644C115.859 196.26 118.392 193.743 123.707 192.438C129.377 193.535 128.968 197.572 129.169 199.759C129.371 201.947 128.081 208.938 126.918 211.63C125.756 214.322 124.117 216.966 125.622 219.153C126.851 220.95 128.773 223.622 130.479 223.622C130.881 223.617 131.266 223.463 131.561 223.191C133.476 221.549 134.705 216.966 135.183 214.16C135.66 211.354 136.311 200.13 135.801 196.233C135.29 192.337 133.852 187.68 131.796 185.52C129.72 184.087 128.564 183.872 127.926 183.872C127.644 183.872 127.469 183.912 127.355 183.912C126.979 183.912 126.771 183.024 127.288 182.203C127.805 181.382 129.781 175.393 127.463 169.168C125.145 162.943 125.413 160.487 119.877 156.578C119.588 156.578 117.633 155.346 115.174 155.346L115.167 155.36Z" fill="black"/>
<path id="Vector_135" d="M99.4185 187.27C99.4185 187.27 96.6504 192.297 97.161 206.247C99.4185 220.378 102.798 226.058 105.465 226.67C107.116 227.048 108.794 227.289 110.484 227.39C110.484 227.39 111.156 226.569 109.456 225.237C107.757 223.904 104.229 221.3 102.738 213.978C100.856 206.704 100.722 205.23 100.447 203.111C100.171 200.991 100.447 191.462 100.447 190.325C100.447 189.188 100.043 185.668 99.4185 187.27Z" fill="white"/>
<path id="Vector_136" d="M99.1968 192.236C99.0893 197.108 99.0221 201.778 99.2438 203.299C99.2774 203.528 99.311 203.75 99.3379 203.972C99.5999 205.829 99.8687 207.747 101.548 214.268C103.067 221.623 106.628 224.564 108.442 225.99C107.656 225.883 106.715 225.728 105.754 225.506C104.102 225.122 100.702 220.614 98.3637 206.139C98.1167 201.488 98.3962 196.824 99.1968 192.236ZM99.7276 186.853C99.6335 186.853 99.526 186.974 99.4185 187.263C99.4185 187.263 96.6504 192.29 97.161 206.253C99.4185 220.385 102.798 226.064 105.465 226.677C107.116 227.055 108.794 227.296 110.484 227.397C110.484 227.397 111.156 226.576 109.456 225.243C107.757 223.911 104.229 221.307 102.738 213.985C100.856 206.711 100.722 205.237 100.447 203.117C100.171 200.998 100.447 191.469 100.447 190.332C100.447 189.403 100.178 186.846 99.7343 186.846L99.7276 186.853Z" fill="black"/>
<path id="Vector_137" d="M107.441 194.76C107.441 194.76 104.162 199.827 103.893 202.902C103.893 206.395 104.095 209.477 104.914 210.365C105.734 211.253 109.087 214.059 110.585 214.194C112.083 214.328 113.118 213.171 112.91 211.502C112.701 209.833 112.157 202.209 111.062 199.208C109.967 196.206 109.355 194.894 109.087 194.76C108.818 194.625 107.85 194.134 107.441 194.76Z" fill="#6A5939"/>
<path id="Vector_138" d="M108.28 195.937C108.851 197.151 109.354 198.395 109.785 199.665C110.612 201.933 111.129 207.451 111.398 210.096C111.465 210.769 111.519 211.354 111.566 211.691C111.597 211.855 111.596 212.025 111.561 212.189C111.527 212.353 111.46 212.508 111.364 212.646C111.293 212.719 111.207 212.777 111.112 212.814C111.017 212.851 110.915 212.867 110.813 212.861H110.692C109.859 212.787 106.903 210.553 105.895 209.497C105.741 209.295 105.223 208.245 105.223 203.01C105.431 200.991 107.279 197.626 108.28 195.978V195.937ZM108.045 194.477C107.922 194.469 107.8 194.495 107.691 194.552C107.582 194.609 107.491 194.695 107.427 194.8C107.427 194.8 104.148 199.867 103.879 202.942C103.879 206.435 104.081 209.517 104.901 210.405C105.72 211.294 109.073 214.1 110.571 214.234H110.813C112.157 214.234 113.091 213.11 112.896 211.543C112.701 209.975 112.157 202.209 111.062 199.208C109.967 196.206 109.355 194.894 109.086 194.76C108.771 194.578 108.421 194.468 108.058 194.437L108.045 194.477Z" fill="black"/>
<g id="EYES">
<path id="Vector_139" d="M117.895 174.915C116.807 173.616 112.977 172.728 109.766 174.504C108.41 175.814 107.429 177.463 106.925 179.281C106.42 181.098 106.411 183.018 106.897 184.841C108.912 187.916 110.726 189.491 114.072 188.67C117.008 186.274 118.648 184.571 119.125 181.698C119.125 178.818 118.99 176.214 117.895 174.915ZM112.124 187.404C109.047 187.606 107.716 184.121 107.421 182.021C107.125 179.921 110.108 176.335 110.108 176.335L111.492 178.273C110.619 179.141 109.544 182.034 110.007 183.32C110.471 184.605 112.695 185.116 112.695 184.598C112.695 184.08 111.351 183.212 111.519 181.907C111.687 180.601 113.622 180.258 113.622 180.258C113.622 180.258 117.311 183.542 117.311 184.053C117.311 184.565 115.201 187.162 112.124 187.404ZM117.008 182.021L111.593 176.638C111.163 175.204 111.815 175.13 112.836 174.619C113.857 174.107 115.436 174.827 116.256 175.238C117.076 175.648 118.581 178.387 118.513 180.231C118.446 182.075 117.015 181.96 117.015 181.96L117.008 182.021Z" fill="black"/>
<path id="Vector_140" d="M116.256 175.292C115.436 174.881 113.851 174.195 112.836 174.673C111.822 175.15 111.163 175.224 111.593 176.691L117.015 181.96C117.015 181.96 118.453 182.102 118.52 180.251C118.587 178.401 117.076 175.669 116.256 175.292Z" fill="#FFD966"/>
<path id="Vector_141" d="M113.562 180.184C113.562 180.184 111.613 180.5 111.459 181.833C111.304 183.165 112.587 184.033 112.634 184.524C112.682 185.016 110.431 184.524 109.947 183.246C109.463 181.967 110.558 179.067 111.432 178.199L110.048 176.261C110.048 176.261 107.078 179.827 107.36 181.947C107.642 184.067 109 187.553 112.063 187.33C115.127 187.108 117.19 184.457 117.19 183.966C117.19 183.475 113.562 180.184 113.562 180.184Z" fill="white"/>
<path id="Vector_142" d="M119.031 198.488C116.343 199.645 115.107 201.65 113.495 205.089C113.495 208.541 115.51 209.954 118.95 211.146C120.829 211.17 122.681 210.692 124.313 209.759C125.946 208.827 127.3 207.475 128.236 205.843C129.183 202.29 127.396 198.784 125.871 198.037C124.346 197.29 121.792 197.788 119.031 198.488ZM117.244 200.863C117.741 200.742 121.813 203.555 121.813 203.555C121.813 203.555 121.98 205.527 120.731 205.998C119.481 206.469 118.319 205.439 117.815 205.513C117.311 205.587 118.346 207.653 119.703 207.788C121.06 207.922 123.6 206.186 124.225 205.096L126.435 205.971C126.435 205.971 123.707 209.726 121.577 209.941C119.447 210.156 115.745 209.705 115.201 206.664C114.657 203.622 116.747 200.991 117.244 200.863ZM120.549 198.737C122.323 198.218 125.34 199.019 125.924 199.712C126.509 200.406 127.571 201.792 127.356 202.895C127.141 203.999 127.228 204.652 125.73 204.578L119.246 200.607C119.246 200.607 118.776 199.248 120.549 198.737Z" fill="black"/>
<path id="Vector_143" d="M125.931 199.712C126.529 200.385 127.577 201.792 127.362 202.895C127.147 203.999 127.234 204.652 125.736 204.578L119.252 200.607C119.252 200.607 118.775 199.261 120.549 198.737C122.323 198.212 125.339 199.019 125.931 199.712Z" fill="#FFD966"/>
<path id="Vector_144" d="M121.812 203.555C121.812 203.555 121.98 205.527 120.731 205.998C119.481 206.469 118.319 205.439 117.815 205.513C117.311 205.587 118.345 207.653 119.703 207.788C121.06 207.922 123.6 206.186 124.224 205.096L126.435 205.971C126.435 205.971 123.707 209.726 121.577 209.941C119.447 210.156 115.745 209.705 115.201 206.664C114.657 203.622 116.746 200.991 117.217 200.863C117.687 200.735 121.812 203.555 121.812 203.555Z" fill="white"/>
</g>
</g>
<path id="Vector_145" d="M86.1084 180.305L84.7646 180.204C86.0009 164.054 96.3008 151.813 96.4016 151.685L97.4229 152.567C97.3288 152.681 87.3111 164.572 86.1084 180.305Z" fill="black"/>
<path id="Vector_146" d="M72.4624 160.783C72.4624 160.783 74.9685 162.526 79.5306 162.937" stroke="black" stroke-width="2" stroke-miterlimit="10"/>
<g id="CLAW">
<path id="Vector_147" d="M182.671 251.494L186.837 248.89L189.161 243.756L193.26 232.672L194.08 234.113L194.422 241.515V257.867C194.422 257.867 193.535 262.658 192.306 263.822C191.076 264.987 190.257 263.069 190.666 259.112C190.734 258.701 189.847 260.142 189.847 260.142C189.847 260.142 187.32 263.358 186.292 262.672C185.264 261.985 186.837 257.403 186.837 257.403L185.493 260.276C185.493 260.276 182.967 261.918 182.006 261.03C181.045 260.142 182.147 257.059 183.511 255.646C184.875 254.233 186.521 250.377 186.521 250.377L186.555 249.415L182.671 251.494Z" fill="black"/>
<path id="Vector_148" d="M181.609 257.066C181.609 257.066 187.965 245.983 188.886 243.83L189.45 242.955C189.45 242.955 189.86 243.776 189.45 246.319C188.94 248.994 188.267 251.634 187.435 254.226C187.079 255.249 186.252 258.331 185.842 259.105C185.432 259.879 185.13 261.259 184.055 261.259C182.98 261.259 181.334 259.771 181.334 258.796C181.343 258.209 181.436 257.627 181.609 257.066Z" fill="#EFEFEF" stroke="black" stroke-miterlimit="10"/>
<path id="Vector_149" d="M186.837 258.197C186.468 259.494 186.194 260.816 186.017 262.154C186.071 262.867 188.033 262.766 189.296 260.175C190.559 257.584 191.244 251.373 191.244 251.218C191.244 251.064 191.708 243.143 191.654 242.598C191.654 241.468 191.654 241.75 191.654 241.75C191.654 241.75 187.381 255.989 186.837 258.197Z" fill="#EFEFEF" stroke="black" stroke-miterlimit="10"/>
<path id="Vector_150" d="M190.801 263.607C190.801 263.607 192.239 264.664 192.958 262.302C193.676 259.94 194.153 248.655 194.187 245.707C194.221 242.76 193.515 236.024 193.515 236.024L191.977 246.017L190.801 263.607Z" fill="#EFEFEF" stroke="black" stroke-miterlimit="10"/>
</g>
</g>
</g>
</svg>
