<svg width="600" height="197" viewBox="0 0 600 197" fill="none" xmlns="http://www.w3.org/2000/svg">
<g id="WOODEN BOARD Camel">
<path id="Vector" d="M396.247 80.3206V66.0289L395.056 33.0558L394.886 24.3311L390.618 24.2834C390.292 27.3119 389.427 36.2749 390.006 41.0796V41.1681V41.2566C389.897 44.6117 390.149 48.7427 390.394 52.7376C390.591 55.9906 390.782 59.0599 390.734 61.3194C391.319 67.3423 391.476 71.133 390.734 75.0735C390.378 77.2563 390.15 79.4584 390.054 81.6681C390.064 82.4506 389.97 83.2309 389.775 83.9888C389.775 84.0772 389.741 84.2338 389.727 84.3563C389.591 85.452 389.278 88.0177 387.093 88.4805C386.644 88.56 386.188 88.5942 385.732 88.5825C385.051 88.5825 384.133 88.5349 383.105 88.4873C381.792 88.4192 380.301 88.3444 378.79 88.3444C376.88 88.2871 374.971 88.4885 373.115 88.9433C368.425 90.3044 354.372 91.2027 353.48 91.2639C352.426 91.3728 323.332 94.4898 311.51 94.8505C305.991 95.3813 293.067 96.3886 279.381 97.457C262.401 98.7773 244.85 100.145 241.522 100.608C238.616 101.01 226.461 102.017 213.619 103.085C199.865 104.222 185.648 105.399 182.946 105.807C171.885 107.252 160.752 108.076 149.599 108.278H128.379C128.093 108.278 99.8706 106.168 84.7282 106.168C69.5857 106.168 34.0947 106.849 33.7408 106.849C22.9131 107.271 6.96762 107.89 2.88428 108.183V112.525H50.5233L179.414 111.694L276.673 104.208L383.445 93.8297H383.52L395.348 93.4417L396.247 80.3206Z" fill="#898874"/>
<path id="Vector_2" d="M396.444 94.5784L397.431 80.3616V65.9814L396.247 32.9879L396.036 23.1879L389.605 23.113C389.605 23.113 388.155 35.1997 388.876 41.2227C388.679 47.4498 389.707 56.4808 389.605 61.3604C390.108 66.5394 390.285 70.0443 389.85 73.4199C389.781 73.8962 389.707 74.3794 389.611 74.8558C389.339 76.2986 389.169 77.8231 389.046 79.191C389.046 79.6538 388.978 80.0893 388.951 80.5044C388.876 81.5321 388.829 82.3964 388.781 82.9477C388.781 83.0566 388.781 83.1586 388.781 83.2403C388.771 83.3537 388.749 83.4656 388.713 83.5738C388.661 83.7254 388.629 83.8833 388.618 84.0434C388.584 84.2679 388.556 84.5538 388.509 84.8532C388.457 85.1708 388.385 85.4846 388.291 85.7924C388.201 86.1001 388.063 86.3918 387.883 86.6567C387.714 86.9119 387.478 87.1165 387.202 87.2488C387.1 87.2899 386.996 87.324 386.889 87.3509C386.787 87.3509 386.658 87.3509 386.515 87.3985H386.46H385.998H385.154H384.752H384.412H383.949H383.575L382.799 87.3577H382.289H381.826H381.275H380.832H380.24H379.818H379.138H378.736C378.287 87.3577 377.845 87.3577 377.375 87.3577H377.021C376.551 87.3577 376.089 87.4053 375.66 87.453C375.218 87.4938 374.789 87.555 374.374 87.6231L374.047 87.6843C373.631 87.7542 373.22 87.8473 372.815 87.9634L372.346 88.0859C372.019 88.1675 371.665 88.2492 371.257 88.3309C370.46 88.4874 369.549 88.6371 368.534 88.7801C368.044 88.8549 367.534 88.923 367.01 88.991L365.411 89.1816C364.866 89.2496 364.322 89.3041 363.771 89.3653C361.307 89.6239 358.843 89.8349 356.965 89.9846L355.257 90.1139L353.399 90.2364L352.092 90.3793L350.561 90.5359L349.608 90.638L345.43 91.0667L344.068 91.2028L341.836 91.4274L337.821 91.8153L336.133 91.9787L334.493 92.1284H334.35L332.683 92.2849L330.934 92.4415L330.056 92.5163L329.103 92.6048L327.429 92.7477L325.693 92.8906L322.359 93.1628H322.229L320.705 93.2785L319.779 93.3466L318.316 93.4487L315.315 93.6324L314.634 93.6733C313.498 93.7345 312.45 93.7821 311.511 93.8093C308.019 94.1428 301.425 94.6805 293.619 95.2998L289.617 95.6128L286.895 95.8306L285.534 95.9395L282.709 96.1573L281.287 96.2662L272.712 96.9467L269.888 97.1713L267.104 97.3891L265.743 97.498C258.937 98.0356 252.717 98.5324 248.219 98.9271L245.735 99.1449L244.326 99.2742C243.033 99.4035 242.066 99.5056 241.502 99.5805C240.937 99.6554 240.011 99.7643 238.779 99.8868L237.466 100.009L235.152 100.227L232.484 100.465L231.525 100.547L229.517 100.724L227.394 100.901L224.025 101.187L221.691 101.384L218.077 101.683L214.381 101.99L209.42 102.405L202.145 103.01L200.981 103.106L198.701 103.303L196.503 103.487L194.414 103.671L192.433 103.841L189.711 104.086L188.166 104.235L187.343 104.31L185.982 104.446C184.512 104.596 183.43 104.719 182.858 104.807L181.653 104.984L180.353 105.154C179.108 105.304 177.631 105.474 175.977 105.644L173.936 105.848L172.861 105.951C165.579 106.631 156.337 107.264 149.722 107.264H128.624L125.46 107.039L121.574 106.774L120.247 106.686L119.566 106.645L117.368 106.502L116.599 106.454L115.013 106.359L113.373 106.257L112.536 106.209L110.821 106.114L109.072 106.012C107.03 105.896 104.893 105.787 102.77 105.685L99.1221 105.522L98.2169 105.481L96.4203 105.413L93.7661 105.318L92.0375 105.27C89.4786 105.195 87.0626 105.154 84.9052 105.154H79.209C75.6156 105.154 71.5323 105.222 67.3196 105.27L59.8879 105.372L56.7301 105.42H54.6885L51.6668 105.467L46.0181 105.556H44.2895H42.663L33.9314 105.712L32.897 105.746L31.0663 105.814L30.1271 105.855L27.9425 105.937H27.3436L19.0681 106.27L12.5279 106.543L9.80566 106.665L6.25996 106.842C5.03495 106.903 4.00731 106.965 3.2587 107.012L2.45564 107.073C2.27741 107.085 2.1001 107.107 1.9248 107.141V113.682H50.5234L178.632 112.858H179.462L228.149 109.115L276.802 105.379L285.466 104.549L383.568 95.0208L396.444 94.5784ZM383.514 93.8434L276.686 104.222L179.428 111.708L50.5234 112.525H2.88439V108.183C6.96774 107.89 22.8996 107.244 33.7273 106.822C34.0812 106.822 69.5314 106.141 84.7147 106.141C99.8979 106.141 128.08 108.23 128.366 108.251H149.558C160.711 108.049 171.844 107.224 182.906 105.78C185.628 105.352 199.824 104.174 213.578 103.058C226.441 101.99 238.596 100.982 241.481 100.581C244.809 100.118 262.361 98.7502 279.341 97.4299C293.027 96.3614 305.95 95.3542 311.47 94.8234C323.291 94.4627 352.385 91.3457 353.44 91.2369C354.331 91.1756 368.412 90.2705 373.074 88.9162C374.93 88.4614 376.839 88.26 378.75 88.3173C380.26 88.3173 381.751 88.3921 383.064 88.4602C384.092 88.5078 384.977 88.5555 385.691 88.5555C386.147 88.5671 386.603 88.5329 387.052 88.4534C389.237 87.9906 389.55 85.4249 389.686 84.3292C389.686 84.2067 389.686 84.0502 389.734 83.9617C389.929 83.2039 390.023 82.4235 390.013 81.641C390.11 79.4313 390.337 77.2293 390.693 75.0464C391.449 71.106 391.292 67.3153 390.693 61.2923C390.741 59.0329 390.551 55.9636 390.353 52.7105C390.108 48.7156 389.856 44.5846 389.965 41.2295V41.141V41.0525C389.387 36.2478 390.251 27.2849 390.578 24.2564L394.845 24.304L395.035 33.0015L396.247 66.0018V80.2935L395.335 93.4282L383.507 93.8162L383.514 93.8434Z" fill="#4E5B70"/>
<path id="Vector_3" d="M389.591 23.1129C389.591 23.1129 390.769 9.85565 394.437 7.26953L406.932 23.1129C406.932 23.1129 402.052 24.474 401.222 27.3052C400.753 30.531 399.562 39.1945 399.664 41.6853C399.453 44.4076 399.296 55.3373 399.453 58.6585C399.609 61.9796 400.494 80.5656 400.494 81.2394C400.551 81.9411 400.524 82.6472 400.412 83.3423C400.31 83.9412 399.949 93.5506 399.051 95.1772C398.296 97.355 398.194 99.172 396.329 99.2605C394.464 99.349 384.174 99.1312 381.357 100.098C378.764 100.649 360.055 103.351 349.214 103.902C338.032 104.875 284.187 108.958 278.096 109.51L186.737 117.813C186.737 117.813 144.897 119.636 135.696 117.813C124.807 117.813 91.1259 114.77 81.9928 116.846C69.2596 117.527 2.60575 118.622 2.60575 118.622C2.60575 118.622 1.5713 113.144 2.60575 112.627C3.6402 112.109 9.87411 112.212 9.87411 112.212C9.87411 112.212 21.2939 110.34 27.521 112.103C35.0071 111.898 48.768 111.722 53.1984 111.306C57.6289 110.891 71.1924 110.34 77.2834 110.476C83.3744 110.612 146.496 110.476 146.496 110.476C146.496 110.476 194.251 109.51 199.233 108.434C204.214 107.359 265.58 102.779 265.58 102.779L337.263 96.7629C337.263 96.7629 369.168 94.3061 372.768 93.1968C376.389 92.7816 391.041 89.794 392.77 90.6379C392.862 90.7166 392.972 90.7734 393.09 90.8041C393.207 90.8347 393.331 90.8384 393.45 90.8148L393.716 90.9237C393.716 90.9237 395.71 74.2364 394.981 64.2662C394.362 59.8018 391.041 32.28 394.049 24.5081L389.482 24.406L389.591 23.1129Z" fill="#BF9000"/>
<path id="Vector_4" d="M394.348 9.35884L404.699 22.4868C402.964 23.249 400.575 24.6782 399.935 26.9172V27.0125V27.1078C399.54 29.83 398.275 38.827 398.363 41.6649C398.152 44.5573 397.996 55.2761 398.159 58.7265L398.268 61.0949C398.52 66.4236 399.187 80.5792 399.193 81.2393C399.193 81.4163 399.193 81.6069 399.193 81.811C399.193 82.0152 399.193 82.6821 399.193 82.8931V82.9679V83.1109C399.193 83.3082 399.139 83.669 399.071 84.7851C398.71 90.5222 398.336 93.7956 397.955 94.5034L397.893 94.6123L397.846 94.7348C397.696 95.184 397.56 95.6195 397.451 96.0075C396.914 97.8041 396.771 97.8994 396.362 97.9198C395.954 97.9402 395.049 97.9198 393.892 97.9198C388.645 97.9539 383.343 98.0423 381.125 98.7705C378.198 99.3694 359.694 101.996 349.268 102.534H349.22C343.313 103.044 325.115 104.46 309.067 105.705C294.626 106.822 280.987 107.876 278.109 108.142L186.635 116.479C185.75 116.513 167.634 117.282 152.995 117.282C144.297 117.282 138.547 117.023 135.913 116.499H135.783H135.647C132.156 116.499 126.337 116.186 119.593 115.818C110.746 115.342 100.762 114.804 92.8879 114.804C87.6544 114.804 84.0407 115.043 81.754 115.533C69.8714 116.166 12.6501 117.139 3.70761 117.282C3.51216 116.14 3.43689 114.982 3.48303 113.824C5.17084 113.638 6.86911 113.563 8.5668 113.6C9.3018 113.6 9.79861 113.6 9.80541 113.6H9.92791H10.0436C13.485 113.062 16.9598 112.767 20.4425 112.715C22.6883 112.646 24.9332 112.875 27.1188 113.396L27.3162 113.45H27.5271L34.8704 113.314C41.989 113.164 50.0536 112.987 53.3067 112.688C57.2471 112.314 68.5103 111.837 75.0845 111.837C75.8944 111.837 76.6158 111.837 77.2419 111.837C79.0454 111.878 86.0075 111.898 97.9172 111.898C118.191 111.898 146.203 111.837 146.509 111.837C148.462 111.837 194.448 110.857 199.497 109.796C203.37 108.993 244.503 105.712 265.722 104.113L337.392 98.09C340.638 97.8382 368.915 95.64 373.067 94.5102C374.203 94.3673 376.225 94.027 378.552 93.6255C383.017 92.8701 389.128 91.822 391.639 91.822C391.827 91.8078 392.016 91.8078 392.204 91.822C392.522 92.0125 392.882 92.1201 393.252 92.1351L394.879 92.7816L395.09 91.019C395.171 90.3384 397.131 74.0867 396.369 64.1097V64.0212C395.464 57.5423 392.646 31.9398 395.355 24.9368L396.036 23.1265L394.103 23.0857L390.979 23.0108C391.367 18.771 392.572 12.0606 394.382 9.29757L394.348 9.35884ZM394.47 7.20825C390.802 9.79437 389.625 23.0517 389.625 23.0517L389.523 24.3447L394.089 24.4468C391.081 32.2324 394.402 59.7405 395.022 64.205C395.75 74.1751 393.756 90.8624 393.756 90.8624L393.49 90.7535C393.443 90.7613 393.395 90.7613 393.347 90.7535C393.151 90.7513 392.961 90.6816 392.81 90.5562C392.437 90.4323 392.044 90.3814 391.653 90.4064C387.685 90.4064 376 92.7476 372.808 93.1287C369.208 94.238 337.303 96.6948 337.303 96.6948L265.579 102.779C265.579 102.779 204.173 107.454 199.191 108.489C194.209 109.523 146.455 110.531 146.455 110.531C146.455 110.531 118.402 110.592 97.89 110.592C87.6408 110.592 79.27 110.592 77.2419 110.531C76.5613 110.531 75.8808 110.531 75.0573 110.531C68.3606 110.531 57.111 111.014 53.1569 111.381C48.7265 111.796 34.9588 111.973 27.4795 112.178C25.1799 111.597 22.8141 111.32 20.4425 111.354C16.8921 111.39 13.3489 111.679 9.83944 112.218C9.83944 112.218 9.32902 112.218 8.58041 112.218C6.70207 112.218 3.31289 112.273 2.57108 112.647C1.53663 113.164 2.57108 118.643 2.57108 118.643C2.57108 118.643 69.2249 117.561 81.9582 116.867C84.2789 116.336 88.1853 116.145 92.9015 116.145C106.744 116.145 127.535 117.833 135.661 117.833C138.744 118.445 145.441 118.643 153.008 118.643C168.144 118.643 186.737 117.833 186.737 117.833L278.095 109.53C284.186 108.979 338.032 104.896 349.213 103.922C360.055 103.371 378.763 100.669 381.356 100.118C384.16 99.1516 394.47 99.383 396.328 99.2809C398.186 99.1789 398.275 97.355 399.05 95.1976C399.983 93.5643 400.344 83.9616 400.412 83.3627C400.523 82.6675 400.551 81.9615 400.493 81.2598C400.493 80.5792 399.609 62.0068 399.452 58.6788C399.295 55.3509 399.452 44.462 399.663 41.7057C399.561 39.2149 400.752 30.5514 401.221 27.3256C402.052 24.5149 406.931 23.1333 406.931 23.1333L394.436 7.28996L394.47 7.20825Z" fill="black"/>
<path id="Vector_5" d="M593.432 18.5396C593.432 18.5396 591.513 16.2529 589.539 16.1984C587.565 16.144 566.488 16.7225 561.922 16.6544C557.355 16.5864 523.13 17.825 517.686 18.0632C512.241 18.3014 506.177 18.5328 498.011 18.5396C489.844 18.5464 454.026 17.859 452.57 17.8114C451.113 17.7637 418.208 17.8658 411.981 19.5264C405.407 21.9968 401.092 23.3647 400.146 26.1686C399.2 28.9725 398.289 39.351 398.289 39.351L397.764 55.7525C397.764 55.7525 399.33 81.811 399.085 82.8795C398.84 83.948 398.404 96.7288 396.206 97.8518C393.484 97.8518 385.412 97.7157 382.99 98.2669C375.946 99.6605 368.83 100.656 361.675 101.248C351.847 102.078 288.855 107.005 288.855 107.005L245.667 110.551L198.205 114.573C198.205 114.573 176.12 117.214 164.701 117.214C153.281 117.214 131.068 116.451 122.765 115.757C114.462 115.063 95.4948 114.573 95.4948 114.573L0.842773 117.214V192.688C0.842773 192.688 148.953 195.063 155.391 195.063C161.829 195.063 251.104 196.58 251.104 196.58C251.104 196.58 423.285 196.308 428.961 196.58C434.637 196.852 568.081 195.219 568.081 195.219C568.081 195.219 598.257 195.634 599.502 186.372C600.748 177.11 599.23 167.963 599.502 164.921C599.774 161.879 598.822 115.24 598.822 115.24C598.822 115.24 598.679 93.1627 597.461 89.0113C597.045 82.9884 596.426 40.8415 596.426 36.8942C596.426 32.947 595.317 22.3643 593.432 18.5396Z" fill="#7F6000"/>
<path id="Vector_6" d="M589.171 17.5596H589.525C590.451 17.5596 591.669 18.594 592.302 19.295C593.983 22.9156 595.024 32.7973 595.024 36.8602C595.024 40.263 595.637 82.9204 596.065 89.0658V89.2223L596.113 89.3652C597.086 92.6183 597.399 109.101 597.44 115.226C597.774 131.335 598.352 162.416 598.121 164.771C598.065 166.479 598.117 168.188 598.277 169.889C598.556 174.217 598.958 180.145 598.128 186.168C597.447 191.442 582.345 193.844 568.632 193.844H568.04C566.904 193.844 454.094 195.26 432.398 195.26C430.091 195.26 429.281 195.26 428.995 195.26C427.301 195.172 410.913 195.131 380.295 195.131C328.198 195.131 251.832 195.253 251.091 195.253C250.199 195.253 161.727 193.736 155.357 193.736C149.327 193.736 17.0196 191.605 2.16986 191.367V118.548L95.488 115.948C96.4271 115.948 114.646 116.465 122.642 117.132C130.809 117.813 153.22 118.588 164.694 118.588C175.896 118.588 197.483 116.036 198.334 115.941L245.844 111.885L289.025 108.339C289.658 108.292 352.126 103.405 361.845 102.582C369.063 101.978 376.243 100.974 383.35 99.5736C384.5 99.315 387.434 99.1789 392.198 99.1789H394.845H396.608L396.893 99.036C398.704 98.1308 399.568 94.6124 400.296 85.0777C400.364 84.2338 400.432 83.3559 400.466 83.1722C400.704 82.1309 399.901 67.6827 399.18 55.7185L399.697 39.4191C399.956 36.5471 400.779 28.748 401.501 26.5838C402.181 24.6442 405.788 23.2899 410.824 21.4183L412.458 20.8059C417.732 19.4447 442.627 19.1521 451.808 19.1521H452.611L455.224 19.1998C464.03 19.3699 490.844 19.8803 497.977 19.8803H498.072C506.205 19.8803 512.275 19.6421 517.808 19.3971C522.715 19.1861 555.463 17.9883 561.527 17.9883H562.888C566.162 17.9883 573.151 17.8454 579.324 17.7093C583.89 17.6141 587.837 17.5324 589.199 17.5324L589.171 17.5596ZM589.199 16.1713C585.993 16.1713 568.591 16.6272 562.888 16.6272H561.527C555.565 16.6272 523.008 17.8114 517.754 18.0428C512.35 18.2742 506.245 18.5124 498.079 18.5192H497.983C489.647 18.5192 454.087 17.8386 452.638 17.791H451.78C446.39 17.791 417.752 17.9747 412.015 19.5128C405.441 21.9832 401.126 23.3511 400.18 26.155C399.235 28.9589 398.289 39.3511 398.289 39.3511L397.764 55.7525C397.764 55.7525 399.33 81.811 399.085 82.8795C398.84 83.948 398.404 96.7289 396.206 97.8518H392.123C388.72 97.8518 384.603 97.913 382.99 98.2805C375.946 99.6741 368.83 100.669 361.675 101.261C351.847 102.092 288.855 107.019 288.855 107.019L245.667 110.565L198.205 114.573C198.205 114.573 176.12 117.214 164.701 117.214C153.281 117.214 131.068 116.451 122.765 115.757C114.462 115.063 95.4948 114.573 95.4948 114.573L0.842773 117.214V192.688C0.842773 192.688 148.953 195.063 155.391 195.063C161.829 195.063 251.104 196.58 251.104 196.58C251.104 196.58 327.626 196.458 380.329 196.458C406.68 196.458 427.069 196.458 428.961 196.58C429.404 196.58 430.595 196.58 432.425 196.58C454.38 196.58 568.081 195.165 568.081 195.165H568.659C572.845 195.165 598.359 194.818 599.502 186.318C600.748 177.042 599.23 167.908 599.502 164.866C599.774 161.824 598.822 115.186 598.822 115.186C598.822 115.186 598.679 93.1083 597.461 88.9569C597.045 82.934 596.426 40.787 596.426 36.8398C596.426 32.8926 595.351 22.3439 593.466 18.5192C593.466 18.5192 591.547 16.2325 589.573 16.1781L589.199 16.1713Z" fill="black"/>
<path id="Vector_7" d="M403.229 23.1129L392.844 9.55617C392.844 9.55617 393.293 2.94797 418.487 1.70255C443.681 0.457128 479.942 2.11769 480.5 2.2538C481.058 2.38991 503.856 1.63449 505 1.49158C506.143 1.34866 554.517 0.940304 561.785 0.320997C569.809 1.15128 578.67 1.07642 580.16 0.320997C580.923 0.320997 587.048 -0.509265 589.008 2.08366C590.968 4.67658 595.344 15.7356 593.527 18.5395C591.71 19.2201 590.723 17.0831 590.723 17.0831H573.498C573.498 17.0831 525.069 17.2397 520.088 17.8658C515.106 18.4919 492.471 18.6961 487.278 18.4851C482.085 18.2741 449.738 17.7569 449.316 17.7569C448.894 17.7569 425.497 17.6208 418.732 18.8662C411.967 20.1116 404.672 21.7314 403.229 23.1129Z" fill="#BF9000"/>
<path id="Vector_8" d="M582.835 1.55283C585.394 1.55283 587.17 2.03602 587.83 2.91394C588.661 4.00284 590.185 7.19466 591.301 10.6587C592.417 14.1227 592.588 16.2529 592.458 17.2193C592.21 17.0423 592.007 16.8091 591.866 16.5387L591.499 15.7493H573.491C571.511 15.7493 524.926 15.9126 519.918 16.5387C516.147 17.0083 502.162 17.2193 493.893 17.2193C490.905 17.2193 488.571 17.2193 487.332 17.1444C481.976 16.9335 449.521 16.4162 449.316 16.4162H447.05C440.32 16.4162 424.054 16.5251 418.467 17.5459C408.939 19.295 405.169 20.5268 403.535 21.3163L394.348 9.35885C395.178 8.05898 399.302 4.03006 418.508 3.08408C424.633 2.77783 432.003 2.62131 440.285 2.62131C459.668 2.62131 478.812 3.47883 480.187 3.62175C480.451 3.6538 480.717 3.66517 480.983 3.65577C484.304 3.65577 503.87 3.01606 505.02 2.86634C505.544 2.82551 511.343 2.74384 518.06 2.65537C533.372 2.4444 556.45 2.12452 561.656 1.70257C565.338 2.08368 569.496 2.29465 573.083 2.29465C576.669 2.29465 579.16 2.09048 580.303 1.68895H580.623C581.134 1.64811 581.903 1.59366 582.787 1.59366L582.835 1.55283ZM582.787 0.232544C581.426 0.232544 580.303 0.361852 580.011 0.361852C579.269 0.74977 576.608 0.953975 573.083 0.953975C569.721 0.953975 565.597 0.763381 561.67 0.361852C554.401 0.981159 505.987 1.39632 504.884 1.53243C503.782 1.66854 484.597 2.31509 480.983 2.31509C480.795 2.32877 480.606 2.32877 480.418 2.31509C480.01 2.21301 460.566 1.30102 440.265 1.30102C432.779 1.30102 425.177 1.43033 418.385 1.7638C393.205 3.00922 392.742 9.61746 392.742 9.61746L403.161 23.1742C404.604 21.813 411.879 20.1729 418.664 18.9275C424.211 17.9067 440.878 17.8182 446.982 17.8182H449.33C449.752 17.8182 482.106 18.3422 487.292 18.5464C488.591 18.6008 490.98 18.6212 493.907 18.6212C502.699 18.6212 516.365 18.3898 520.101 17.9407C525.083 17.3146 573.511 17.1581 573.511 17.1581H590.641C590.641 17.1581 591.376 18.7437 592.744 18.7437C592.976 18.7385 593.206 18.6948 593.425 18.6144C595.242 15.8105 590.879 4.75146 588.906 2.15853C587.708 0.572835 584.958 0.266605 582.828 0.266605L582.787 0.232544Z" fill="black"/>
</g>
</svg>
