<svg width="600" height="159" viewBox="0 0 600 159" fill="none" xmlns="http://www.w3.org/2000/svg">
<g id="WOODEN STRUCTURE Snow Leopard">
<path id="Vector" d="M3.60672 158.511C3.37585 158.521 3.14618 158.472 2.93948 158.369C2.73278 158.266 2.55587 158.111 2.42553 157.92C1.46158 156.562 2.64276 153.073 2.89393 152.394C3.21977 151.402 3.11115 146.792 2.89393 145.91C2.73894 144.663 2.73894 143.402 2.89393 142.155L2.11327 112.702V67.8239L1.53626 3.51383C1.53604 3.32977 1.57325 3.14758 1.6456 2.97835C1.71795 2.80911 1.82393 2.65635 1.95713 2.52935C2.5002 1.9794 3.83073 1.25293 9.05097 1.25293C17.0205 1.25293 29.0834 2.98425 29.2056 3.00462C31.4186 3.30336 40.2299 3.41198 40.3181 3.41198L110.842 4.65446C112.662 4.83778 115.445 4.93283 119.151 4.93283C133.773 4.93283 158.463 3.50025 158.714 3.47988C161.646 3.18031 164.592 3.04883 167.539 3.08609C174.809 3.08609 183.152 3.60209 185.867 3.76504L186.872 3.82614H186.92C191.047 4.76988 192.113 13.6098 192.208 14.4381C194.122 20.8067 193.416 45.147 193.389 46.179L193.144 72.5426C192.975 75.6793 195.181 83.1477 195.181 83.2156C196.091 86.0197 200.245 86.0604 200.286 86.0604L212.919 85.9586C213.184 85.9586 213.462 85.9586 213.781 85.9586C216.904 85.9586 223.964 85.1982 224.799 85.1099C226.835 84.2816 233.04 84.173 233.304 84.1662L250.907 83.8606L306.917 81.8917L363.987 80.6492L422.292 80.2079L466.294 79.1963L522.943 78.8839L575.75 78.0964C578.085 77.9742 582.382 77.3291 583.129 77.2205C583.951 76.7979 584.874 76.6078 585.797 76.6706C586.224 76.6706 586.564 76.6706 586.693 76.7113H587.025C587.389 76.7127 587.75 76.7874 588.084 76.9309C588.419 77.0743 588.721 77.2837 588.974 77.5464C590.915 79.5154 590.881 84.431 590.881 84.6346C590.881 86.3184 590.881 126.051 590.881 126.553C590.983 130.735 590.467 142.848 590.046 145.876C588.593 152.156 569.002 153.147 568.833 153.147L566.477 153.263C559.981 153.568 542.718 154.39 539.425 154.39C535.522 154.39 487.25 155.524 481.684 155.945C478.803 156.227 475.909 156.343 473.015 156.291C468.942 156.291 464.998 156.169 464.584 156.155C463.382 156.277 459.879 156.338 453.865 156.338C433.934 156.338 393.51 155.659 393.102 155.659C390.706 155.435 386.049 155.32 379.213 155.32C364.279 155.32 342.183 155.87 331.566 156.128C327.825 156.223 325.354 156.284 324.777 156.284C321.811 156.284 217.929 157.819 216.883 157.839C216.883 157.839 188.875 157.588 160.886 157.296C144.628 157.119 131.696 156.97 122.389 156.848C117.142 156.773 112.764 156.705 109.702 156.644C106.79 156.59 105.473 156.562 104.882 156.461C101.631 156.304 91.9843 156.23 76.1199 156.23C53.5351 156.23 26.0083 156.393 25.73 156.393C20.5369 156.556 10.2254 157.751 5.8265 158.246C4.08189 158.45 3.70854 158.511 3.60672 158.511Z" fill="#7F6000"/>
<path id="Vector_2" d="M9.02385 1.7622C17.0545 1.7622 29.1038 3.50709 29.1038 3.50709C31.3847 3.81941 40.2843 3.92125 40.2843 3.92125L110.808 5.16373C112.73 5.36062 115.655 5.4421 119.124 5.4421C133.93 5.4421 158.714 3.98915 158.714 3.98915C161.646 3.68819 164.592 3.55671 167.539 3.59536C176.017 3.59536 185.732 4.2743 186.777 4.33541C190.68 5.23162 191.644 14.574 191.644 14.574C193.579 20.861 192.819 46.1994 192.819 46.1994L192.663 72.5562C192.452 75.8219 194.699 83.3787 194.699 83.3787C195.717 86.5426 200.272 86.5426 200.272 86.5426L212.905 86.4407C213.143 86.4407 213.435 86.4407 213.768 86.4407C217.162 86.4407 224.921 85.5852 224.921 85.5852C226.781 84.7569 233.304 84.6483 233.304 84.6483L250.913 84.3428L306.931 82.3738L363.987 81.1313L422.286 80.69L466.294 79.7531L522.937 79.4408L575.75 78.6532C578.37 78.5106 583.312 77.7502 583.312 77.7502C584.075 77.3527 584.932 77.1719 585.79 77.2274C586.313 77.2274 586.693 77.2681 586.693 77.2681H587.019C590.413 77.2681 590.365 84.6754 590.365 84.6754C590.365 84.6754 590.365 126.091 590.365 126.587C590.467 130.729 589.951 142.848 589.537 145.849C588.179 151.654 569.036 152.686 568.826 152.686C568.615 152.686 543.458 153.928 539.419 153.928C535.38 153.928 487.148 155.069 481.636 155.483C478.764 155.759 475.879 155.875 472.995 155.829C468.643 155.829 464.55 155.694 464.55 155.694C463.328 155.823 459.35 155.877 453.851 155.877C433.69 155.877 393.102 155.198 393.102 155.198C390.509 154.953 385.452 154.858 379.2 154.858C359.208 154.858 327.045 155.823 324.757 155.823C321.75 155.823 216.822 157.377 216.822 157.377C216.822 157.377 104.848 156.372 104.848 156.019C101.108 155.843 89.3777 155.789 76.0453 155.789C53.2025 155.789 25.6689 155.952 25.6689 155.952C18.9688 156.162 3.94617 158.043 3.58639 158.043C1.38696 158.043 3.34879 152.611 3.34879 152.611C3.71537 151.525 3.60675 146.813 3.34879 145.822C3.21407 144.635 3.21407 143.437 3.34879 142.25L2.57491 112.73V67.8239L1.99792 3.50709C1.99792 2.19672 4.99157 1.7622 9.00349 1.7622H9.02385ZM9.00349 0.743774C3.64747 0.743774 2.21513 1.50419 1.53629 2.16956C1.3551 2.34612 1.21126 2.55732 1.11331 2.79059C1.01535 3.02386 0.965273 3.27445 0.966074 3.52746L1.54309 67.8443V112.655L2.31697 142.135C2.16264 143.421 2.17404 144.722 2.3509 146.005C2.5885 146.901 2.6428 151.382 2.3509 152.211C1.99112 153.202 0.877819 156.637 1.95717 158.178C2.13555 158.435 2.37465 158.642 2.65305 158.783C2.93145 158.924 3.24047 158.994 3.55244 158.986C3.68142 158.986 3.89187 158.986 5.79261 158.742C10.1847 158.24 20.4758 157.058 25.6621 156.895C25.9133 156.895 53.4333 156.732 76.0114 156.732C91.8418 156.732 101.515 156.807 104.767 156.963C104.87 156.982 104.974 156.994 105.079 156.997L106.036 157.038C106.864 157.038 108.073 157.092 109.607 157.119C112.512 157.18 116.782 157.248 122.294 157.323C131.588 157.445 144.533 157.595 160.791 157.771C188.467 158.056 216.496 158.307 216.782 158.314C217.854 158.314 321.73 156.759 324.716 156.759C325.307 156.759 327.778 156.698 331.505 156.603C342.122 156.345 364.211 155.795 379.139 155.795C385.961 155.795 390.604 155.911 392.939 156.135H393.021C393.428 156.135 433.853 156.814 453.79 156.814C459.757 156.814 463.294 156.753 464.523 156.63C465.086 156.63 468.922 156.766 472.933 156.766C475.855 156.819 478.776 156.701 481.684 156.413C487.379 155.992 535.468 154.865 539.385 154.865C542.697 154.865 559.967 154.044 566.464 153.738L568.819 153.623C572.216 153.438 575.597 153.03 578.94 152.401C586.061 150.995 589.849 148.918 590.481 146.039V145.998V145.951C590.902 142.916 591.424 130.776 591.322 126.539C591.322 125.107 591.322 86.3049 591.322 84.6347C591.322 84.1051 591.322 79.2778 589.286 77.2002C588.989 76.8868 588.631 76.6372 588.234 76.4668C587.837 76.2963 587.41 76.2086 586.978 76.209H586.638C586.476 76.209 586.15 76.175 585.749 76.175C584.768 76.1207 583.789 76.3169 582.905 76.7453C581.948 76.8879 577.915 77.4786 575.675 77.6008L522.923 78.3952L466.294 78.7007L422.265 79.7531L363.98 80.1944L306.911 81.4369L250.846 83.3787L233.264 83.6842C232.585 83.6842 226.781 83.8132 224.636 84.6415C223.57 84.7569 216.761 85.4766 213.774 85.4766C213.455 85.4766 213.197 85.4766 212.994 85.4766H212.899L200.265 85.5784C200.265 85.5784 196.444 85.5309 195.649 83.0731C195.649 83.0256 193.484 75.6726 193.681 72.6309V72.5698L193.823 46.1858C193.823 45.1742 194.556 20.8746 192.635 14.3499C192.466 12.9513 191.366 4.34899 186.967 3.34415H186.879H186.791L185.84 3.28983C183.125 3.1201 174.789 2.61088 167.512 2.61088C164.547 2.57376 161.582 2.70751 158.632 3.01146C157.607 3.07257 133.516 4.45763 119.131 4.45763C115.445 4.45763 112.675 4.36257 110.917 4.18604H110.829L40.3114 2.94356C40.2164 2.94356 31.439 2.84172 29.2464 2.54299C29.1378 2.54299 17.0273 0.78451 9.03065 0.78451L9.00349 0.743774Z" fill="black"/>
<path id="Vector_3" d="M199.756 85.6667C198.365 85.6667 197.367 85.2865 196.783 84.5329C196.536 84.1716 196.368 83.7627 196.288 83.3324C196.209 82.9021 196.22 82.4599 196.322 82.0343L197.781 77.8588C198.053 77.0712 199.308 76.7182 201.854 76.7182C203.558 76.7182 205.635 76.8743 207.461 77.0169C208.507 77.0984 209.498 77.1798 210.353 77.2206C214.426 77.4243 220.841 77.5261 220.909 77.5329H328.369L362.955 77.7366L428.965 76.9626L445.169 76.7046L467.068 76.1818L492.124 75.6658L530.492 75.1634L584.758 74.7017L584.874 74.464L585.491 67.4845C585.491 65.9093 586.462 65.8618 586.571 65.8618L596.135 65.339H596.21C596.413 65.4086 596.595 65.5267 596.742 65.6828C596.889 65.839 596.995 66.0286 597.052 66.2352C597.296 67.1722 596.448 68.272 596.373 68.4214C594.465 70.852 590.786 75.5707 590.488 76.0256C590.107 76.6163 588.879 76.8607 588.308 76.8607C588.129 76.8746 587.95 76.8293 587.799 76.7317C587.689 76.7216 587.577 76.7216 587.467 76.7317C586.352 76.7958 585.243 76.9365 584.147 77.1527C583.341 77.4337 582.488 77.5559 581.635 77.5125H581.5C581.398 77.5125 570.876 77.5125 568.31 77.3767H567.808C562.682 77.3767 522.692 77.981 493.489 78.4223C474.603 78.7075 459.689 78.9315 458.454 78.9315C457.402 78.9315 452.161 78.9858 445.556 79.0537C432.848 79.1827 415.45 79.366 408.75 79.366H406.489H405.912C397.712 79.366 333.12 81.0091 332.469 81.0295C328.545 81.1381 236.352 83.7453 235.124 83.7453C228.634 83.7453 225.83 84.0915 225.376 84.4242C224.561 84.9945 221.608 85.1032 219.266 85.1032H218.492L199.763 85.7278L199.756 85.6667Z" fill="#6D5200"/>
<path id="Vector_4" d="M596.081 65.6852C597.602 66.3031 596.081 68.2381 596.081 68.2381C596.081 68.2381 590.555 75.2788 590.175 75.8694C589.897 76.304 588.818 76.5484 588.281 76.5484C588.091 76.5484 587.969 76.5484 587.969 76.4533C587.796 76.4091 587.618 76.3908 587.439 76.399C586.284 76.4663 585.134 76.6115 583.998 76.8336C583.231 77.1 582.42 77.2175 581.608 77.1798H581.479C581.479 77.1798 570.883 77.1798 568.296 77.044H567.787C559.492 77.044 461.638 78.5988 458.427 78.5988C455.413 78.5988 419.054 79.0265 408.702 79.0265C407.67 79.0265 406.896 79.0265 406.441 79.0265H405.864C397.576 79.0265 332.408 80.69 332.408 80.69C332.408 80.69 236.312 83.4058 235.069 83.4058C233.827 83.4058 226.163 83.4058 225.124 84.1322C224.323 84.6958 220.76 84.7569 219.219 84.7569H218.499L199.756 85.3815C195.819 85.3815 196.647 82.1701 196.647 82.1701L198.1 78.0285C198.344 77.3495 199.858 77.1119 201.834 77.1119C204.474 77.1119 207.943 77.4921 210.319 77.6143C214.46 77.818 220.882 77.9267 220.882 77.9267H328.369L362.955 78.1303L428.965 77.3563L445.169 77.0983L467.075 76.5756L492.131 76.0595L530.499 75.5571L584.969 75.0955L585.206 74.6134L585.831 67.5659C585.831 66.3098 586.455 66.2555 586.571 66.2555L596.074 65.7395L596.081 65.6852ZM596.19 65.0606H596.04L586.571 65.5766C586.428 65.5766 585.165 65.6309 585.152 67.5388L584.541 74.4165L530.492 74.8782L492.124 75.3806L467.062 75.8966L445.155 76.4194L428.958 76.6774L362.942 77.4514L328.369 77.2477H220.882C220.827 77.2477 214.433 77.1391 210.353 76.9354C209.504 76.8947 208.513 76.8132 207.468 76.7385C205.628 76.5959 203.551 76.433 201.834 76.433C199.118 76.433 197.761 76.8403 197.455 77.7909L196.009 81.9324C195.899 82.4088 195.889 82.903 195.98 83.3835C196.071 83.864 196.261 84.3202 196.539 84.7229C197.218 85.5648 198.276 85.9926 199.777 85.9926L218.526 85.3679H219.205C222.674 85.3679 224.792 85.1167 225.505 84.6211C225.858 84.397 228.281 84.0168 235.056 84.0168C236.291 84.0168 328.484 81.4368 332.408 81.301C333.086 81.301 397.664 79.6376 405.851 79.6376H406.414C406.856 79.6376 407.623 79.6376 408.688 79.6376C415.395 79.6376 432.794 79.4611 445.495 79.3321C452.127 79.2642 457.361 79.2099 458.393 79.2099C459.628 79.2099 474.569 78.9858 493.489 78.7007C522.679 78.2593 562.642 77.6551 567.753 77.6551H568.235C570.808 77.7569 581.011 77.7909 581.445 77.7909H581.574C582.464 77.8374 583.355 77.7082 584.195 77.4106C585.255 77.2058 586.327 77.072 587.405 77.0101H587.623C587.815 77.1111 588.03 77.1602 588.247 77.1527C588.634 77.1527 590.182 76.9829 590.711 76.1614C590.983 75.7472 594.37 71.4087 596.583 68.5843C596.76 68.3603 597.629 67.1789 597.344 66.0994C597.273 65.843 597.142 65.6074 596.961 65.4124C596.78 65.2174 596.555 65.0688 596.305 64.9791L596.163 64.9248L596.19 65.0606Z" fill="black"/>
<path id="Vector_5" d="M589.87 147.763C589.87 147.695 591.499 140.818 591.499 135.142V83.8743C591.379 82.369 590.841 80.9273 589.944 79.7123C589.904 79.658 588.804 78.1236 589.727 76.7996L596.427 68.4893L596.468 68.435L596.522 68.4011C596.776 68.2112 597.081 68.1023 597.398 68.0887C597.615 68.0887 598.328 68.1702 598.464 69.2633V131.625C598.571 135.006 598.126 138.381 597.147 141.619V141.666V141.707C597.004 141.958 593.753 147.763 590.494 148.381L589.72 148.531L589.87 147.763Z" fill="#5F4800"/>
<path id="Vector_6" d="M597.398 68.598C597.642 68.598 597.893 68.7541 597.961 69.3245V131.625C598.06 134.952 597.622 138.274 596.665 141.463C596.665 141.463 593.4 147.302 590.365 147.886C590.365 147.886 592.008 140.947 592.008 135.142V83.8743C591.897 82.2633 591.327 80.7178 590.365 79.4204C590.365 79.4204 589.422 78.1304 590.141 77.0916C590.365 76.8336 596.821 68.8084 596.821 68.8084C596.99 68.6868 597.19 68.614 597.398 68.598ZM597.398 67.5796C596.972 67.5943 596.561 67.7362 596.217 67.9869L596.115 68.0684L596.027 68.1702C593.454 71.3681 589.557 76.2158 589.367 76.433V76.467V76.5077C588.471 77.7977 589.096 79.3254 589.605 80.0247C590.432 81.1502 590.933 82.4824 591.051 83.8743V135.142C591.051 140.757 589.449 147.58 589.435 147.648L589.069 149.182L590.616 148.884C594.011 148.205 597.255 142.597 597.615 141.958L597.663 141.87L597.697 141.775C598.701 138.477 599.16 135.037 599.054 131.591V69.1955C599.056 68.7727 598.892 68.366 598.598 68.0626C598.304 67.7593 597.902 67.5834 597.479 67.5728L597.398 67.5796Z" fill="black"/>
</g>
</svg>
